<?xml version="1.0" encoding="utf-8"?>
<!-- Generator: Adobe Illustrator 22.0.0, SVG Export Plug-In . SVG Version: 6.00 Build 0)  -->
<svg version="1.1" xmlns="http://www.w3.org/2000/svg" xmlns:xlink="http://www.w3.org/1999/xlink" x="0px" y="0px"
	 viewBox="0 0 98.4 787.9" style="enable-background:new 0 0 98.4 787.9;" xml:space="preserve">
<style type="text/css">
	.st0{display:none;}
	.st1{display:inline;}
	.st2{fill:#FFFFFF;}
	.st3{display:inline;fill:#FFDC71;}
	.st4{fill:#A70500;}
	.st5{fill:#F33600;}
	.st6{fill:#EAA500;}
	.st7{fill:#B60300;}
	.st8{fill:none;stroke:#FFFFFF;stroke-width:8;stroke-miterlimit:10;}
	.st9{fill:#A86000;}
	.st10{fill:#0071BB;}
	.st11{fill:#1B1464;}
	.st12{fill:#580000;}
	.st13{fill:#DD2400;}
	.st14{fill:#EA9E00;}
	.st15{display:inline;fill:#580000;}
	.st16{display:inline;fill:#DD2400;}
	.st17{display:inline;fill:#EA9E00;}
	.st18{display:inline;fill:#A70500;}
	.st19{display:inline;fill:#F6921E;}
	.st20{fill:#F6921E;}
	.st21{clip-path:url(#SVGID_2_);}
	.st22{clip-path:url(#SVGID_4_);}
</style>
<g id="Capa_1" class="st0">
</g>
<g id="Capa_6" class="st0">
</g>
<g id="Capa_7">
	<rect x="-16" y="-18" class="st4" width="125" height="825"/>
	<g>
		
			<rect x="49.3" y="71.4" transform="matrix(-1 -4.684976e-11 4.684976e-11 -1 147.5397 214.4681)" class="st12" width="49" height="71.6"/>
		
			<rect x="0.1" y="71.4" transform="matrix(-1 -4.686796e-11 4.686796e-11 -1 49.3146 214.4681)" class="st13" width="49" height="71.6"/>
		<polygon class="st4" points="28.2,143.2 70.1,143.2 49.2,71.6 		"/>
		<g>
			<path class="st13" d="M52.4,71.4c2.3,5.6,4.3,11.2,6.2,16.9c1.9,5.7,3.7,11.4,5.3,17.1c1.6,5.8,2.8,11.6,4.5,17.4
				c1.6,5.8,3.5,11.4,5.6,17.1h-1.6c1.5-5.8,3-11.6,4.7-17.3c1.6-5.8,3.3-11.5,5.1-17.2c3.6-11.4,7.4-22.7,11.9-33.9l0.3,0.1
				c-2.6,11.7-5.7,23.3-9.1,34.8c-1.7,5.7-3.5,11.4-5.4,17.1c-1.8,5.7-3.8,11.4-5.8,17l-0.9,2.6l-0.7-2.6
				c-1.5-5.8-3.1-11.6-4.9-17.3c-1.8-5.7-4-11.3-6-16.9c-1.9-5.7-3.6-11.4-5.2-17.2c-1.6-5.8-3.1-11.6-4.3-17.5L52.4,71.4z"/>
		</g>
		<g>
			<path class="st12" d="M45.6,71.5c-1.2,5.9-2.7,11.7-4.2,17.5c-1.6,5.8-3.2,11.5-5.1,17.2c-1.9,5.7-4.1,11.3-5.9,17
				c-1.8,5.7-3.4,11.5-4.9,17.3l-0.6,2.6l-0.9-2.6c-2-5.6-4-11.3-5.8-17c-1.9-5.7-3.7-11.4-5.4-17.1C9.2,94.8,6,83.2,3.5,71.5
				l0.3-0.1c4.4,11.2,8.3,22.5,11.9,33.9c1.8,5.7,3.5,11.5,5.1,17.2c1.7,5.7,3.2,11.5,4.7,17.3l-1.6,0c2-5.6,3.9-11.3,5.5-17.1
				c1.7-5.7,2.9-11.6,4.5-17.4c1.6-5.8,3.4-11.5,5.3-17.1c1.9-5.7,3.9-11.3,6.2-16.9L45.6,71.5z"/>
		</g>
		<polygon class="st4" points="-0.4,143.2 20.9,143.2 0,71.6 		"/>
		<path class="st4" d="M98.3,143.2H76.9c7.2-23.8,14.3-47.5,21.5-71.3C98.3,95.7,98.3,119.5,98.3,143.2z"/>
		<rect x="0" y="0" class="st12" width="49.2" height="71.9"/>
		<rect x="49.2" y="0" class="st13" width="49.2" height="71.9"/>
		<polygon class="st4" points="69.7,0 27.8,0 48.8,71.6 		"/>
		<g>
			<path class="st13" d="M45.6,71.5c-2.3-5.6-4.3-11.2-6.2-16.9c-1.9-5.7-3.7-11.4-5.3-17.1c-1.6-5.8-2.8-11.6-4.5-17.4
				C27.9,14.3,26,8.7,24,3l1.6,0c-1.5,5.8-3,11.6-4.7,17.3c-1.6,5.8-3.3,11.5-5.1,17.2C12.2,49,8.4,60.3,4,71.5l-0.3-0.1
				c2.6-11.7,5.7-23.3,9.1-34.8c1.7-5.7,3.5-11.4,5.4-17.1C20,13.8,22,8.2,24,2.5L24.9,0l0.7,2.6c1.5,5.8,3.1,11.6,4.9,17.3
				c1.8,5.7,4,11.3,6,16.9c1.9,5.7,3.6,11.4,5.2,17.2c1.6,5.8,3.1,11.6,4.3,17.5L45.6,71.5z"/>
		</g>
		<g>
			<path class="st12" d="M52.3,71.4c1.2-5.9,2.7-11.7,4.2-17.5c1.6-5.8,3.2-11.5,5.1-17.2c1.9-5.7,4.1-11.3,5.9-17
				c1.8-5.7,3.4-11.5,4.9-17.3L73.2,0l0.9,2.6c2,5.6,4,11.3,5.8,17c1.9,5.7,3.7,11.4,5.4,17.1c3.4,11.5,6.5,23,9.1,34.7l-0.3,0.1
				C89.8,60.3,86,49,82.3,37.6c-1.8-5.7-3.5-11.5-5.1-17.2C75.6,14.6,74,8.8,72.5,3l1.6,0c-2,5.6-3.9,11.3-5.5,17.1
				c-1.7,5.7-2.9,11.6-4.5,17.4c-1.6,5.8-3.4,11.5-5.3,17.1c-1.9,5.7-3.9,11.3-6.2,16.9L52.3,71.4z"/>
		</g>
		<polygon class="st4" points="98.8,0 77.4,0 98.4,71.6 		"/>
		<path class="st4" d="M-0.3,0l21.4,0C13.9,23.8,6.7,47.5-0.4,71.3C-0.4,47.5-0.3,23.8-0.3,0z"/>
	</g>
	<g>
		
			<rect x="49.3" y="214.7" transform="matrix(-1 -4.684976e-11 4.684976e-11 -1 147.5397 500.8929)" class="st12" width="49" height="71.6"/>
		
			<rect x="0.1" y="214.7" transform="matrix(-1 -4.686796e-11 4.686796e-11 -1 49.3146 500.8929)" class="st13" width="49" height="71.6"/>
		<polygon class="st4" points="28.2,286.4 70.1,286.4 49.2,214.8 		"/>
		<g>
			<path class="st13" d="M52.4,214.6c2.3,5.6,4.3,11.2,6.2,16.9c1.9,5.7,3.7,11.4,5.3,17.1c1.6,5.8,2.8,11.6,4.5,17.4
				c1.6,5.8,3.5,11.4,5.6,17.1h-1.6c1.5-5.8,3-11.6,4.7-17.3c1.6-5.8,3.3-11.5,5.1-17.2c3.6-11.4,7.4-22.7,11.9-33.9l0.3,0.1
				c-2.6,11.7-5.7,23.3-9.1,34.8c-1.7,5.7-3.5,11.4-5.4,17.1c-1.8,5.7-3.8,11.4-5.8,17l-0.9,2.6l-0.7-2.6
				c-1.5-5.8-3.1-11.6-4.9-17.3c-1.8-5.7-4-11.3-6-16.9c-1.9-5.7-3.6-11.4-5.2-17.2c-1.6-5.8-3.1-11.6-4.3-17.5L52.4,214.6z"/>
		</g>
		<g>
			<path class="st12" d="M45.6,214.7c-1.2,5.9-2.7,11.7-4.2,17.5c-1.6,5.8-3.2,11.5-5.1,17.2c-1.9,5.7-4.1,11.3-5.9,17
				c-1.8,5.7-3.4,11.5-4.9,17.3l-0.6,2.6l-0.9-2.6c-2-5.6-4-11.3-5.8-17c-1.9-5.7-3.7-11.4-5.4-17.1c-3.4-11.5-6.5-23-9.1-34.7
				l0.3-0.1c4.4,11.2,8.3,22.5,11.9,33.9c1.8,5.7,3.5,11.5,5.1,17.2c1.7,5.7,3.2,11.5,4.7,17.3l-1.6,0c2-5.6,3.9-11.3,5.5-17.1
				c1.7-5.7,2.9-11.6,4.5-17.4c1.6-5.8,3.4-11.5,5.3-17.1c1.9-5.7,3.9-11.3,6.2-16.9L45.6,214.7z"/>
		</g>
		<polygon class="st4" points="-0.4,286.4 20.9,286.4 0,214.8 		"/>
		<path class="st4" d="M98.3,286.4H76.9c7.2-23.8,14.3-47.5,21.5-71.3C98.3,238.9,98.3,262.7,98.3,286.4z"/>
		<rect x="0" y="143.2" class="st12" width="49.2" height="71.9"/>
		<rect x="49.2" y="143.2" class="st13" width="49.2" height="71.9"/>
		<polygon class="st4" points="69.7,143.2 27.8,143.2 48.8,214.8 		"/>
		<g>
			<path class="st13" d="M45.6,214.7c-2.3-5.6-4.3-11.2-6.2-16.9c-1.9-5.7-3.7-11.4-5.3-17.1c-1.6-5.8-2.8-11.6-4.5-17.4
				c-1.6-5.8-3.5-11.4-5.6-17.1h1.6c-1.5,5.8-3,11.6-4.7,17.3c-1.6,5.8-3.3,11.5-5.1,17.2c-3.6,11.4-7.4,22.7-11.9,33.9l-0.3-0.1
				c2.6-11.7,5.7-23.3,9.1-34.8c1.7-5.7,3.5-11.4,5.4-17.1c1.8-5.7,3.8-11.4,5.8-17l0.9-2.6l0.7,2.6c1.5,5.8,3.1,11.6,4.9,17.3
				c1.8,5.7,4,11.3,6,16.9c1.9,5.7,3.6,11.4,5.2,17.2c1.6,5.8,3.1,11.6,4.3,17.5L45.6,214.7z"/>
		</g>
		<g>
			<path class="st12" d="M52.3,214.6c1.2-5.9,2.7-11.7,4.2-17.5c1.6-5.8,3.2-11.5,5.1-17.2c1.9-5.7,4.1-11.3,5.9-17
				c1.8-5.7,3.4-11.5,4.9-17.3l0.6-2.6l0.9,2.6c2,5.6,4,11.3,5.8,17c1.9,5.7,3.7,11.4,5.4,17.1c3.4,11.5,6.5,23,9.1,34.7l-0.3,0.1
				c-4.4-11.2-8.3-22.5-11.9-33.9c-1.8-5.7-3.5-11.5-5.1-17.2c-1.7-5.7-3.2-11.5-4.7-17.3l1.6,0c-2,5.6-3.9,11.3-5.5,17.1
				c-1.7,5.7-2.9,11.6-4.5,17.4c-1.6,5.8-3.4,11.5-5.3,17.1c-1.9,5.7-3.9,11.3-6.2,16.9L52.3,214.6z"/>
		</g>
		<polygon class="st4" points="98.8,143.2 77.4,143.2 98.4,214.8 		"/>
		<path class="st4" d="M-0.3,143.2h21.4C13.9,167,6.7,190.7-0.4,214.5C-0.4,190.7-0.3,167-0.3,143.2z"/>
	</g>
	<g>
		
			<rect x="49.3" y="357.9" transform="matrix(-1 -4.683110e-11 4.683110e-11 -1 147.5397 787.3176)" class="st12" width="49" height="71.6"/>
		
			<rect x="0.1" y="357.9" transform="matrix(-1 -4.688662e-11 4.688662e-11 -1 49.3146 787.3176)" class="st13" width="49" height="71.6"/>
		<polygon class="st4" points="28.2,429.6 70.1,429.6 49.2,358 		"/>
		<g>
			<path class="st13" d="M52.4,357.8c2.3,5.6,4.3,11.2,6.2,16.9c1.9,5.7,3.7,11.4,5.3,17.1c1.6,5.8,2.8,11.6,4.5,17.4
				c1.6,5.8,3.5,11.4,5.6,17.1l-1.6,0c1.5-5.8,3-11.6,4.7-17.3c1.6-5.8,3.3-11.5,5.1-17.2c3.6-11.4,7.4-22.7,11.9-33.9l0.3,0.1
				c-2.6,11.7-5.7,23.3-9.1,34.8c-1.7,5.7-3.5,11.4-5.4,17.1c-1.8,5.7-3.8,11.4-5.8,17l-0.9,2.6l-0.7-2.6
				c-1.5-5.8-3.1-11.6-4.9-17.3c-1.8-5.7-4-11.3-6-16.9c-1.9-5.7-3.6-11.4-5.2-17.2c-1.6-5.8-3.1-11.6-4.3-17.5L52.4,357.8z"/>
		</g>
		<g>
			<path class="st12" d="M45.6,357.9c-1.2,5.9-2.7,11.7-4.2,17.5c-1.6,5.8-3.2,11.5-5.1,17.2c-1.9,5.7-4.1,11.3-5.9,17
				c-1.8,5.7-3.4,11.5-4.9,17.3l-0.6,2.6l-0.9-2.6c-2-5.6-4-11.3-5.8-17c-1.9-5.7-3.7-11.4-5.4-17.1c-3.4-11.5-6.5-23-9.1-34.7
				l0.3-0.1c4.4,11.2,8.3,22.5,11.9,33.9c1.8,5.7,3.5,11.5,5.1,17.2c1.7,5.7,3.2,11.5,4.7,17.3l-1.6,0c2-5.6,3.9-11.3,5.5-17.1
				c1.7-5.7,2.9-11.6,4.5-17.4c1.6-5.8,3.4-11.5,5.3-17.1c1.9-5.7,3.9-11.3,6.2-16.9L45.6,357.9z"/>
		</g>
		<polygon class="st4" points="-0.4,429.6 20.9,429.6 0,358 		"/>
		<path class="st4" d="M98.3,429.6H76.9c7.2-23.8,14.3-47.5,21.5-71.3C98.3,382.1,98.3,405.9,98.3,429.6z"/>
		<rect x="0" y="286.4" class="st12" width="49.2" height="71.9"/>
		<rect x="49.2" y="286.4" class="st13" width="49.2" height="71.9"/>
		<polygon class="st4" points="69.7,286.4 27.8,286.4 48.8,358 		"/>
		<g>
			<path class="st13" d="M45.6,357.9c-2.3-5.6-4.3-11.2-6.2-16.9c-1.9-5.7-3.7-11.4-5.3-17.1c-1.6-5.8-2.8-11.6-4.5-17.4
				c-1.6-5.8-3.5-11.4-5.6-17.1h1.6c-1.5,5.8-3,11.6-4.7,17.3c-1.6,5.8-3.3,11.5-5.1,17.2c-3.6,11.4-7.4,22.7-11.9,33.9l-0.3-0.1
				c2.6-11.7,5.7-23.3,9.1-34.8c1.7-5.7,3.5-11.4,5.4-17.1c1.8-5.7,3.8-11.4,5.8-17l0.9-2.6l0.7,2.6c1.5,5.8,3.1,11.6,4.9,17.3
				c1.8,5.7,4,11.3,6,16.9c1.9,5.7,3.6,11.4,5.2,17.2c1.6,5.8,3.1,11.6,4.3,17.5L45.6,357.9z"/>
		</g>
		<g>
			<path class="st12" d="M52.3,357.9c1.2-5.9,2.7-11.7,4.2-17.5c1.6-5.8,3.2-11.5,5.1-17.2c1.9-5.7,4.1-11.3,5.9-17
				c1.8-5.7,3.4-11.5,4.9-17.3l0.6-2.6l0.9,2.6c2,5.6,4,11.3,5.8,17c1.9,5.7,3.7,11.4,5.4,17.1c3.4,11.5,6.5,23,9.1,34.7l-0.3,0.1
				c-4.4-11.2-8.3-22.5-11.9-33.9c-1.8-5.7-3.5-11.5-5.1-17.2c-1.7-5.7-3.2-11.5-4.7-17.3l1.6,0c-2,5.6-3.9,11.3-5.5,17.1
				c-1.7,5.7-2.9,11.6-4.5,17.4c-1.6,5.8-3.4,11.5-5.3,17.1c-1.9,5.7-3.9,11.3-6.2,16.9L52.3,357.9z"/>
		</g>
		<polygon class="st4" points="98.8,286.4 77.4,286.4 98.4,358 		"/>
		<path class="st4" d="M-0.3,286.4h21.4c-7.2,23.8-14.3,47.5-21.5,71.3C-0.4,333.9-0.3,310.2-0.3,286.4z"/>
	</g>
	<g>
		
			<rect x="49.3" y="501.1" transform="matrix(-1 -4.686796e-11 4.686796e-11 -1 147.5397 1073.7424)" class="st12" width="49" height="71.6"/>
		
			<rect x="0.1" y="501.1" transform="matrix(-1 -4.690527e-11 4.690527e-11 -1 49.3146 1073.7424)" class="st13" width="49" height="71.6"/>
		<polygon class="st4" points="28.2,572.8 70.1,572.8 49.2,501.3 		"/>
		<g>
			<path class="st13" d="M52.4,501c2.3,5.6,4.3,11.2,6.2,16.9c1.9,5.7,3.7,11.4,5.3,17.1c1.6,5.8,2.8,11.6,4.5,17.4
				c1.6,5.8,3.5,11.4,5.6,17.1h-1.6c1.5-5.8,3-11.6,4.7-17.3c1.6-5.8,3.3-11.5,5.1-17.2c3.6-11.4,7.4-22.7,11.9-33.9l0.3,0.1
				c-2.6,11.7-5.7,23.3-9.1,34.8c-1.7,5.7-3.5,11.4-5.4,17.1c-1.8,5.7-3.8,11.4-5.8,17l-0.9,2.6l-0.7-2.6
				c-1.5-5.8-3.1-11.6-4.9-17.3c-1.8-5.7-4-11.3-6-16.9c-1.9-5.7-3.6-11.4-5.2-17.2c-1.6-5.8-3.1-11.6-4.3-17.5L52.4,501z"/>
		</g>
		<g>
			<path class="st12" d="M45.6,501.1c-1.2,5.9-2.7,11.7-4.2,17.5c-1.6,5.8-3.2,11.5-5.1,17.2c-1.9,5.7-4.1,11.3-5.9,17
				c-1.8,5.7-3.4,11.5-4.9,17.3l-0.6,2.6l-0.9-2.6c-2-5.6-4-11.3-5.8-17c-1.9-5.7-3.7-11.4-5.4-17.1c-3.4-11.5-6.5-23-9.1-34.7
				l0.3-0.1c4.4,11.2,8.3,22.5,11.9,33.9c1.8,5.7,3.5,11.5,5.1,17.2c1.7,5.7,3.2,11.5,4.7,17.3l-1.6,0c2-5.6,3.9-11.3,5.5-17.1
				c1.7-5.7,2.9-11.6,4.5-17.4c1.6-5.8,3.4-11.5,5.3-17.1c1.9-5.7,3.9-11.3,6.2-16.9L45.6,501.1z"/>
		</g>
		<polygon class="st4" points="-0.4,572.8 20.9,572.8 0,501.3 		"/>
		<path class="st4" d="M98.3,572.8H76.9c7.2-23.8,14.3-47.5,21.5-71.3C98.3,525.3,98.3,549.1,98.3,572.8z"/>
		<rect x="0" y="429.6" class="st12" width="49.2" height="71.9"/>
		<rect x="49.2" y="429.6" class="st13" width="49.2" height="71.9"/>
		<polygon class="st4" points="69.7,429.6 27.8,429.6 48.8,501.2 		"/>
		<g>
			<path class="st13" d="M45.6,501.1c-2.3-5.6-4.3-11.2-6.2-16.9c-1.9-5.7-3.7-11.4-5.3-17.1c-1.6-5.8-2.8-11.6-4.5-17.4
				c-1.6-5.8-3.5-11.4-5.6-17.1h1.6c-1.5,5.8-3,11.6-4.7,17.3c-1.6,5.8-3.3,11.5-5.1,17.2C12.2,478.6,8.4,490,4,501.1L3.7,501
				c2.6-11.7,5.7-23.3,9.1-34.8c1.7-5.7,3.5-11.4,5.4-17.1c1.8-5.7,3.8-11.4,5.8-17l0.9-2.6l0.7,2.6c1.5,5.8,3.1,11.6,4.9,17.3
				c1.8,5.7,4,11.3,6,16.9c1.9,5.7,3.6,11.4,5.2,17.2c1.6,5.8,3.1,11.6,4.3,17.5L45.6,501.1z"/>
		</g>
		<g>
			<path class="st12" d="M52.3,501.1c1.2-5.9,2.7-11.7,4.2-17.5c1.6-5.8,3.2-11.5,5.1-17.2c1.9-5.7,4.1-11.3,5.9-17
				c1.8-5.7,3.4-11.5,4.9-17.3l0.6-2.6l0.9,2.6c2,5.6,4,11.3,5.8,17c1.9,5.7,3.7,11.4,5.4,17.1c3.4,11.5,6.5,23,9.1,34.7l-0.3,0.1
				c-4.4-11.2-8.3-22.5-11.9-33.9c-1.8-5.7-3.5-11.5-5.1-17.2c-1.7-5.7-3.2-11.5-4.7-17.3l1.6,0c-2,5.6-3.9,11.3-5.5,17.1
				c-1.7,5.7-2.9,11.6-4.5,17.4c-1.6,5.8-3.4,11.5-5.3,17.1c-1.9,5.7-3.9,11.3-6.2,16.9L52.3,501.1z"/>
		</g>
		<polygon class="st4" points="98.8,429.6 77.4,429.6 98.4,501.2 		"/>
		<path class="st4" d="M-0.3,429.6h21.4c-7.2,23.8-14.3,47.5-21.5,71.3C-0.4,477.2-0.3,453.4-0.3,429.6z"/>
	</g>
	<g>
		
			<rect x="49.3" y="644.3" transform="matrix(-1 -4.683110e-11 4.683110e-11 -1 147.5397 1360.1672)" class="st12" width="49" height="71.6"/>
		
			<rect x="0.1" y="644.3" transform="matrix(-1 -4.686796e-11 4.686796e-11 -1 49.3146 1360.1672)" class="st13" width="49" height="71.6"/>
		<polygon class="st4" points="28.2,716.1 70.1,716.1 49.2,644.5 		"/>
		<g>
			<path class="st13" d="M52.4,644.2c2.3,5.6,4.3,11.2,6.2,16.9c1.9,5.7,3.7,11.4,5.3,17.1c1.6,5.8,2.8,11.6,4.5,17.4
				c1.6,5.8,3.5,11.4,5.6,17.1h-1.6c1.5-5.8,3-11.6,4.7-17.3c1.6-5.8,3.3-11.5,5.1-17.2c3.6-11.4,7.4-22.7,11.9-33.9l0.3,0.1
				c-2.6,11.7-5.7,23.3-9.1,34.8c-1.7,5.7-3.5,11.4-5.4,17.1c-1.8,5.7-3.8,11.4-5.8,17l-0.9,2.6l-0.7-2.6
				c-1.5-5.8-3.1-11.6-4.9-17.3c-1.8-5.7-4-11.3-6-16.9c-1.9-5.7-3.6-11.4-5.2-17.2c-1.6-5.8-3.1-11.6-4.3-17.5L52.4,644.2z"/>
		</g>
		<g>
			<path class="st12" d="M45.6,644.3c-1.2,5.9-2.7,11.7-4.2,17.5c-1.6,5.8-3.2,11.5-5.1,17.2c-1.9,5.7-4.1,11.3-5.9,17
				c-1.8,5.7-3.4,11.5-4.9,17.3l-0.6,2.6l-0.9-2.6c-2-5.6-4-11.3-5.8-17c-1.9-5.7-3.7-11.4-5.4-17.1c-3.4-11.5-6.5-23-9.1-34.7
				l0.3-0.1c4.4,11.2,8.3,22.5,11.9,33.9c1.8,5.7,3.5,11.5,5.1,17.2c1.7,5.7,3.2,11.5,4.7,17.3l-1.6,0c2-5.6,3.9-11.3,5.5-17.1
				c1.7-5.7,2.9-11.6,4.5-17.4c1.6-5.8,3.4-11.5,5.3-17.1c1.9-5.7,3.9-11.3,6.2-16.9L45.6,644.3z"/>
		</g>
		<polygon class="st4" points="-0.4,716.1 20.9,716.1 0,644.5 		"/>
		<path class="st4" d="M98.3,716.1H76.9c7.2-23.8,14.3-47.5,21.5-71.3C98.3,668.5,98.3,692.3,98.3,716.1z"/>
		<rect x="0" y="572.8" class="st12" width="49.2" height="71.9"/>
		<rect x="49.2" y="572.8" class="st13" width="49.2" height="71.9"/>
		<polygon class="st4" points="69.7,572.8 27.8,572.8 48.8,644.4 		"/>
		<g>
			<path class="st13" d="M45.6,644.3c-2.3-5.6-4.3-11.2-6.2-16.9c-1.9-5.7-3.7-11.4-5.3-17.1c-1.6-5.8-2.8-11.6-4.5-17.4
				c-1.6-5.8-3.5-11.4-5.6-17.1h1.6c-1.5,5.8-3,11.6-4.7,17.3c-1.6,5.8-3.3,11.5-5.1,17.2c-3.6,11.4-7.4,22.7-11.9,33.9l-0.3-0.1
				c2.6-11.7,5.7-23.3,9.1-34.8c1.7-5.7,3.5-11.4,5.4-17.1c1.8-5.7,3.8-11.4,5.8-17l0.9-2.6l0.7,2.6c1.5,5.8,3.1,11.6,4.9,17.3
				c1.8,5.7,4,11.3,6,16.9c1.9,5.7,3.6,11.4,5.2,17.2c1.6,5.8,3.1,11.6,4.3,17.5L45.6,644.3z"/>
		</g>
		<g>
			<path class="st12" d="M52.3,644.3c1.2-5.9,2.7-11.7,4.2-17.5c1.6-5.8,3.2-11.5,5.1-17.2c1.9-5.7,4.1-11.3,5.9-17
				c1.8-5.7,3.4-11.5,4.9-17.3l0.6-2.6l0.9,2.6c2,5.6,4,11.3,5.8,17c1.9,5.7,3.7,11.4,5.4,17.1c3.4,11.5,6.5,23,9.1,34.7l-0.3,0.1
				c-4.4-11.2-8.3-22.5-11.9-33.9c-1.8-5.7-3.5-11.5-5.1-17.2c-1.7-5.7-3.2-11.5-4.7-17.3l1.6,0c-2,5.6-3.9,11.3-5.5,17.1
				c-1.7,5.7-2.9,11.6-4.5,17.4c-1.6,5.8-3.4,11.5-5.3,17.1c-1.9,5.7-3.9,11.3-6.2,16.9L52.3,644.3z"/>
		</g>
		<polygon class="st4" points="98.8,572.8 77.4,572.8 98.4,644.4 		"/>
		<path class="st4" d="M-0.3,572.8h21.4c-7.2,23.8-14.3,47.5-21.5,71.3C-0.4,620.4-0.3,596.6-0.3,572.8z"/>
	</g>
	<rect x="0" y="716.1" class="st12" width="49.2" height="71.9"/>
	<rect x="49.2" y="716.1" class="st13" width="49.2" height="71.9"/>
	<polygon class="st4" points="69.7,716.1 27.8,716.1 48.8,787.7 	"/>
	<g>
		<path class="st13" d="M45.6,787.6c-2.3-5.6-4.3-11.2-6.2-16.9c-1.9-5.7-3.7-11.4-5.3-17.1c-1.6-5.8-2.8-11.6-4.5-17.4
			c-1.6-5.8-3.5-11.4-5.6-17.1l1.6,0c-1.5,5.8-3,11.6-4.7,17.3c-1.6,5.8-3.3,11.5-5.1,17.2c-3.6,11.4-7.4,22.7-11.9,33.9l-0.3-0.1
			c2.6-11.7,5.7-23.3,9.1-34.8c1.7-5.7,3.5-11.4,5.4-17.1c1.8-5.7,3.8-11.4,5.8-17l0.9-2.6l0.7,2.6c1.5,5.8,3.1,11.6,4.9,17.3
			c1.8,5.7,4,11.3,6,16.9c1.9,5.7,3.6,11.4,5.2,17.2c1.6,5.8,3.1,11.6,4.3,17.5L45.6,787.6z"/>
	</g>
	<g>
		<path class="st12" d="M52.3,787.5c1.2-5.9,2.7-11.7,4.2-17.5c1.6-5.8,3.2-11.5,5.1-17.2c1.9-5.7,4.1-11.3,5.9-17
			c1.8-5.7,3.4-11.5,4.9-17.3l0.6-2.6l0.9,2.6c2,5.6,4,11.3,5.8,17c1.9,5.7,3.7,11.4,5.4,17.1c3.4,11.5,6.5,23,9.1,34.7l-0.3,0.1
			c-4.4-11.2-8.3-22.5-11.9-33.9c-1.8-5.7-3.5-11.5-5.1-17.2c-1.7-5.7-3.2-11.5-4.7-17.3l1.6,0c-2,5.6-3.9,11.3-5.5,17.1
			c-1.7,5.7-2.9,11.6-4.5,17.4c-1.6,5.8-3.4,11.5-5.3,17.1c-1.9,5.7-3.9,11.3-6.2,16.9L52.3,787.5z"/>
	</g>
	<polygon class="st4" points="98.8,716.1 77.4,716.1 98.4,787.7 	"/>
	<path class="st4" d="M-0.3,716.1h21.4c-7.2,23.8-14.3,47.5-21.5,71.3C-0.4,763.6-0.3,739.8-0.3,716.1z"/>
</g>
<g id="Capa_8" class="st0">
	<g class="st1">
		<rect x="-0.5" y="-0.5" class="st12" width="162.5" height="250"/>
		<polygon class="st4" points="236.5,-0.5 86.5,-0.5 161.5,249.5 		"/>
		<g>
			<path class="st13" d="M150.1,249.6c-3.9-10.2-7.5-20.5-11-30.8c-1.8-5.1-3.5-10.3-5.2-15.5c-1.7-5.2-3.4-10.3-5.1-15.5l-5-15.5
				l-4.8-15.6c-3.3-10.4-6.3-20.8-9.2-31.3C104,104.5,99,83.3,93,62.4C87,41.5,80.4,20.7,73.4,0.1l4.2,0
				c-2.8,10.5-5.5,21.1-8.4,31.5c-2.9,10.5-5.8,21-8.8,31.4c-6,20.9-11.9,41.8-18.3,62.6c-3.2,10.4-6.4,20.8-9.8,31.1l-5,15.5
				l-5.1,15.5c-6.9,20.7-13.8,41.3-21.4,61.7l-0.8-0.2c4.9-21.2,10.5-42.3,16.1-63.3l4.3-15.7l4.4-15.7c2.9-10.5,5.9-20.9,9-31.4
				c6.1-20.9,12.7-41.6,19.2-62.4c3.3-10.4,6.5-20.7,9.9-31.1c3.4-10.3,6.9-20.6,10.4-31l2.3-7l1.8,7c5.5,21,11.4,42,17.9,62.8
				c6.5,20.8,14,41.2,20.7,61.9c3.4,10.3,6.6,20.7,9.6,31.2l4.5,15.7l4.4,15.7c1.5,5.2,2.9,10.5,4.3,15.7c1.4,5.2,2.8,10.5,4.2,15.8
				c2.7,10.5,5.3,21.1,7.7,31.7L150.1,249.6z"/>
		</g>
		<rect x="-161.5" y="245.5" class="st12" width="162.5" height="250"/>
		<rect x="1.5" y="245.5" class="st12" width="162.5" height="250"/>
		<polygon class="st4" points="75.5,245.5 -74.5,245.5 0.5,495.5 		"/>
		<g>
			<path class="st13" d="M13.3,495.5c2.4-10.6,5-21.2,7.7-31.8c1.3-5.3,2.7-10.5,4.1-15.8c1.4-5.3,2.8-10.5,4.3-15.7l4.4-15.7
				l4.5-15.7c3-10.5,6.2-20.9,9.5-31.2c6.7-20.7,14.2-41.2,20.6-61.9c6.5-20.8,12.3-41.7,17.8-62.8l1.8-7l2.4,7
				c3.5,10.3,7,20.6,10.4,30.9c3.4,10.3,6.7,20.7,10,31.1c6.6,20.7,13.1,41.5,19.3,62.3c3.1,10.4,6.1,20.9,9,31.4l4.4,15.7l4.3,15.7
				c5.7,21,11.2,42.1,16.2,63.3l-0.8,0.2c-7.6-20.4-14.6-41-21.5-61.7l-5.1-15.5l-5-15.5c-3.3-10.4-6.6-20.7-9.8-31.1
				c-6.4-20.8-12.4-41.7-18.4-62.6c-3-10.5-6-20.9-8.9-31.4c-2.9-10.5-5.6-21-8.4-31.5l4.2,0c-6.9,20.6-13.6,41.4-19.5,62.3
				c-6,20.9-11,42.1-16.7,63.1c-2.9,10.5-5.9,20.9-9.1,31.3l-4.8,15.6l-5,15.5c-1.6,5.2-3.4,10.3-5.1,15.5
				c-1.7,5.2-3.4,10.3-5.2,15.5c-3.5,10.3-7.1,20.6-11,30.8L13.3,495.5z"/>
		</g>
		<rect x="-0.5" y="495.5" class="st12" width="162.5" height="250"/>
		<polygon class="st4" points="236.5,495.5 86.5,495.5 161.5,745.5 		"/>
		<g>
			<path class="st13" d="M150.1,745.6c-3.9-10.2-7.5-20.5-11-30.8c-1.8-5.1-3.5-10.3-5.2-15.5c-1.7-5.2-3.4-10.3-5.1-15.5l-5-15.5
				l-4.8-15.6c-3.3-10.4-6.3-20.8-9.2-31.3c-5.8-21-10.8-42.2-16.8-63.1c-6-20.9-12.6-41.6-19.6-62.2h4.2
				c-2.8,10.5-5.5,21.1-8.4,31.5c-2.9,10.5-5.8,21-8.8,31.4c-6,20.9-11.9,41.8-18.3,62.6c-3.2,10.4-6.4,20.8-9.8,31.1l-5,15.5
				l-5.1,15.5c-6.9,20.7-13.8,41.3-21.4,61.7l-0.8-0.2c4.9-21.2,10.5-42.3,16.1-63.3l4.3-15.7l4.4-15.7c2.9-10.5,5.9-20.9,9-31.4
				c6.1-20.9,12.7-41.6,19.2-62.4c3.3-10.4,6.5-20.7,9.9-31.1c3.4-10.3,6.9-20.6,10.4-31l2.3-7l1.8,7c5.5,21,11.4,42,17.9,62.8
				c6.5,20.8,14,41.2,20.7,61.9c3.4,10.3,6.6,20.7,9.6,31.2l4.5,15.7l4.4,15.7c1.5,5.2,2.9,10.5,4.3,15.7c1.4,5.2,2.8,10.5,4.2,15.8
				c2.7,10.5,5.3,21.1,7.7,31.7L150.1,745.6z"/>
		</g>
		<rect x="-161.5" y="741.5" class="st12" width="162.5" height="250"/>
		<rect x="1.5" y="741.5" class="st12" width="162.5" height="250"/>
		<polygon class="st4" points="75.5,741.5 -74.5,741.5 0.5,991.5 		"/>
		<g>
			<path class="st13" d="M13.3,991.5c2.4-10.6,5-21.2,7.7-31.8c1.3-5.3,2.7-10.5,4.1-15.8c1.4-5.3,2.8-10.5,4.3-15.7l4.4-15.7
				l4.5-15.7c3-10.5,6.2-20.9,9.5-31.2c6.7-20.7,14.2-41.2,20.6-61.9c6.5-20.8,12.3-41.7,17.8-62.8l1.8-7l2.4,7
				c3.5,10.3,7,20.6,10.4,30.9c3.4,10.3,6.7,20.7,10,31.1c6.6,20.7,13.1,41.5,19.3,62.3c3.1,10.4,6.1,20.9,9,31.4l4.4,15.7l4.3,15.7
				c5.7,21,11.2,42.1,16.2,63.3l-0.8,0.2c-7.6-20.4-14.6-41-21.5-61.7l-5.1-15.5l-5-15.5c-3.3-10.4-6.6-20.7-9.8-31.1
				c-6.4-20.8-12.4-41.7-18.4-62.6c-3-10.5-6-20.9-8.9-31.4c-2.9-10.5-5.6-21-8.4-31.5l4.2,0c-6.9,20.6-13.6,41.4-19.5,62.3
				c-6,20.9-11,42.1-16.7,63.1c-2.9,10.5-5.9,20.9-9.1,31.3l-4.8,15.6l-5,15.5c-1.6,5.2-3.4,10.3-5.1,15.5
				c-1.7,5.2-3.4,10.3-5.2,15.5c-3.5,10.3-7.1,20.6-11,30.8L13.3,991.5z"/>
		</g>
	</g>
	<rect x="0" y="787.5" transform="matrix(-1 -4.489843e-11 4.489843e-11 -1 162.5 1825)" class="st16" width="162.5" height="250"/>
	<polygon class="st17" points="87.5,1037.5 237.5,1037.5 162.5,787.5 	"/>
	<g class="st1">
		<path class="st12" d="M149.9,787.6c-2.4,10.6-5,21.2-7.7,31.7c-1.4,5.3-2.7,10.5-4.2,15.8c-1.4,5.3-2.8,10.5-4.3,15.7l-4.4,15.7
			l-4.5,15.7c-3,10.5-6.2,20.8-9.6,31.2c-6.7,20.7-14.2,41.1-20.7,61.9c-6.5,20.8-12.4,41.7-17.9,62.8l-1.8,7l-2.3-7
			c-3.4-10.3-7-20.6-10.4-31c-3.4-10.3-6.7-20.7-9.9-31.1c-6.5-20.7-13.1-41.5-19.2-62.4c-3.1-10.4-6.1-20.9-9-31.4l-4.4-15.7
			l-4.3-15.7c-5.6-21-11.2-42.1-16.1-63.3l0.8-0.2c7.6,20.4,14.5,41.1,21.4,61.7l5.1,15.5l5,15.5c3.3,10.4,6.6,20.7,9.8,31.1
			c6.4,20.8,12.3,41.7,18.3,62.6c3,10.5,6,20.9,8.8,31.4c2.9,10.5,5.6,21,8.4,31.5h-4.2c7-20.6,13.6-41.3,19.6-62.2
			c6-20.9,11-42.1,16.8-63.1c2.9-10.5,5.9-20.9,9.2-31.3l4.8-15.6l5-15.5c1.6-5.2,3.4-10.3,5.1-15.5c1.7-5.2,3.4-10.3,5.2-15.5
			c3.5-10.3,7.2-20.6,11-30.8L149.9,787.6z"/>
	</g>
</g>
<g id="Capa_10" class="st0">
	<rect x="0.4" y="-0.5" class="st15" width="62.1" height="86.8"/>
	<rect x="62.6" y="-0.5" class="st16" width="62.1" height="86.8"/>
	<polygon class="st18" points="89.1,-0.5 36.1,-0.5 62.6,86.3 	"/>
	<g class="st1">
		<path class="st13" d="M58.5,86.4c-2.9-7-5.5-14.1-7.9-21.3l-1.8-5.4l-1.7-5.4c-1.2-3.6-2.2-7.2-3.2-10.9c-2-7.3-3.6-14.7-5.7-22
			C36.1,14.1,33.7,7,31.1-0.2l2.1,0c-0.9,3.7-1.8,7.3-2.8,11c-1,3.7-2,7.3-3.1,10.9C25.3,29,23.2,36.3,21,43.5
			c-2.3,7.2-4.6,14.4-7.2,21.5c-2.5,7.1-5.1,14.3-7.9,21.3l-0.4-0.1c1.6-7.4,3.4-14.8,5.3-22.1c1.9-7.3,4-14.6,6.1-21.9
			c2.2-7.2,4.5-14.4,6.9-21.6c1.2-3.6,2.3-7.2,3.6-10.8c1.2-3.6,2.5-7.1,3.8-10.7l1.2-3.4l0.9,3.4c1.9,7.3,3.8,14.6,6.2,21.8
			c2.3,7.2,5.2,14.2,7.6,21.4c1.2,3.6,2.4,7.2,3.4,10.8l1.6,5.4l1.5,5.5c2,7.3,3.9,14.6,5.3,22.1L58.5,86.4z"/>
	</g>
	<g class="st1">
		<path class="st12" d="M67.1,86.3c1.5-7.5,3.3-14.8,5.3-22.1l1.5-5.5l1.6-5.4c1-3.6,2.2-7.2,3.4-10.8c2.4-7.2,5.3-14.2,7.6-21.4
			c2.3-7.2,4.3-14.5,6.2-21.8l0.9-3.4l1.2,3.4c1.3,3.6,2.6,7.1,3.8,10.7c1.2,3.6,2.4,7.2,3.6,10.8c2.4,7.2,4.7,14.4,6.9,21.6
			c2.1,7.3,4.2,14.5,6.1,21.9c1.9,7.3,3.7,14.7,5.3,22.1l-0.4,0.1c-2.8-7-5.5-14.1-8-21.3c-2.5-7.1-4.9-14.3-7.2-21.5
			c-2.3-7.2-4.3-14.5-6.4-21.8c-1-3.6-2.1-7.3-3.1-10.9c-1-3.7-1.9-7.3-2.8-11l2.1,0c-2.5,7.1-5,14.3-7,21.6
			c-2.1,7.3-3.7,14.7-5.6,22c-1,3.7-2,7.3-3.2,10.9l-1.7,5.4l-1.8,5.4c-2.4,7.2-5,14.3-7.9,21.3L67.1,86.3z"/>
	</g>
	<polygon class="st18" points="125,-0.3 97.9,-0.3 124.5,86.5 	"/>
	<polygon class="st18" points="0.4,-0.3 27.5,-0.3 1,86.5 	"/>
	
		<rect x="63.6" y="86.5" transform="matrix(-1 -4.488999e-11 4.488999e-11 -1 189.3234 259.8335)" class="st15" width="62.1" height="86.8"/>
	
		<rect x="1.5" y="86.5" transform="matrix(-1 -4.490465e-11 4.490465e-11 -1 64.9683 259.8335)" class="st16" width="62.1" height="86.8"/>
	<polygon class="st18" points="37,173.3 90,173.3 63.5,86.5 	"/>
	<g class="st1">
		<path class="st13" d="M67.6,86.5c2.9,7,5.5,14.1,7.9,21.3l1.8,5.4l1.7,5.4c1.2,3.6,2.2,7.2,3.2,10.9c2,7.3,3.6,14.7,5.7,22
			c2.1,7.3,4.5,14.4,7.1,21.6h-2.1c0.9-3.7,1.8-7.3,2.8-11c1-3.7,2-7.3,3.1-10.9c2.1-7.3,4.1-14.6,6.4-21.8
			c2.3-7.2,4.6-14.4,7.2-21.5c2.5-7.1,5.1-14.3,7.9-21.3l0.4,0.1c-1.6,7.4-3.4,14.8-5.3,22.1c-1.9,7.3-4,14.6-6.1,21.9
			c-2.2,7.2-4.5,14.4-6.9,21.6c-1.2,3.6-2.3,7.2-3.6,10.8c-1.2,3.6-2.5,7.1-3.8,10.7l-1.2,3.4l-0.9-3.4c-1.9-7.3-3.8-14.6-6.2-21.8
			c-2.3-7.2-5.2-14.2-7.6-21.4c-1.2-3.6-2.4-7.2-3.4-10.8l-1.6-5.4l-1.5-5.5c-2-7.3-3.9-14.6-5.3-22.1L67.6,86.5z"/>
	</g>
	<g class="st1">
		<path class="st12" d="M59,86.5c-1.5,7.5-3.3,14.8-5.3,22.1l-1.5,5.5l-1.6,5.4c-1,3.6-2.2,7.2-3.4,10.8c-2.4,7.2-5.3,14.2-7.6,21.4
			c-2.3,7.2-4.3,14.5-6.2,21.8l-0.9,3.4l-1.2-3.4c-1.3-3.6-2.6-7.1-3.8-10.7c-1.2-3.6-2.4-7.2-3.6-10.8c-2.4-7.2-4.7-14.4-6.9-21.6
			c-2.1-7.3-4.2-14.5-6.1-21.9C9,101.4,7.2,94,5.6,86.6L6,86.5c2.8,7,5.5,14.1,8,21.3c2.5,7.1,4.9,14.3,7.2,21.5
			c2.3,7.2,4.3,14.5,6.4,21.8c1,3.6,2.1,7.3,3.1,10.9c1,3.7,1.9,7.3,2.8,11l-2.1,0c2.5-7.1,5-14.3,7-21.6c2.1-7.3,3.7-14.7,5.6-22
			c1-3.7,2-7.3,3.2-10.9l1.7-5.4l1.8-5.4c2.4-7.2,5-14.3,7.9-21.3L59,86.5z"/>
	</g>
	<polygon class="st18" points="0.4,173.1 27.5,173.1 0.9,86.3 	"/>
	<rect x="0.4" y="173.2" class="st15" width="62.1" height="86.8"/>
	<rect x="62.6" y="173.2" class="st16" width="62.1" height="86.8"/>
	<polygon class="st18" points="89.1,173.2 36.1,173.2 62.6,260 	"/>
	<g class="st1">
		<path class="st13" d="M58.3,260.1c-3.7-6.8-6.6-13.8-9.2-20.9c-1.3-3.5-2.6-7.1-3.7-10.7c-1.2-3.6-2.2-7.2-3.1-10.9
			c-1.7-7.4-2.7-15-4.7-22.3c-1-3.7-2.1-7.3-3.4-10.8c-1.2-3.6-2.7-7.1-4.1-10.6l4.2,0c-0.8,3.7-1.5,7.5-2.3,11.1
			c-0.8,3.7-1.8,7.4-2.8,11c-1.9,7.3-3.8,14.6-6.2,21.8c-2.3,7.2-4.9,14.3-7.7,21.4c-2.8,7-5.7,14.1-9.3,20.9l-0.8-0.2
			c0.9-7.6,2.4-15.1,4-22.5c1.6-7.4,3.5-14.8,5.6-22c2.1-7.3,4.6-14.4,7.1-21.6c1.3-3.6,2.5-7.2,3.9-10.7c1.3-3.5,2.9-7,4.3-10.6
			l2.8-6.8l1.4,6.8c0.8,3.7,1.5,7.4,2.5,11.1c1,3.7,2,7.3,3.3,10.9c2.4,7.2,5.9,14,8.6,21.1c1.4,3.5,2.5,7.1,3.5,10.8
			c1,3.6,2,7.3,2.9,11c1.8,7.4,3.3,14.8,4,22.5L58.3,260.1z"/>
	</g>
	<g class="st1">
		<path class="st12" d="M66.9,259.9c0.7-7.7,2.3-15.1,4-22.5c0.9-3.7,1.8-7.3,2.9-11c1-3.6,2.2-7.2,3.5-10.8
			c2.7-7.1,6.1-13.9,8.6-21.1c1.2-3.6,2.3-7.2,3.2-10.9c1-3.7,1.7-7.4,2.5-11.1l1.4-6.8l2.8,6.8c1.4,3.5,3,7,4.3,10.5
			c1.4,3.5,2.6,7.1,3.9,10.7c2.5,7.1,5,14.3,7.1,21.5c2.1,7.3,4,14.6,5.6,22c1.6,7.4,3.1,14.9,4,22.5l-0.8,0.2
			c-3.5-6.8-6.5-13.8-9.3-20.9c-2.8-7-5.4-14.2-7.7-21.4c-2.3-7.2-4.3-14.5-6.2-21.8c-1-3.7-2-7.3-2.8-11c-0.9-3.7-1.6-7.4-2.4-11.1
			l4.2,0c-1.4,3.5-2.9,7-4.1,10.6c-1.2,3.6-2.4,7.2-3.4,10.8c-2,7.3-2.9,14.9-4.6,22.3c-0.9,3.7-1.9,7.3-3.1,10.9
			c-1.2,3.6-2.4,7.2-3.7,10.7c-2.7,7.1-5.5,14.1-9.2,20.9L66.9,259.9z"/>
	</g>
	<polygon class="st18" points="125,173.4 97.9,173.4 124.5,260.2 	"/>
	<polygon class="st18" points="0.4,173.4 27.5,173.4 1,260.2 	"/>
	
		<rect x="63.6" y="260.2" transform="matrix(-1 -4.490465e-11 4.490465e-11 -1 189.3234 607.194)" class="st15" width="62.1" height="86.8"/>
	
		<rect x="1.5" y="260.2" transform="matrix(-1 -4.488999e-11 4.488999e-11 -1 64.9683 607.194)" class="st16" width="62.1" height="86.8"/>
	<polygon class="st18" points="37,347 90,347 63.5,260.2 	"/>
	<g class="st1">
		<path class="st13" d="M67.8,260.1c3.7,6.8,6.6,13.8,9.2,20.9c1.3,3.5,2.6,7.1,3.7,10.7c1.2,3.6,2.2,7.2,3.1,10.9
			c1.7,7.4,2.7,15,4.7,22.3c1,3.7,2.1,7.3,3.4,10.8c1.2,3.6,2.7,7.1,4.1,10.6h-4.2c0.8-3.7,1.5-7.5,2.3-11.1c0.8-3.7,1.8-7.4,2.8-11
			c1.9-7.3,3.8-14.6,6.2-21.8c2.3-7.2,4.9-14.3,7.7-21.4c2.8-7,5.7-14.1,9.3-20.9l0.8,0.2c-0.9,7.6-2.4,15.1-4,22.5
			c-1.6,7.4-3.5,14.8-5.6,22c-2.1,7.3-4.6,14.4-7.1,21.6c-1.3,3.6-2.5,7.2-3.9,10.7c-1.3,3.5-2.9,7-4.3,10.6l-2.8,6.8l-1.4-6.8
			c-0.8-3.7-1.5-7.4-2.5-11.1c-1-3.7-2-7.3-3.3-10.9c-2.4-7.2-5.9-14-8.6-21.1c-1.4-3.5-2.5-7.1-3.5-10.8c-1-3.6-2-7.3-2.9-11
			c-1.8-7.4-3.3-14.8-4-22.5L67.8,260.1z"/>
	</g>
	<g class="st1">
		<path class="st12" d="M59.2,260.3c-0.7,7.7-2.3,15.1-4,22.5c-0.9,3.7-1.8,7.3-2.9,11c-1,3.6-2.2,7.2-3.5,10.8
			c-2.7,7.1-6.1,13.9-8.6,21.1c-1.2,3.6-2.3,7.2-3.2,10.9c-1,3.7-1.7,7.4-2.5,11.1l-1.4,6.8l-2.8-6.8c-1.4-3.5-3-7-4.3-10.5
			c-1.4-3.5-2.6-7.1-3.9-10.7c-2.5-7.1-5-14.3-7.1-21.5c-2.1-7.3-4-14.6-5.6-22c-1.6-7.4-3.1-14.9-4-22.5l0.8-0.2
			c3.5,6.8,6.5,13.8,9.3,20.9c2.8,7,5.4,14.2,7.7,21.4c2.3,7.2,4.3,14.5,6.2,21.8c1,3.7,2,7.3,2.8,11c0.9,3.7,1.6,7.4,2.4,11.1
			l-4.2,0c1.4-3.5,2.9-7,4.1-10.6c1.2-3.6,2.4-7.2,3.4-10.8c2-7.3,2.9-14.9,4.6-22.3c0.9-3.7,1.9-7.3,3.1-10.9
			c1.2-3.6,2.4-7.2,3.7-10.7c2.7-7.1,5.5-14.1,9.2-20.9L59.2,260.3z"/>
	</g>
	<polygon class="st18" points="0.4,346.8 27.5,346.8 0.9,260 	"/>
	<rect x="0.4" y="346.5" class="st15" width="62.1" height="86.8"/>
	<rect x="62.6" y="346.5" class="st16" width="62.1" height="86.8"/>
	<polygon class="st18" points="89.1,346.5 36.1,346.5 62.6,433.3 	"/>
	<g class="st1">
		<path class="st13" d="M58.3,433.4c-3.7-6.8-6.6-13.8-9.2-20.9c-1.3-3.5-2.6-7.1-3.7-10.7c-1.2-3.6-2.2-7.2-3.1-10.9
			c-1.7-7.4-2.7-15-4.7-22.3c-1-3.7-2.1-7.3-3.4-10.8c-1.2-3.6-2.7-7.1-4.1-10.6h4.2c-0.8,3.7-1.5,7.5-2.3,11.1
			c-0.8,3.7-1.8,7.4-2.8,11c-1.9,7.3-3.8,14.6-6.2,21.8c-2.3,7.2-4.9,14.3-7.7,21.4c-2.8,7-5.7,14.1-9.3,20.9l-0.8-0.2
			c0.9-7.6,2.4-15.1,4-22.5c1.6-7.4,3.5-14.8,5.6-22c2.1-7.3,4.6-14.4,7.1-21.6c1.3-3.6,2.5-7.2,3.9-10.7c1.3-3.5,2.9-7,4.3-10.6
			l2.8-6.8l1.4,6.8c0.8,3.7,1.5,7.4,2.5,11.1c1,3.7,2,7.3,3.3,10.9c2.4,7.2,5.9,14,8.6,21.1c1.4,3.5,2.5,7.1,3.5,10.8
			c1,3.6,2,7.3,2.9,11c1.8,7.4,3.3,14.8,4,22.5L58.3,433.4z"/>
	</g>
	<g class="st1">
		<path class="st12" d="M66.9,433.2c0.7-7.7,2.3-15.1,4-22.5c0.9-3.7,1.8-7.3,2.9-11c1-3.6,2.2-7.2,3.5-10.8
			c2.7-7.1,6.1-13.9,8.6-21.1c1.2-3.6,2.3-7.2,3.2-10.9c1-3.7,1.7-7.4,2.5-11.1L93,339l2.8,6.8c1.4,3.5,3,7,4.3,10.5
			c1.4,3.5,2.6,7.1,3.9,10.7c2.5,7.1,5,14.3,7.1,21.5c2.1,7.3,4,14.6,5.6,22c1.6,7.4,3.1,14.9,4,22.5l-0.8,0.2
			c-3.5-6.8-6.5-13.8-9.3-20.9c-2.8-7-5.4-14.2-7.7-21.4c-2.3-7.2-4.3-14.5-6.2-21.8c-1-3.7-2-7.3-2.8-11c-0.9-3.7-1.6-7.4-2.4-11.1
			l4.2,0c-1.4,3.5-2.9,7-4.1,10.6c-1.2,3.6-2.4,7.2-3.4,10.8c-2,7.3-2.9,14.9-4.6,22.3c-0.9,3.7-1.9,7.3-3.1,10.9
			c-1.2,3.6-2.4,7.2-3.7,10.7c-2.7,7.1-5.5,14.1-9.2,20.9L66.9,433.2z"/>
	</g>
	<polygon class="st18" points="125,346.7 97.9,346.7 124.5,433.5 	"/>
	<polygon class="st18" points="0.4,346.7 27.5,346.7 1,433.5 	"/>
	
		<rect x="63.6" y="433.5" transform="matrix(-1 -4.487534e-11 4.487534e-11 -1 189.3234 953.8335)" class="st15" width="62.1" height="86.8"/>
	
		<rect x="1.5" y="433.5" transform="matrix(-1 -4.490465e-11 4.490465e-11 -1 64.9683 953.8335)" class="st16" width="62.1" height="86.8"/>
	<polygon class="st18" points="37,520.3 90,520.3 63.5,433.5 	"/>
	<g class="st1">
		<path class="st13" d="M67.8,433.4c3.7,6.8,6.6,13.8,9.2,20.9c1.3,3.5,2.6,7.1,3.7,10.7c1.2,3.6,2.2,7.2,3.1,10.9
			c1.7,7.4,2.7,15,4.7,22.3c1,3.7,2.1,7.3,3.4,10.8c1.2,3.6,2.7,7.1,4.1,10.6h-4.2c0.8-3.7,1.5-7.5,2.3-11.1c0.8-3.7,1.8-7.4,2.8-11
			c1.9-7.3,3.8-14.6,6.2-21.8c2.3-7.2,4.9-14.3,7.7-21.4c2.8-7,5.7-14.1,9.3-20.9l0.8,0.2c-0.9,7.6-2.4,15.1-4,22.5
			c-1.6,7.4-3.5,14.8-5.6,22c-2.1,7.3-4.6,14.4-7.1,21.6c-1.3,3.6-2.5,7.2-3.9,10.7c-1.3,3.5-2.9,7-4.3,10.6l-2.8,6.8l-1.4-6.8
			c-0.8-3.7-1.5-7.4-2.5-11.1c-1-3.7-2-7.3-3.3-10.9c-2.4-7.2-5.9-14-8.6-21.1c-1.4-3.5-2.5-7.1-3.5-10.8c-1-3.6-2-7.3-2.9-11
			c-1.8-7.4-3.3-14.8-4-22.5L67.8,433.4z"/>
	</g>
	<g class="st1">
		<path class="st12" d="M59.2,433.6c-0.7,7.7-2.3,15.1-4,22.5c-0.9,3.7-1.8,7.3-2.9,11c-1,3.6-2.2,7.2-3.5,10.8
			c-2.7,7.1-6.1,13.9-8.6,21.1c-1.2,3.6-2.3,7.2-3.2,10.9c-1,3.7-1.7,7.4-2.5,11.1l-1.4,6.8l-2.8-6.8c-1.4-3.5-3-7-4.3-10.5
			c-1.4-3.5-2.6-7.1-3.9-10.7c-2.5-7.1-5-14.3-7.1-21.5c-2.1-7.3-4-14.6-5.6-22c-1.6-7.4-3.1-14.9-4-22.5l0.8-0.2
			c3.5,6.8,6.5,13.8,9.3,20.9c2.8,7,5.4,14.2,7.7,21.4c2.3,7.2,4.3,14.5,6.2,21.8c1,3.7,2,7.3,2.8,11c0.9,3.7,1.6,7.4,2.4,11.1
			l-4.2,0c1.4-3.5,2.9-7,4.1-10.6c1.2-3.6,2.4-7.2,3.4-10.8c2-7.3,2.9-14.9,4.6-22.3c0.9-3.7,1.9-7.3,3.1-10.9
			c1.2-3.6,2.4-7.2,3.7-10.7c2.7-7.1,5.5-14.1,9.2-20.9L59.2,433.6z"/>
	</g>
	<polygon class="st18" points="0.4,520.1 27.5,520.1 0.9,433.3 	"/>
	<rect x="0.4" y="520.2" class="st15" width="62.1" height="86.8"/>
	<rect x="62.6" y="520.2" class="st16" width="62.1" height="86.8"/>
	<polygon class="st18" points="89.1,520.2 36.1,520.2 62.6,607 	"/>
	<g class="st1">
		<path class="st13" d="M58.3,607.1c-3.7-6.8-6.6-13.8-9.2-20.9c-1.3-3.5-2.6-7.1-3.7-10.7c-1.2-3.6-2.2-7.2-3.1-10.9
			c-1.7-7.4-2.7-15-4.7-22.3c-1-3.7-2.1-7.3-3.4-10.8c-1.2-3.6-2.7-7.1-4.1-10.6h4.2c-0.8,3.7-1.5,7.5-2.3,11.1
			c-0.8,3.7-1.8,7.4-2.8,11c-1.9,7.3-3.8,14.6-6.2,21.8c-2.3,7.2-4.9,14.3-7.7,21.4c-2.8,7-5.7,14.1-9.3,20.9l-0.8-0.2
			c0.9-7.6,2.4-15.1,4-22.5c1.6-7.4,3.5-14.8,5.6-22c2.1-7.3,4.6-14.4,7.1-21.6c1.3-3.6,2.5-7.2,3.9-10.7c1.3-3.5,2.9-7,4.3-10.6
			l2.8-6.8l1.4,6.8c0.8,3.7,1.5,7.4,2.5,11.1c1,3.7,2,7.3,3.3,10.9c2.4,7.2,5.9,14,8.6,21.1c1.4,3.5,2.5,7.1,3.5,10.8
			c1,3.6,2,7.3,2.9,11c1.8,7.4,3.3,14.8,4,22.5L58.3,607.1z"/>
	</g>
	<g class="st1">
		<path class="st12" d="M66.9,606.9c0.7-7.7,2.3-15.1,4-22.5c0.9-3.7,1.8-7.3,2.9-11c1-3.6,2.2-7.2,3.5-10.8
			c2.7-7.1,6.1-13.9,8.6-21.1c1.2-3.6,2.3-7.2,3.2-10.9c1-3.7,1.7-7.4,2.5-11.1l1.4-6.8l2.8,6.8c1.4,3.5,3,7,4.3,10.5
			c1.4,3.5,2.6,7.1,3.9,10.7c2.5,7.1,5,14.3,7.1,21.5c2.1,7.3,4,14.6,5.6,22c1.6,7.4,3.1,14.9,4,22.5l-0.8,0.2
			c-3.5-6.8-6.5-13.8-9.3-20.9c-2.8-7-5.4-14.2-7.7-21.4c-2.3-7.2-4.3-14.5-6.2-21.8c-1-3.7-2-7.3-2.8-11c-0.9-3.7-1.6-7.4-2.4-11.1
			l4.2,0c-1.4,3.5-2.9,7-4.1,10.6c-1.2,3.6-2.4,7.2-3.4,10.8c-2,7.3-2.9,14.9-4.6,22.3c-0.9,3.7-1.9,7.3-3.1,10.9
			c-1.2,3.6-2.4,7.2-3.7,10.7c-2.7,7.1-5.5,14.1-9.2,20.9L66.9,606.9z"/>
	</g>
	<polygon class="st18" points="125,520.4 97.9,520.4 124.5,607.2 	"/>
	<polygon class="st18" points="0.4,520.4 27.5,520.4 1,607.2 	"/>
	
		<rect x="63.6" y="607.2" transform="matrix(-1 -4.490465e-11 4.490465e-11 -1 189.3234 1301.194)" class="st15" width="62.1" height="86.8"/>
	
		<rect x="1.5" y="607.2" transform="matrix(-1 -4.490465e-11 4.490465e-11 -1 64.9683 1301.194)" class="st16" width="62.1" height="86.8"/>
	<polygon class="st18" points="37,694 90,694 63.5,607.2 	"/>
	<g class="st1">
		<path class="st13" d="M67.8,607.1c3.7,6.8,6.6,13.8,9.2,20.9c1.3,3.5,2.6,7.1,3.7,10.7c1.2,3.6,2.2,7.2,3.1,10.9
			c1.7,7.4,2.7,15,4.7,22.3c1,3.7,2.1,7.3,3.4,10.8c1.2,3.6,2.7,7.1,4.1,10.6h-4.2c0.8-3.7,1.5-7.5,2.3-11.1c0.8-3.7,1.8-7.4,2.8-11
			c1.9-7.3,3.8-14.6,6.2-21.8c2.3-7.2,4.9-14.3,7.7-21.4c2.8-7,5.7-14.1,9.3-20.9l0.8,0.2c-0.9,7.6-2.4,15.1-4,22.5
			c-1.6,7.4-3.5,14.8-5.6,22c-2.1,7.3-4.6,14.4-7.1,21.6c-1.3,3.6-2.5,7.2-3.9,10.7c-1.3,3.5-2.9,7-4.3,10.6l-2.8,6.8l-1.4-6.8
			c-0.8-3.7-1.5-7.4-2.5-11.1c-1-3.7-2-7.3-3.3-10.9c-2.4-7.2-5.9-14-8.6-21.1c-1.4-3.5-2.5-7.1-3.5-10.8c-1-3.6-2-7.3-2.9-11
			c-1.8-7.4-3.3-14.8-4-22.5L67.8,607.1z"/>
	</g>
	<g class="st1">
		<path class="st12" d="M59.2,607.3c-0.7,7.7-2.3,15.1-4,22.5c-0.9,3.7-1.8,7.3-2.9,11c-1,3.6-2.2,7.2-3.5,10.8
			c-2.7,7.1-6.1,13.9-8.6,21.1c-1.2,3.6-2.3,7.2-3.2,10.9c-1,3.7-1.7,7.4-2.5,11.1l-1.4,6.8l-2.8-6.8c-1.4-3.5-3-7-4.3-10.5
			c-1.4-3.5-2.6-7.1-3.9-10.7c-2.5-7.1-5-14.3-7.1-21.5c-2.1-7.3-4-14.6-5.6-22c-1.6-7.4-3.1-14.9-4-22.5l0.8-0.2
			c3.5,6.8,6.5,13.8,9.3,20.9c2.8,7,5.4,14.2,7.7,21.4c2.3,7.2,4.3,14.5,6.2,21.8c1,3.7,2,7.3,2.8,11c0.9,3.7,1.6,7.4,2.4,11.1
			l-4.2,0c1.4-3.5,2.9-7,4.1-10.6c1.2-3.6,2.4-7.2,3.4-10.8c2-7.3,2.9-14.9,4.6-22.3c0.9-3.7,1.9-7.3,3.1-10.9
			c1.2-3.6,2.4-7.2,3.7-10.7c2.7-7.1,5.5-14.1,9.2-20.9L59.2,607.3z"/>
	</g>
	<polygon class="st18" points="0.4,693.8 27.5,693.8 0.9,607 	"/>
</g>
<g id="Capa_11" class="st0">
	<polygon class="st15" points="-511.8,696.2 99,399.5 -511.8,399.5 	"/>
	<polygon class="st18" points="-511.8,103.8 99,400.5 -511.8,400.5 	"/>
</g>
<g id="Capa_2" class="st0">
</g>
<g id="Capa_3" class="st0">
</g>
<g id="Capa_4" class="st0">
</g>
<g id="Capa_5" class="st0">
</g>
<g id="Capa_12" class="st0">
</g>
</svg>
