<?xml version="1.0" encoding="utf-8"?>
<!-- Generator: Adobe Illustrator 22.0.0, SVG Export Plug-In . SVG Version: 6.00 Build 0)  -->
<svg version="1.1" xmlns="http://www.w3.org/2000/svg" xmlns:xlink="http://www.w3.org/1999/xlink" x="0px" y="0px"
	 viewBox="0 0 98.4 787.9" style="enable-background:new 0 0 98.4 787.9;" xml:space="preserve">
<style type="text/css">
	.st0{display:none;}
	.st1{display:inline;}
	.st2{fill:#FFFFFF;}
	.st3{display:inline;fill:#FFDC71;}
	.st4{fill:#F33600;}
	.st5{fill:#EAA500;}
	.st6{fill:#B60300;}
	.st7{fill:none;stroke:#FFFFFF;stroke-width:8;stroke-miterlimit:10;}
	.st8{fill:#A86000;}
	.st9{fill:#0071BB;}
	.st10{fill:#1B1464;}
	.st11{fill:#580000;}
	.st12{fill:#DD2400;}
	.st13{fill:#EA9E00;}
	.st14{fill:#A70500;}
	.st15{display:inline;fill:#580000;}
	.st16{display:inline;fill:#DD2400;}
	.st17{display:inline;fill:#EA9E00;}
	.st18{display:inline;fill:#A70500;}
	.st19{display:inline;fill:#F6921E;}
	.st20{fill:#F6921E;}
	.st21{clip-path:url(#SVGID_2_);}
	.st22{clip-path:url(#SVGID_4_);}
</style>
<g id="Capa_1" class="st0">
</g>
<g id="Capa_6" class="st0">
</g>
<g id="Capa_7">
	<g>
		<rect x="0" y="0" class="st14" width="98.8" height="158"/>
		<rect x="0.1" y="0" class="st11" width="49.4" height="79"/>
		<rect x="49.7" y="0" class="st11" width="49.4" height="79"/>
		<polygon class="st14" points="72.2,0 26.6,0 49.4,79 		"/>
		<g>
			<path class="st12" d="M45.9,79.1c-2.4-6.2-4.6-12.4-6.7-18.7c-2.1-6.3-4.1-12.6-5.8-19L31,31.8c-0.8-3.2-1.6-6.4-2.5-9.6
				c-1.8-6.4-3.9-12.6-6-18.9l1.6,0c-1.6,6.4-3.3,12.8-5.1,19.2c-1.8,6.4-3.6,12.7-5.5,19.1c-2,6.3-4,12.6-6.1,18.9
				c-2.1,6.3-4.3,12.5-6.7,18.7L0.3,79C1.7,72.5,3.3,66.1,5,59.7c1.7-6.4,3.5-12.8,5.3-19.1c1.9-6.3,3.9-12.6,5.9-18.9
				c2-6.3,4.1-12.6,6.3-18.8l0.9-2.6L24,2.8c1.6,6.4,3.4,12.8,5.4,19.1c1,3.2,2.1,6.3,3.2,9.4l3.2,9.4c2.1,6.3,3.9,12.6,5.6,19
				c1.7,6.4,3.3,12.8,4.7,19.3L45.9,79.1z"/>
		</g>
		<g>
			<path class="st12" d="M53.2,79c1.4-6.5,3-12.9,4.7-19.3c1.7-6.4,3.5-12.7,5.6-19l3.2-9.4c1.1-3.1,2.2-6.3,3.2-9.4
				c2-6.3,3.7-12.7,5.4-19.1L76,0.2l0.9,2.6C79,9,81.2,15.3,83.2,21.6c2,6.3,4,12.6,5.9,18.9c1.8,6.4,3.6,12.7,5.3,19.1
				c1.7,6.4,3.3,12.8,4.7,19.3L98.8,79c-2.4-6.2-4.6-12.4-6.7-18.7C90,54.1,88,47.8,86,41.5c-1.9-6.3-3.7-12.7-5.5-19
				c-1.8-6.4-3.5-12.8-5.2-19.2l1.6,0c-2.1,6.3-4.2,12.5-6,18.9c-0.9,3.2-1.7,6.4-2.5,9.6l-2.4,9.6c-1.7,6.4-3.7,12.7-5.8,19
				c-2.1,6.3-4.2,12.5-6.6,18.7L53.2,79z"/>
		</g>
		<rect x="-0.3" y="79" class="st11" width="49.4" height="79"/>
		<path class="st14" d="M22.2,79C14.8,79,7.4,79,0,79c-0.2,26.3-0.4,52.6-0.6,79L22.2,79z"/>
		<g>
			<path class="st12" d="M3.2,158c1.4-6.5,3-12.9,4.7-19.3c1.7-6.4,3.5-12.7,5.6-19l3.2-9.4c1.1-3.1,2.2-6.3,3.2-9.4
				c2-6.3,3.7-12.7,5.4-19.1l0.7-2.6l0.9,2.6c2.2,6.2,4.3,12.5,6.3,18.8c2,6.3,4,12.6,5.9,18.9c1.8,6.4,3.6,12.7,5.3,19.1
				c1.7,6.4,3.3,12.8,4.7,19.3l-0.3,0.1c-2.4-6.2-4.6-12.4-6.7-18.7C40,133,38,126.7,36,120.4c-1.9-6.3-3.7-12.7-5.5-19
				c-1.8-6.4-3.5-12.8-5.2-19.2l1.6,0c-2.1,6.3-4.2,12.5-6,18.9c-0.9,3.2-1.7,6.4-2.5,9.6l-2.4,9.6c-1.7,6.4-3.7,12.7-5.8,19
				c-2.1,6.3-4.2,12.5-6.6,18.7L3.2,158z"/>
		</g>
		<rect x="48.9" y="79" class="st11" width="49.8" height="79"/>
		<path class="st14" d="M99.1,79H75.4c7.8,26.3,15.6,52.7,23.4,79C98.9,131.7,99,105.3,99.1,79z"/>
		<g>
			<path class="st12" d="M94.7,158c-2.4-6.2-4.6-12.4-6.7-18.7c-2.1-6.3-4.1-12.6-5.8-19l-2.5-9.6c-0.8-3.2-1.6-6.4-2.5-9.6
				c-1.8-6.4-3.9-12.6-6-18.9h1.6c-1.6,6.4-3.3,12.8-5.1,19.2c-1.8,6.4-3.6,12.7-5.5,19.1c-2,6.3-4,12.6-6.1,18.9
				c-2.1,6.3-4.3,12.5-6.7,18.7l-0.3-0.1c1.4-6.5,3.1-12.9,4.7-19.3c1.7-6.4,3.5-12.8,5.3-19.1c1.9-6.3,3.9-12.6,5.9-18.9
				c2-6.3,4.1-12.6,6.3-18.8l0.9-2.6l0.7,2.6c1.6,6.4,3.4,12.8,5.4,19.1c1,3.2,2.1,6.3,3.2,9.4l3.2,9.4c2.1,6.3,3.9,12.6,5.6,19
				c1.7,6.4,3.3,12.8,4.7,19.3L94.7,158z"/>
		</g>
	</g>
	<g>
		<rect x="0" y="158" class="st14" width="98.8" height="158"/>
		<rect x="0.1" y="158" class="st11" width="49.4" height="79"/>
		<rect x="49.7" y="158" class="st11" width="49.4" height="79"/>
		<polygon class="st14" points="72.2,158 26.6,158 49.4,237 		"/>
		<g>
			<path class="st12" d="M45.9,237.1c-2.4-6.2-4.6-12.4-6.7-18.7c-2.1-6.3-4.1-12.6-5.8-19l-2.5-9.6c-0.8-3.2-1.6-6.4-2.5-9.6
				c-1.8-6.4-3.9-12.6-6-18.9l1.6,0c-1.6,6.4-3.3,12.8-5.1,19.2c-1.8,6.4-3.6,12.7-5.5,19.1c-2,6.3-4,12.6-6.1,18.9
				c-2.1,6.3-4.3,12.5-6.7,18.7L0.3,237c1.4-6.5,3.1-12.9,4.7-19.3c1.7-6.4,3.5-12.8,5.3-19.1c1.9-6.3,3.9-12.6,5.9-18.9
				c2-6.3,4.1-12.6,6.3-18.8l0.9-2.6l0.7,2.6c1.6,6.4,3.4,12.8,5.4,19.1c1,3.2,2.1,6.3,3.2,9.4l3.2,9.4c2.1,6.3,3.9,12.6,5.6,19
				c1.7,6.4,3.3,12.8,4.7,19.3L45.9,237.1z"/>
		</g>
		<g>
			<path class="st12" d="M53.2,237c1.4-6.5,3-12.9,4.7-19.3c1.7-6.4,3.5-12.7,5.6-19l3.2-9.4c1.1-3.1,2.2-6.3,3.2-9.4
				c2-6.3,3.7-12.7,5.4-19.1l0.7-2.6l0.9,2.6c2.2,6.2,4.3,12.5,6.3,18.8c2,6.3,4,12.6,5.9,18.9c1.8,6.4,3.6,12.7,5.3,19.1
				c1.7,6.4,3.3,12.8,4.7,19.3l-0.3,0.1c-2.4-6.2-4.6-12.4-6.7-18.7c-2.1-6.3-4.1-12.6-6.1-18.9c-1.9-6.3-3.7-12.7-5.5-19
				c-1.8-6.4-3.5-12.8-5.2-19.2l1.6,0c-2.1,6.3-4.2,12.5-6,18.9c-0.9,3.2-1.7,6.4-2.5,9.6l-2.4,9.6c-1.7,6.4-3.7,12.7-5.8,19
				c-2.1,6.3-4.2,12.5-6.6,18.7L53.2,237z"/>
		</g>
		<rect x="-0.3" y="237" class="st11" width="49.4" height="79"/>
		<path class="st14" d="M22.2,237c-7.4,0-14.8,0-22.2,0c-0.2,26.3-0.4,52.6-0.6,79L22.2,237z"/>
		<g>
			<path class="st12" d="M3.2,316c1.4-6.5,3-12.9,4.7-19.3c1.7-6.4,3.5-12.7,5.6-19l3.2-9.4c1.1-3.1,2.2-6.3,3.2-9.4
				c2-6.3,3.7-12.7,5.4-19.1l0.7-2.6l0.9,2.6c2.2,6.2,4.3,12.5,6.3,18.8c2,6.3,4,12.6,5.9,18.9c1.8,6.4,3.6,12.7,5.3,19.1
				c1.7,6.4,3.3,12.8,4.7,19.3l-0.3,0.1c-2.4-6.2-4.6-12.4-6.7-18.7C40,291,38,284.7,36,278.4c-1.9-6.3-3.7-12.7-5.5-19
				c-1.8-6.4-3.5-12.8-5.2-19.2l1.6,0c-2.1,6.3-4.2,12.5-6,18.9c-0.9,3.2-1.7,6.4-2.5,9.6l-2.4,9.6c-1.7,6.4-3.7,12.7-5.8,19
				c-2.1,6.3-4.2,12.5-6.6,18.7L3.2,316z"/>
		</g>
		<rect x="48.9" y="237" class="st11" width="49.8" height="79"/>
		<path class="st14" d="M99.1,237H75.4c7.8,26.3,15.6,52.7,23.4,79C98.9,289.7,99,263.3,99.1,237z"/>
		<g>
			<path class="st12" d="M94.7,316c-2.4-6.2-4.6-12.4-6.7-18.7c-2.1-6.3-4.1-12.6-5.8-19l-2.5-9.6c-0.8-3.2-1.6-6.4-2.5-9.6
				c-1.8-6.4-3.9-12.6-6-18.9h1.6c-1.6,6.4-3.3,12.8-5.1,19.2c-1.8,6.4-3.6,12.7-5.5,19.1c-2,6.3-4,12.6-6.1,18.9
				c-2.1,6.3-4.3,12.5-6.7,18.7l-0.3-0.1c1.4-6.5,3.1-12.9,4.7-19.3c1.7-6.4,3.5-12.8,5.3-19.1c1.9-6.3,3.9-12.6,5.9-18.9
				c2-6.3,4.1-12.6,6.3-18.8l0.9-2.6l0.7,2.6c1.6,6.4,3.4,12.8,5.4,19.1c1,3.2,2.1,6.3,3.2,9.4l3.2,9.4c2.1,6.3,3.9,12.6,5.6,19
				c1.7,6.4,3.3,12.8,4.7,19.3L94.7,316z"/>
		</g>
	</g>
	<g>
		<rect x="0" y="315" class="st14" width="98.8" height="158"/>
		<rect x="0.1" y="315" class="st11" width="49.4" height="79"/>
		<rect x="49.7" y="315" class="st11" width="49.4" height="79"/>
		<polygon class="st14" points="72.2,315 26.6,315 49.4,394 		"/>
		<g>
			<path class="st12" d="M45.9,394.1c-2.4-6.2-4.6-12.4-6.7-18.7c-2.1-6.3-4.1-12.6-5.8-19l-2.5-9.6c-0.8-3.2-1.6-6.4-2.5-9.6
				c-1.8-6.4-3.9-12.6-6-18.9H24c-1.6,6.4-3.3,12.8-5.1,19.2c-1.8,6.4-3.6,12.7-5.5,19.1c-2,6.3-4,12.6-6.1,18.9
				c-2.1,6.3-4.3,12.5-6.7,18.7L0.3,394c1.4-6.5,3.1-12.9,4.7-19.3c1.7-6.4,3.5-12.8,5.3-19.1c1.9-6.3,3.9-12.6,5.9-18.9
				c2-6.3,4.1-12.6,6.3-18.8l0.9-2.6l0.7,2.6c1.6,6.4,3.4,12.8,5.4,19.1c1,3.2,2.1,6.3,3.2,9.4l3.2,9.4c2.1,6.3,3.9,12.6,5.6,19
				c1.7,6.4,3.3,12.8,4.7,19.3L45.9,394.1z"/>
		</g>
		<g>
			<path class="st12" d="M53.2,394c1.4-6.5,3-12.9,4.7-19.3c1.7-6.4,3.5-12.7,5.6-19l3.2-9.4c1.1-3.1,2.2-6.3,3.2-9.4
				c2-6.3,3.7-12.7,5.4-19.1l0.7-2.6l0.9,2.6c2.2,6.2,4.3,12.5,6.3,18.8c2,6.3,4,12.6,5.9,18.9c1.8,6.4,3.6,12.7,5.3,19.1
				c1.7,6.4,3.3,12.8,4.7,19.3l-0.3,0.1c-2.4-6.2-4.6-12.4-6.7-18.7c-2.1-6.3-4.1-12.6-6.1-18.9c-1.9-6.3-3.7-12.7-5.5-19
				c-1.8-6.4-3.5-12.8-5.2-19.2l1.6,0c-2.1,6.3-4.2,12.5-6,18.9c-0.9,3.2-1.7,6.4-2.5,9.6l-2.4,9.6c-1.7,6.4-3.7,12.7-5.8,19
				c-2.1,6.3-4.2,12.5-6.6,18.7L53.2,394z"/>
		</g>
		<rect x="-0.3" y="394" class="st11" width="49.4" height="79"/>
		<path class="st14" d="M22.2,394c-7.4,0-14.8,0-22.2,0c-0.2,26.3-0.4,52.6-0.6,79L22.2,394z"/>
		<g>
			<path class="st12" d="M3.2,473c1.4-6.5,3-12.9,4.7-19.3c1.7-6.4,3.5-12.7,5.6-19l3.2-9.4c1.1-3.1,2.2-6.3,3.2-9.4
				c2-6.3,3.7-12.7,5.4-19.1l0.7-2.6l0.9,2.6c2.2,6.2,4.3,12.5,6.3,18.8c2,6.3,4,12.6,5.9,18.9c1.8,6.4,3.6,12.7,5.3,19.1
				c1.7,6.4,3.3,12.8,4.7,19.3l-0.3,0.1c-2.4-6.2-4.6-12.4-6.7-18.7C40,448,38,441.7,36,435.4c-1.9-6.3-3.7-12.7-5.5-19
				c-1.8-6.4-3.5-12.8-5.2-19.2l1.6,0c-2.1,6.3-4.2,12.5-6,18.9c-0.9,3.2-1.7,6.4-2.5,9.6l-2.4,9.6c-1.7,6.4-3.7,12.7-5.8,19
				c-2.1,6.3-4.2,12.5-6.6,18.7L3.2,473z"/>
		</g>
		<rect x="48.9" y="394" class="st11" width="49.8" height="79"/>
		<path class="st14" d="M99.1,394H75.4c7.8,26.3,15.6,52.7,23.4,79C98.9,446.7,99,420.3,99.1,394z"/>
		<g>
			<path class="st12" d="M94.7,473c-2.4-6.2-4.6-12.4-6.7-18.7c-2.1-6.3-4.1-12.6-5.8-19l-2.5-9.6c-0.8-3.2-1.6-6.4-2.5-9.6
				c-1.8-6.4-3.9-12.6-6-18.9h1.6c-1.6,6.4-3.3,12.8-5.1,19.2c-1.8,6.4-3.6,12.7-5.5,19.1c-2,6.3-4,12.6-6.1,18.9
				c-2.1,6.3-4.3,12.5-6.7,18.7l-0.3-0.1c1.4-6.5,3.1-12.9,4.7-19.3c1.7-6.4,3.5-12.8,5.3-19.1c1.9-6.3,3.9-12.6,5.9-18.9
				c2-6.3,4.1-12.6,6.3-18.8l0.9-2.6l0.7,2.6c1.6,6.4,3.4,12.8,5.4,19.1c1,3.2,2.1,6.3,3.2,9.4l3.2,9.4c2.1,6.3,3.9,12.6,5.6,19
				c1.7,6.4,3.3,12.8,4.7,19.3L94.7,473z"/>
		</g>
	</g>
	<g>
		<rect x="0" y="473" class="st14" width="98.8" height="158"/>
		<rect x="0.1" y="473" class="st11" width="49.4" height="79"/>
		<rect x="49.7" y="473" class="st11" width="49.4" height="79"/>
		<polygon class="st14" points="72.2,473 26.6,473 49.4,552 		"/>
		<g>
			<path class="st12" d="M45.9,552.1c-2.4-6.2-4.6-12.4-6.7-18.7c-2.1-6.3-4.1-12.6-5.8-19l-2.5-9.6c-0.8-3.2-1.6-6.4-2.5-9.6
				c-1.8-6.4-3.9-12.6-6-18.9H24c-1.6,6.4-3.3,12.8-5.1,19.2c-1.8,6.4-3.6,12.7-5.5,19.1c-2,6.3-4,12.6-6.1,18.9
				c-2.1,6.3-4.3,12.5-6.7,18.7L0.3,552c1.4-6.5,3.1-12.9,4.7-19.3c1.7-6.4,3.5-12.8,5.3-19.1c1.9-6.3,3.9-12.6,5.9-18.9
				c2-6.3,4.1-12.6,6.3-18.8l0.9-2.6l0.7,2.6c1.6,6.4,3.4,12.8,5.4,19.1c1,3.2,2.1,6.3,3.2,9.4l3.2,9.4c2.1,6.3,3.9,12.6,5.6,19
				c1.7,6.4,3.3,12.8,4.7,19.3L45.9,552.1z"/>
		</g>
		<g>
			<path class="st12" d="M53.2,552c1.4-6.5,3-12.9,4.7-19.3c1.7-6.4,3.5-12.7,5.6-19l3.2-9.4c1.1-3.1,2.2-6.3,3.2-9.4
				c2-6.3,3.7-12.7,5.4-19.1l0.7-2.6l0.9,2.6c2.2,6.2,4.3,12.5,6.3,18.8c2,6.3,4,12.6,5.9,18.9c1.8,6.4,3.6,12.7,5.3,19.1
				c1.7,6.4,3.3,12.8,4.7,19.3l-0.3,0.1c-2.4-6.2-4.6-12.4-6.7-18.7c-2.1-6.3-4.1-12.6-6.1-18.9c-1.9-6.3-3.7-12.7-5.5-19
				c-1.8-6.4-3.5-12.8-5.2-19.2l1.6,0c-2.1,6.3-4.2,12.5-6,18.9c-0.9,3.2-1.7,6.4-2.5,9.6l-2.4,9.6c-1.7,6.4-3.7,12.7-5.8,19
				c-2.1,6.3-4.2,12.5-6.6,18.7L53.2,552z"/>
		</g>
		<rect x="-0.3" y="552" class="st11" width="49.4" height="79"/>
		<path class="st14" d="M22.2,552c-7.4,0-14.8,0-22.2,0c-0.2,26.3-0.4,52.6-0.6,79L22.2,552z"/>
		<g>
			<path class="st12" d="M3.2,631c1.4-6.5,3-12.9,4.7-19.3c1.7-6.4,3.5-12.7,5.6-19l3.2-9.4c1.1-3.1,2.2-6.3,3.2-9.4
				c2-6.3,3.7-12.7,5.4-19.1l0.7-2.6l0.9,2.6c2.2,6.2,4.3,12.5,6.3,18.8c2,6.3,4,12.6,5.9,18.9c1.8,6.4,3.6,12.7,5.3,19.1
				c1.7,6.4,3.3,12.8,4.7,19.3l-0.3,0.1c-2.4-6.2-4.6-12.4-6.7-18.7C40,606,38,599.7,36,593.4c-1.9-6.3-3.7-12.7-5.5-19
				c-1.8-6.4-3.5-12.8-5.2-19.2l1.6,0c-2.1,6.3-4.2,12.5-6,18.9c-0.9,3.2-1.7,6.4-2.5,9.6l-2.4,9.6c-1.7,6.4-3.7,12.7-5.8,19
				c-2.1,6.3-4.2,12.5-6.6,18.7L3.2,631z"/>
		</g>
		<rect x="48.9" y="552" class="st11" width="49.8" height="79"/>
		<path class="st14" d="M99.1,552H75.4c7.8,26.3,15.6,52.7,23.4,79C98.9,604.7,99,578.3,99.1,552z"/>
		<g>
			<path class="st12" d="M94.7,631c-2.4-6.2-4.6-12.4-6.7-18.7c-2.1-6.3-4.1-12.6-5.8-19l-2.5-9.6c-0.8-3.2-1.6-6.4-2.5-9.6
				c-1.8-6.4-3.9-12.6-6-18.9h1.6c-1.6,6.4-3.3,12.8-5.1,19.2c-1.8,6.4-3.6,12.7-5.5,19.1c-2,6.3-4,12.6-6.1,18.9
				c-2.1,6.3-4.3,12.5-6.7,18.7l-0.3-0.1c1.4-6.5,3.1-12.9,4.7-19.3c1.7-6.4,3.5-12.8,5.3-19.1c1.9-6.3,3.9-12.6,5.9-18.9
				c2-6.3,4.1-12.6,6.3-18.8l0.9-2.6l0.7,2.6c1.6,6.4,3.4,12.8,5.4,19.1c1,3.2,2.1,6.3,3.2,9.4l3.2,9.4c2.1,6.3,3.9,12.6,5.6,19
				c1.7,6.4,3.3,12.8,4.7,19.3L94.7,631z"/>
		</g>
	</g>
	<g>
		<rect x="0" y="631" class="st14" width="98.8" height="158"/>
		<rect x="0.1" y="631" class="st11" width="49.4" height="79"/>
		<rect x="49.7" y="631" class="st11" width="49.4" height="79"/>
		<polygon class="st14" points="72.2,631 26.6,631 49.4,710 		"/>
		<g>
			<path class="st12" d="M45.9,710.1c-2.4-6.2-4.6-12.4-6.7-18.7c-2.1-6.3-4.1-12.6-5.8-19l-2.5-9.6c-0.8-3.2-1.6-6.4-2.5-9.6
				c-1.8-6.4-3.9-12.6-6-18.9H24c-1.6,6.4-3.3,12.8-5.1,19.2c-1.8,6.4-3.6,12.7-5.5,19.1c-2,6.3-4,12.6-6.1,18.9
				c-2.1,6.3-4.3,12.5-6.7,18.7L0.3,710c1.4-6.5,3.1-12.9,4.7-19.3c1.7-6.4,3.5-12.8,5.3-19.1c1.9-6.3,3.9-12.6,5.9-18.9
				c2-6.3,4.1-12.6,6.3-18.8l0.9-2.6l0.7,2.6c1.6,6.4,3.4,12.8,5.4,19.1c1,3.2,2.1,6.3,3.2,9.4l3.2,9.4c2.1,6.3,3.9,12.6,5.6,19
				c1.7,6.4,3.3,12.8,4.7,19.3L45.9,710.1z"/>
		</g>
		<g>
			<path class="st12" d="M53.2,710c1.4-6.5,3-12.9,4.7-19.3c1.7-6.4,3.5-12.7,5.6-19l3.2-9.4c1.1-3.1,2.2-6.3,3.2-9.4
				c2-6.3,3.7-12.7,5.4-19.1l0.7-2.6l0.9,2.6c2.2,6.2,4.3,12.5,6.3,18.8c2,6.3,4,12.6,5.9,18.9c1.8,6.4,3.6,12.7,5.3,19.1
				c1.7,6.4,3.3,12.8,4.7,19.3l-0.3,0.1c-2.4-6.2-4.6-12.4-6.7-18.7c-2.1-6.3-4.1-12.6-6.1-18.9c-1.9-6.3-3.7-12.7-5.5-19
				c-1.8-6.4-3.5-12.8-5.2-19.2l1.6,0c-2.1,6.3-4.2,12.5-6,18.9c-0.9,3.2-1.7,6.4-2.5,9.6l-2.4,9.6c-1.7,6.4-3.7,12.7-5.8,19
				c-2.1,6.3-4.2,12.5-6.6,18.7L53.2,710z"/>
		</g>
		<rect x="-0.3" y="710" class="st11" width="49.4" height="79"/>
		<path class="st14" d="M22.2,710c-7.4,0-14.8,0-22.2,0c-0.2,26.3-0.4,52.6-0.6,79L22.2,710z"/>
		<g>
			<path class="st12" d="M3.2,789c1.4-6.5,3-12.9,4.7-19.3c1.7-6.4,3.5-12.7,5.6-19l3.2-9.4c1.1-3.1,2.2-6.3,3.2-9.4
				c2-6.3,3.7-12.7,5.4-19.1l0.7-2.6l0.9,2.6c2.2,6.2,4.3,12.5,6.3,18.8c2,6.3,4,12.6,5.9,18.9c1.8,6.4,3.6,12.7,5.3,19.1
				c1.7,6.4,3.3,12.8,4.7,19.3l-0.3,0.1c-2.4-6.2-4.6-12.4-6.7-18.7C40,764,38,757.7,36,751.4c-1.9-6.3-3.7-12.7-5.5-19
				c-1.8-6.4-3.5-12.8-5.2-19.2l1.6,0c-2.1,6.3-4.2,12.5-6,18.9c-0.9,3.2-1.7,6.4-2.5,9.6l-2.4,9.6c-1.7,6.4-3.7,12.7-5.8,19
				c-2.1,6.3-4.2,12.5-6.6,18.7L3.2,789z"/>
		</g>
		<rect x="48.9" y="710" class="st11" width="49.8" height="79"/>
		<path class="st14" d="M99.1,710H75.4c7.8,26.3,15.6,52.7,23.4,79C98.9,762.7,99,736.3,99.1,710z"/>
		<g>
			<path class="st12" d="M94.7,789c-2.4-6.2-4.6-12.4-6.7-18.7c-2.1-6.3-4.1-12.6-5.8-19l-2.5-9.6c-0.8-3.2-1.6-6.4-2.5-9.6
				c-1.8-6.4-3.9-12.6-6-18.9h1.6c-1.6,6.4-3.3,12.8-5.1,19.2c-1.8,6.4-3.6,12.7-5.5,19.1c-2,6.3-4,12.6-6.1,18.9
				c-2.1,6.3-4.3,12.5-6.7,18.7l-0.3-0.1c1.4-6.5,3.1-12.9,4.7-19.3c1.7-6.4,3.5-12.8,5.3-19.1c1.9-6.3,3.9-12.6,5.9-18.9
				c2-6.3,4.1-12.6,6.3-18.8l0.9-2.6l0.7,2.6c1.6,6.4,3.4,12.8,5.4,19.1c1,3.2,2.1,6.3,3.2,9.4l3.2,9.4c2.1,6.3,3.9,12.6,5.6,19
				c1.7,6.4,3.3,12.8,4.7,19.3L94.7,789z"/>
		</g>
	</g>
</g>
<g id="Capa_8" class="st0">
	<g class="st1">
		<rect x="-0.5" y="-0.5" class="st11" width="162.5" height="250"/>
		<polygon class="st14" points="236.5,-0.5 86.5,-0.5 161.5,249.5 		"/>
		<g>
			<path class="st12" d="M150.1,249.6c-3.9-10.2-7.5-20.5-11-30.8c-1.8-5.1-3.5-10.3-5.2-15.5c-1.7-5.2-3.4-10.3-5.1-15.5l-5-15.5
				l-4.8-15.6c-3.3-10.4-6.3-20.8-9.2-31.3C104,104.5,99,83.3,93,62.4C87,41.5,80.4,20.7,73.4,0.1l4.2,0
				c-2.8,10.5-5.5,21.1-8.4,31.5c-2.9,10.5-5.8,21-8.8,31.4c-6,20.9-11.9,41.8-18.3,62.6c-3.2,10.4-6.4,20.8-9.8,31.1l-5,15.5
				l-5.1,15.5c-6.9,20.7-13.8,41.3-21.4,61.7l-0.8-0.2c4.9-21.2,10.5-42.3,16.1-63.3l4.3-15.7l4.4-15.7c2.9-10.5,5.9-20.9,9-31.4
				c6.1-20.9,12.7-41.6,19.2-62.4c3.3-10.4,6.5-20.7,9.9-31.1c3.4-10.3,6.9-20.6,10.4-31l2.3-7l1.8,7c5.5,21,11.4,42,17.9,62.8
				c6.5,20.8,14,41.2,20.7,61.9c3.4,10.3,6.6,20.7,9.6,31.2l4.5,15.7l4.4,15.7c1.5,5.2,2.9,10.5,4.3,15.7c1.4,5.2,2.8,10.5,4.2,15.8
				c2.7,10.5,5.3,21.1,7.7,31.7L150.1,249.6z"/>
		</g>
		<rect x="-161.5" y="245.5" class="st11" width="162.5" height="250"/>
		<rect x="1.5" y="245.5" class="st11" width="162.5" height="250"/>
		<polygon class="st14" points="75.5,245.5 -74.5,245.5 0.5,495.5 		"/>
		<g>
			<path class="st12" d="M13.3,495.5c2.4-10.6,5-21.2,7.7-31.8c1.3-5.3,2.7-10.5,4.1-15.8c1.4-5.3,2.8-10.5,4.3-15.7l4.4-15.7
				l4.5-15.7c3-10.5,6.2-20.9,9.5-31.2c6.7-20.7,14.2-41.2,20.6-61.9c6.5-20.8,12.3-41.7,17.8-62.8l1.8-7l2.4,7
				c3.5,10.3,7,20.6,10.4,30.9c3.4,10.3,6.7,20.7,10,31.1c6.6,20.7,13.1,41.5,19.3,62.3c3.1,10.4,6.1,20.9,9,31.4l4.4,15.7l4.3,15.7
				c5.7,21,11.2,42.1,16.2,63.3l-0.8,0.2c-7.6-20.4-14.6-41-21.5-61.7l-5.1-15.5l-5-15.5c-3.3-10.4-6.6-20.7-9.8-31.1
				c-6.4-20.8-12.4-41.7-18.4-62.6c-3-10.5-6-20.9-8.9-31.4c-2.9-10.5-5.6-21-8.4-31.5l4.2,0c-6.9,20.6-13.6,41.4-19.5,62.3
				c-6,20.9-11,42.1-16.7,63.1c-2.9,10.5-5.9,20.9-9.1,31.3l-4.8,15.6l-5,15.5c-1.6,5.2-3.4,10.3-5.1,15.5
				c-1.7,5.2-3.4,10.3-5.2,15.5c-3.5,10.3-7.1,20.6-11,30.8L13.3,495.5z"/>
		</g>
		<rect x="-0.5" y="495.5" class="st11" width="162.5" height="250"/>
		<polygon class="st14" points="236.5,495.5 86.5,495.5 161.5,745.5 		"/>
		<g>
			<path class="st12" d="M150.1,745.6c-3.9-10.2-7.5-20.5-11-30.8c-1.8-5.1-3.5-10.3-5.2-15.5c-1.7-5.2-3.4-10.3-5.1-15.5l-5-15.5
				l-4.8-15.6c-3.3-10.4-6.3-20.8-9.2-31.3c-5.8-21-10.8-42.2-16.8-63.1c-6-20.9-12.6-41.6-19.6-62.2h4.2
				c-2.8,10.5-5.5,21.1-8.4,31.5c-2.9,10.5-5.8,21-8.8,31.4c-6,20.9-11.9,41.8-18.3,62.6c-3.2,10.4-6.4,20.8-9.8,31.1l-5,15.5
				l-5.1,15.5c-6.9,20.7-13.8,41.3-21.4,61.7l-0.8-0.2c4.9-21.2,10.5-42.3,16.1-63.3l4.3-15.7l4.4-15.7c2.9-10.5,5.9-20.9,9-31.4
				c6.1-20.9,12.7-41.6,19.2-62.4c3.3-10.4,6.5-20.7,9.9-31.1c3.4-10.3,6.9-20.6,10.4-31l2.3-7l1.8,7c5.5,21,11.4,42,17.9,62.8
				c6.5,20.8,14,41.2,20.7,61.9c3.4,10.3,6.6,20.7,9.6,31.2l4.5,15.7l4.4,15.7c1.5,5.2,2.9,10.5,4.3,15.7c1.4,5.2,2.8,10.5,4.2,15.8
				c2.7,10.5,5.3,21.1,7.7,31.7L150.1,745.6z"/>
		</g>
		<rect x="-161.5" y="741.5" class="st11" width="162.5" height="250"/>
		<rect x="1.5" y="741.5" class="st11" width="162.5" height="250"/>
		<polygon class="st14" points="75.5,741.5 -74.5,741.5 0.5,991.5 		"/>
		<g>
			<path class="st12" d="M13.3,991.5c2.4-10.6,5-21.2,7.7-31.8c1.3-5.3,2.7-10.5,4.1-15.8c1.4-5.3,2.8-10.5,4.3-15.7l4.4-15.7
				l4.5-15.7c3-10.5,6.2-20.9,9.5-31.2c6.7-20.7,14.2-41.2,20.6-61.9c6.5-20.8,12.3-41.7,17.8-62.8l1.8-7l2.4,7
				c3.5,10.3,7,20.6,10.4,30.9c3.4,10.3,6.7,20.7,10,31.1c6.6,20.7,13.1,41.5,19.3,62.3c3.1,10.4,6.1,20.9,9,31.4l4.4,15.7l4.3,15.7
				c5.7,21,11.2,42.1,16.2,63.3l-0.8,0.2c-7.6-20.4-14.6-41-21.5-61.7l-5.1-15.5l-5-15.5c-3.3-10.4-6.6-20.7-9.8-31.1
				c-6.4-20.8-12.4-41.7-18.4-62.6c-3-10.5-6-20.9-8.9-31.4c-2.9-10.5-5.6-21-8.4-31.5l4.2,0c-6.9,20.6-13.6,41.4-19.5,62.3
				c-6,20.9-11,42.1-16.7,63.1c-2.9,10.5-5.9,20.9-9.1,31.3l-4.8,15.6l-5,15.5c-1.6,5.2-3.4,10.3-5.1,15.5
				c-1.7,5.2-3.4,10.3-5.2,15.5c-3.5,10.3-7.1,20.6-11,30.8L13.3,991.5z"/>
		</g>
	</g>
	<rect x="0" y="787.5" transform="matrix(-1 -4.489843e-11 4.489843e-11 -1 162.5 1825)" class="st16" width="162.5" height="250"/>
	<polygon class="st17" points="87.5,1037.5 237.5,1037.5 162.5,787.5 	"/>
	<g class="st1">
		<path class="st11" d="M149.9,787.6c-2.4,10.6-5,21.2-7.7,31.7c-1.4,5.3-2.7,10.5-4.2,15.8c-1.4,5.3-2.8,10.5-4.3,15.7l-4.4,15.7
			l-4.5,15.7c-3,10.5-6.2,20.8-9.6,31.2c-6.7,20.7-14.2,41.1-20.7,61.9c-6.5,20.8-12.4,41.7-17.9,62.8l-1.8,7l-2.3-7
			c-3.4-10.3-7-20.6-10.4-31c-3.4-10.3-6.7-20.7-9.9-31.1c-6.5-20.7-13.1-41.5-19.2-62.4c-3.1-10.4-6.1-20.9-9-31.4l-4.4-15.7
			l-4.3-15.7c-5.6-21-11.2-42.1-16.1-63.3l0.8-0.2c7.6,20.4,14.5,41.1,21.4,61.7l5.1,15.5l5,15.5c3.3,10.4,6.6,20.7,9.8,31.1
			c6.4,20.8,12.3,41.7,18.3,62.6c3,10.5,6,20.9,8.8,31.4c2.9,10.5,5.6,21,8.4,31.5h-4.2c7-20.6,13.6-41.3,19.6-62.2
			c6-20.9,11-42.1,16.8-63.1c2.9-10.5,5.9-20.9,9.2-31.3l4.8-15.6l5-15.5c1.6-5.2,3.4-10.3,5.1-15.5c1.7-5.2,3.4-10.3,5.2-15.5
			c3.5-10.3,7.2-20.6,11-30.8L149.9,787.6z"/>
	</g>
</g>
<g id="Capa_10" class="st0">
	<rect x="0.4" y="-0.5" class="st15" width="62.1" height="86.8"/>
	<rect x="62.6" y="-0.5" class="st16" width="62.1" height="86.8"/>
	<polygon class="st18" points="89.1,-0.5 36.1,-0.5 62.6,86.3 	"/>
	<g class="st1">
		<path class="st12" d="M58.5,86.4c-2.9-7-5.5-14.1-7.9-21.3l-1.8-5.4l-1.7-5.4c-1.2-3.6-2.2-7.2-3.2-10.9c-2-7.3-3.6-14.7-5.7-22
			C36.1,14.1,33.7,7,31.1-0.2l2.1,0c-0.9,3.7-1.8,7.3-2.8,11c-1,3.7-2,7.3-3.1,10.9C25.3,29,23.2,36.3,21,43.5
			c-2.3,7.2-4.6,14.4-7.2,21.5c-2.5,7.1-5.1,14.3-7.9,21.3l-0.4-0.1c1.6-7.4,3.4-14.8,5.3-22.1c1.9-7.3,4-14.6,6.1-21.9
			c2.2-7.2,4.5-14.4,6.9-21.6c1.2-3.6,2.3-7.2,3.6-10.8c1.2-3.6,2.5-7.1,3.8-10.7l1.2-3.4l0.9,3.4c1.9,7.3,3.8,14.6,6.2,21.8
			c2.3,7.2,5.2,14.2,7.6,21.4c1.2,3.6,2.4,7.2,3.4,10.8l1.6,5.4l1.5,5.5c2,7.3,3.9,14.6,5.3,22.1L58.5,86.4z"/>
	</g>
	<g class="st1">
		<path class="st11" d="M67.1,86.3c1.5-7.5,3.3-14.8,5.3-22.1l1.5-5.5l1.6-5.4c1-3.6,2.2-7.2,3.4-10.8c2.4-7.2,5.3-14.2,7.6-21.4
			c2.3-7.2,4.3-14.5,6.2-21.8l0.9-3.4l1.2,3.4c1.3,3.6,2.6,7.1,3.8,10.7c1.2,3.6,2.4,7.2,3.6,10.8c2.4,7.2,4.7,14.4,6.9,21.6
			c2.1,7.3,4.2,14.5,6.1,21.9c1.9,7.3,3.7,14.7,5.3,22.1l-0.4,0.1c-2.8-7-5.5-14.1-8-21.3c-2.5-7.1-4.9-14.3-7.2-21.5
			c-2.3-7.2-4.3-14.5-6.4-21.8c-1-3.6-2.1-7.3-3.1-10.9c-1-3.7-1.9-7.3-2.8-11l2.1,0c-2.5,7.1-5,14.3-7,21.6
			c-2.1,7.3-3.7,14.7-5.6,22c-1,3.7-2,7.3-3.2,10.9l-1.7,5.4l-1.8,5.4c-2.4,7.2-5,14.3-7.9,21.3L67.1,86.3z"/>
	</g>
	<polygon class="st18" points="125,-0.3 97.9,-0.3 124.5,86.5 	"/>
	<polygon class="st18" points="0.4,-0.3 27.5,-0.3 1,86.5 	"/>
	
		<rect x="63.6" y="86.5" transform="matrix(-1 -4.488999e-11 4.488999e-11 -1 189.3234 259.8335)" class="st15" width="62.1" height="86.8"/>
	
		<rect x="1.5" y="86.5" transform="matrix(-1 -4.490465e-11 4.490465e-11 -1 64.9683 259.8335)" class="st16" width="62.1" height="86.8"/>
	<polygon class="st18" points="37,173.3 90,173.3 63.5,86.5 	"/>
	<g class="st1">
		<path class="st12" d="M67.6,86.5c2.9,7,5.5,14.1,7.9,21.3l1.8,5.4l1.7,5.4c1.2,3.6,2.2,7.2,3.2,10.9c2,7.3,3.6,14.7,5.7,22
			c2.1,7.3,4.5,14.4,7.1,21.6h-2.1c0.9-3.7,1.8-7.3,2.8-11c1-3.7,2-7.3,3.1-10.9c2.1-7.3,4.1-14.6,6.4-21.8
			c2.3-7.2,4.6-14.4,7.2-21.5c2.5-7.1,5.1-14.3,7.9-21.3l0.4,0.1c-1.6,7.4-3.4,14.8-5.3,22.1c-1.9,7.3-4,14.6-6.1,21.9
			c-2.2,7.2-4.5,14.4-6.9,21.6c-1.2,3.6-2.3,7.2-3.6,10.8c-1.2,3.6-2.5,7.1-3.8,10.7l-1.2,3.4l-0.9-3.4c-1.9-7.3-3.8-14.6-6.2-21.8
			c-2.3-7.2-5.2-14.2-7.6-21.4c-1.2-3.6-2.4-7.2-3.4-10.8l-1.6-5.4l-1.5-5.5c-2-7.3-3.9-14.6-5.3-22.1L67.6,86.5z"/>
	</g>
	<g class="st1">
		<path class="st11" d="M59,86.5c-1.5,7.5-3.3,14.8-5.3,22.1l-1.5,5.5l-1.6,5.4c-1,3.6-2.2,7.2-3.4,10.8c-2.4,7.2-5.3,14.2-7.6,21.4
			c-2.3,7.2-4.3,14.5-6.2,21.8l-0.9,3.4l-1.2-3.4c-1.3-3.6-2.6-7.1-3.8-10.7c-1.2-3.6-2.4-7.2-3.6-10.8c-2.4-7.2-4.7-14.4-6.9-21.6
			c-2.1-7.3-4.2-14.5-6.1-21.9C9,101.4,7.2,94,5.6,86.6L6,86.5c2.8,7,5.5,14.1,8,21.3c2.5,7.1,4.9,14.3,7.2,21.5
			c2.3,7.2,4.3,14.5,6.4,21.8c1,3.6,2.1,7.3,3.1,10.9c1,3.7,1.9,7.3,2.8,11l-2.1,0c2.5-7.1,5-14.3,7-21.6c2.1-7.3,3.7-14.7,5.6-22
			c1-3.7,2-7.3,3.2-10.9l1.7-5.4l1.8-5.4c2.4-7.2,5-14.3,7.9-21.3L59,86.5z"/>
	</g>
	<polygon class="st18" points="0.4,173.1 27.5,173.1 0.9,86.3 	"/>
	<rect x="0.4" y="173.2" class="st15" width="62.1" height="86.8"/>
	<rect x="62.6" y="173.2" class="st16" width="62.1" height="86.8"/>
	<polygon class="st18" points="89.1,173.2 36.1,173.2 62.6,260 	"/>
	<g class="st1">
		<path class="st12" d="M58.3,260.1c-3.7-6.8-6.6-13.8-9.2-20.9c-1.3-3.5-2.6-7.1-3.7-10.7c-1.2-3.6-2.2-7.2-3.1-10.9
			c-1.7-7.4-2.7-15-4.7-22.3c-1-3.7-2.1-7.3-3.4-10.8c-1.2-3.6-2.7-7.1-4.1-10.6l4.2,0c-0.8,3.7-1.5,7.5-2.3,11.1
			c-0.8,3.7-1.8,7.4-2.8,11c-1.9,7.3-3.8,14.6-6.2,21.8c-2.3,7.2-4.9,14.3-7.7,21.4c-2.8,7-5.7,14.1-9.3,20.9l-0.8-0.2
			c0.9-7.6,2.4-15.1,4-22.5c1.6-7.4,3.5-14.8,5.6-22c2.1-7.3,4.6-14.4,7.1-21.6c1.3-3.6,2.5-7.2,3.9-10.7c1.3-3.5,2.9-7,4.3-10.6
			l2.8-6.8l1.4,6.8c0.8,3.7,1.5,7.4,2.5,11.1c1,3.7,2,7.3,3.3,10.9c2.4,7.2,5.9,14,8.6,21.1c1.4,3.5,2.5,7.1,3.5,10.8
			c1,3.6,2,7.3,2.9,11c1.8,7.4,3.3,14.8,4,22.5L58.3,260.1z"/>
	</g>
	<g class="st1">
		<path class="st11" d="M66.9,259.9c0.7-7.7,2.3-15.1,4-22.5c0.9-3.7,1.8-7.3,2.9-11c1-3.6,2.2-7.2,3.5-10.8
			c2.7-7.1,6.1-13.9,8.6-21.1c1.2-3.6,2.3-7.2,3.2-10.9c1-3.7,1.7-7.4,2.5-11.1l1.4-6.8l2.8,6.8c1.4,3.5,3,7,4.3,10.5
			c1.4,3.5,2.6,7.1,3.9,10.7c2.5,7.1,5,14.3,7.1,21.5c2.1,7.3,4,14.6,5.6,22c1.6,7.4,3.1,14.9,4,22.5l-0.8,0.2
			c-3.5-6.8-6.5-13.8-9.3-20.9c-2.8-7-5.4-14.2-7.7-21.4c-2.3-7.2-4.3-14.5-6.2-21.8c-1-3.7-2-7.3-2.8-11c-0.9-3.7-1.6-7.4-2.4-11.1
			l4.2,0c-1.4,3.5-2.9,7-4.1,10.6c-1.2,3.6-2.4,7.2-3.4,10.8c-2,7.3-2.9,14.9-4.6,22.3c-0.9,3.7-1.9,7.3-3.1,10.9
			c-1.2,3.6-2.4,7.2-3.7,10.7c-2.7,7.1-5.5,14.1-9.2,20.9L66.9,259.9z"/>
	</g>
	<polygon class="st18" points="125,173.4 97.9,173.4 124.5,260.2 	"/>
	<polygon class="st18" points="0.4,173.4 27.5,173.4 1,260.2 	"/>
	
		<rect x="63.6" y="260.2" transform="matrix(-1 -4.490465e-11 4.490465e-11 -1 189.3234 607.194)" class="st15" width="62.1" height="86.8"/>
	
		<rect x="1.5" y="260.2" transform="matrix(-1 -4.488999e-11 4.488999e-11 -1 64.9683 607.194)" class="st16" width="62.1" height="86.8"/>
	<polygon class="st18" points="37,347 90,347 63.5,260.2 	"/>
	<g class="st1">
		<path class="st12" d="M67.8,260.1c3.7,6.8,6.6,13.8,9.2,20.9c1.3,3.5,2.6,7.1,3.7,10.7c1.2,3.6,2.2,7.2,3.1,10.9
			c1.7,7.4,2.7,15,4.7,22.3c1,3.7,2.1,7.3,3.4,10.8c1.2,3.6,2.7,7.1,4.1,10.6h-4.2c0.8-3.7,1.5-7.5,2.3-11.1c0.8-3.7,1.8-7.4,2.8-11
			c1.9-7.3,3.8-14.6,6.2-21.8c2.3-7.2,4.9-14.3,7.7-21.4c2.8-7,5.7-14.1,9.3-20.9l0.8,0.2c-0.9,7.6-2.4,15.1-4,22.5
			c-1.6,7.4-3.5,14.8-5.6,22c-2.1,7.3-4.6,14.4-7.1,21.6c-1.3,3.6-2.5,7.2-3.9,10.7c-1.3,3.5-2.9,7-4.3,10.6l-2.8,6.8l-1.4-6.8
			c-0.8-3.7-1.5-7.4-2.5-11.1c-1-3.7-2-7.3-3.3-10.9c-2.4-7.2-5.9-14-8.6-21.1c-1.4-3.5-2.5-7.1-3.5-10.8c-1-3.6-2-7.3-2.9-11
			c-1.8-7.4-3.3-14.8-4-22.5L67.8,260.1z"/>
	</g>
	<g class="st1">
		<path class="st11" d="M59.2,260.3c-0.7,7.7-2.3,15.1-4,22.5c-0.9,3.7-1.8,7.3-2.9,11c-1,3.6-2.2,7.2-3.5,10.8
			c-2.7,7.1-6.1,13.9-8.6,21.1c-1.2,3.6-2.3,7.2-3.2,10.9c-1,3.7-1.7,7.4-2.5,11.1l-1.4,6.8l-2.8-6.8c-1.4-3.5-3-7-4.3-10.5
			c-1.4-3.5-2.6-7.1-3.9-10.7c-2.5-7.1-5-14.3-7.1-21.5c-2.1-7.3-4-14.6-5.6-22c-1.6-7.4-3.1-14.9-4-22.5l0.8-0.2
			c3.5,6.8,6.5,13.8,9.3,20.9c2.8,7,5.4,14.2,7.7,21.4c2.3,7.2,4.3,14.5,6.2,21.8c1,3.7,2,7.3,2.8,11c0.9,3.7,1.6,7.4,2.4,11.1
			l-4.2,0c1.4-3.5,2.9-7,4.1-10.6c1.2-3.6,2.4-7.2,3.4-10.8c2-7.3,2.9-14.9,4.6-22.3c0.9-3.7,1.9-7.3,3.1-10.9
			c1.2-3.6,2.4-7.2,3.7-10.7c2.7-7.1,5.5-14.1,9.2-20.9L59.2,260.3z"/>
	</g>
	<polygon class="st18" points="0.4,346.8 27.5,346.8 0.9,260 	"/>
	<rect x="0.4" y="346.5" class="st15" width="62.1" height="86.8"/>
	<rect x="62.6" y="346.5" class="st16" width="62.1" height="86.8"/>
	<polygon class="st18" points="89.1,346.5 36.1,346.5 62.6,433.3 	"/>
	<g class="st1">
		<path class="st12" d="M58.3,433.4c-3.7-6.8-6.6-13.8-9.2-20.9c-1.3-3.5-2.6-7.1-3.7-10.7c-1.2-3.6-2.2-7.2-3.1-10.9
			c-1.7-7.4-2.7-15-4.7-22.3c-1-3.7-2.1-7.3-3.4-10.8c-1.2-3.6-2.7-7.1-4.1-10.6h4.2c-0.8,3.7-1.5,7.5-2.3,11.1
			c-0.8,3.7-1.8,7.4-2.8,11c-1.9,7.3-3.8,14.6-6.2,21.8c-2.3,7.2-4.9,14.3-7.7,21.4c-2.8,7-5.7,14.1-9.3,20.9l-0.8-0.2
			c0.9-7.6,2.4-15.1,4-22.5c1.6-7.4,3.5-14.8,5.6-22c2.1-7.3,4.6-14.4,7.1-21.6c1.3-3.6,2.5-7.2,3.9-10.7c1.3-3.5,2.9-7,4.3-10.6
			l2.8-6.8l1.4,6.8c0.8,3.7,1.5,7.4,2.5,11.1c1,3.7,2,7.3,3.3,10.9c2.4,7.2,5.9,14,8.6,21.1c1.4,3.5,2.5,7.1,3.5,10.8
			c1,3.6,2,7.3,2.9,11c1.8,7.4,3.3,14.8,4,22.5L58.3,433.4z"/>
	</g>
	<g class="st1">
		<path class="st11" d="M66.9,433.2c0.7-7.7,2.3-15.1,4-22.5c0.9-3.7,1.8-7.3,2.9-11c1-3.6,2.2-7.2,3.5-10.8
			c2.7-7.1,6.1-13.9,8.6-21.1c1.2-3.6,2.3-7.2,3.2-10.9c1-3.7,1.7-7.4,2.5-11.1L93,339l2.8,6.8c1.4,3.5,3,7,4.3,10.5
			c1.4,3.5,2.6,7.1,3.9,10.7c2.5,7.1,5,14.3,7.1,21.5c2.1,7.3,4,14.6,5.6,22c1.6,7.4,3.1,14.9,4,22.5l-0.8,0.2
			c-3.5-6.8-6.5-13.8-9.3-20.9c-2.8-7-5.4-14.2-7.7-21.4c-2.3-7.2-4.3-14.5-6.2-21.8c-1-3.7-2-7.3-2.8-11c-0.9-3.7-1.6-7.4-2.4-11.1
			l4.2,0c-1.4,3.5-2.9,7-4.1,10.6c-1.2,3.6-2.4,7.2-3.4,10.8c-2,7.3-2.9,14.9-4.6,22.3c-0.9,3.7-1.9,7.3-3.1,10.9
			c-1.2,3.6-2.4,7.2-3.7,10.7c-2.7,7.1-5.5,14.1-9.2,20.9L66.9,433.2z"/>
	</g>
	<polygon class="st18" points="125,346.7 97.9,346.7 124.5,433.5 	"/>
	<polygon class="st18" points="0.4,346.7 27.5,346.7 1,433.5 	"/>
	
		<rect x="63.6" y="433.5" transform="matrix(-1 -4.487534e-11 4.487534e-11 -1 189.3234 953.8335)" class="st15" width="62.1" height="86.8"/>
	
		<rect x="1.5" y="433.5" transform="matrix(-1 -4.490465e-11 4.490465e-11 -1 64.9683 953.8335)" class="st16" width="62.1" height="86.8"/>
	<polygon class="st18" points="37,520.3 90,520.3 63.5,433.5 	"/>
	<g class="st1">
		<path class="st12" d="M67.8,433.4c3.7,6.8,6.6,13.8,9.2,20.9c1.3,3.5,2.6,7.1,3.7,10.7c1.2,3.6,2.2,7.2,3.1,10.9
			c1.7,7.4,2.7,15,4.7,22.3c1,3.7,2.1,7.3,3.4,10.8c1.2,3.6,2.7,7.1,4.1,10.6h-4.2c0.8-3.7,1.5-7.5,2.3-11.1c0.8-3.7,1.8-7.4,2.8-11
			c1.9-7.3,3.8-14.6,6.2-21.8c2.3-7.2,4.9-14.3,7.7-21.4c2.8-7,5.7-14.1,9.3-20.9l0.8,0.2c-0.9,7.6-2.4,15.1-4,22.5
			c-1.6,7.4-3.5,14.8-5.6,22c-2.1,7.3-4.6,14.4-7.1,21.6c-1.3,3.6-2.5,7.2-3.9,10.7c-1.3,3.5-2.9,7-4.3,10.6l-2.8,6.8l-1.4-6.8
			c-0.8-3.7-1.5-7.4-2.5-11.1c-1-3.7-2-7.3-3.3-10.9c-2.4-7.2-5.9-14-8.6-21.1c-1.4-3.5-2.5-7.1-3.5-10.8c-1-3.6-2-7.3-2.9-11
			c-1.8-7.4-3.3-14.8-4-22.5L67.8,433.4z"/>
	</g>
	<g class="st1">
		<path class="st11" d="M59.2,433.6c-0.7,7.7-2.3,15.1-4,22.5c-0.9,3.7-1.8,7.3-2.9,11c-1,3.6-2.2,7.2-3.5,10.8
			c-2.7,7.1-6.1,13.9-8.6,21.1c-1.2,3.6-2.3,7.2-3.2,10.9c-1,3.7-1.7,7.4-2.5,11.1l-1.4,6.8l-2.8-6.8c-1.4-3.5-3-7-4.3-10.5
			c-1.4-3.5-2.6-7.1-3.9-10.7c-2.5-7.1-5-14.3-7.1-21.5c-2.1-7.3-4-14.6-5.6-22c-1.6-7.4-3.1-14.9-4-22.5l0.8-0.2
			c3.5,6.8,6.5,13.8,9.3,20.9c2.8,7,5.4,14.2,7.7,21.4c2.3,7.2,4.3,14.5,6.2,21.8c1,3.7,2,7.3,2.8,11c0.9,3.7,1.6,7.4,2.4,11.1
			l-4.2,0c1.4-3.5,2.9-7,4.1-10.6c1.2-3.6,2.4-7.2,3.4-10.8c2-7.3,2.9-14.9,4.6-22.3c0.9-3.7,1.9-7.3,3.1-10.9
			c1.2-3.6,2.4-7.2,3.7-10.7c2.7-7.1,5.5-14.1,9.2-20.9L59.2,433.6z"/>
	</g>
	<polygon class="st18" points="0.4,520.1 27.5,520.1 0.9,433.3 	"/>
	<rect x="0.4" y="520.2" class="st15" width="62.1" height="86.8"/>
	<rect x="62.6" y="520.2" class="st16" width="62.1" height="86.8"/>
	<polygon class="st18" points="89.1,520.2 36.1,520.2 62.6,607 	"/>
	<g class="st1">
		<path class="st12" d="M58.3,607.1c-3.7-6.8-6.6-13.8-9.2-20.9c-1.3-3.5-2.6-7.1-3.7-10.7c-1.2-3.6-2.2-7.2-3.1-10.9
			c-1.7-7.4-2.7-15-4.7-22.3c-1-3.7-2.1-7.3-3.4-10.8c-1.2-3.6-2.7-7.1-4.1-10.6h4.2c-0.8,3.7-1.5,7.5-2.3,11.1
			c-0.8,3.7-1.8,7.4-2.8,11c-1.9,7.3-3.8,14.6-6.2,21.8c-2.3,7.2-4.9,14.3-7.7,21.4c-2.8,7-5.7,14.1-9.3,20.9l-0.8-0.2
			c0.9-7.6,2.4-15.1,4-22.5c1.6-7.4,3.5-14.8,5.6-22c2.1-7.3,4.6-14.4,7.1-21.6c1.3-3.6,2.5-7.2,3.9-10.7c1.3-3.5,2.9-7,4.3-10.6
			l2.8-6.8l1.4,6.8c0.8,3.7,1.5,7.4,2.5,11.1c1,3.7,2,7.3,3.3,10.9c2.4,7.2,5.9,14,8.6,21.1c1.4,3.5,2.5,7.1,3.5,10.8
			c1,3.6,2,7.3,2.9,11c1.8,7.4,3.3,14.8,4,22.5L58.3,607.1z"/>
	</g>
	<g class="st1">
		<path class="st11" d="M66.9,606.9c0.7-7.7,2.3-15.1,4-22.5c0.9-3.7,1.8-7.3,2.9-11c1-3.6,2.2-7.2,3.5-10.8
			c2.7-7.1,6.1-13.9,8.6-21.1c1.2-3.6,2.3-7.2,3.2-10.9c1-3.7,1.7-7.4,2.5-11.1l1.4-6.8l2.8,6.8c1.4,3.5,3,7,4.3,10.5
			c1.4,3.5,2.6,7.1,3.9,10.7c2.5,7.1,5,14.3,7.1,21.5c2.1,7.3,4,14.6,5.6,22c1.6,7.4,3.1,14.9,4,22.5l-0.8,0.2
			c-3.5-6.8-6.5-13.8-9.3-20.9c-2.8-7-5.4-14.2-7.7-21.4c-2.3-7.2-4.3-14.5-6.2-21.8c-1-3.7-2-7.3-2.8-11c-0.9-3.7-1.6-7.4-2.4-11.1
			l4.2,0c-1.4,3.5-2.9,7-4.1,10.6c-1.2,3.6-2.4,7.2-3.4,10.8c-2,7.3-2.9,14.9-4.6,22.3c-0.9,3.7-1.9,7.3-3.1,10.9
			c-1.2,3.6-2.4,7.2-3.7,10.7c-2.7,7.1-5.5,14.1-9.2,20.9L66.9,606.9z"/>
	</g>
	<polygon class="st18" points="125,520.4 97.9,520.4 124.5,607.2 	"/>
	<polygon class="st18" points="0.4,520.4 27.5,520.4 1,607.2 	"/>
	
		<rect x="63.6" y="607.2" transform="matrix(-1 -4.490465e-11 4.490465e-11 -1 189.3234 1301.194)" class="st15" width="62.1" height="86.8"/>
	
		<rect x="1.5" y="607.2" transform="matrix(-1 -4.490465e-11 4.490465e-11 -1 64.9683 1301.194)" class="st16" width="62.1" height="86.8"/>
	<polygon class="st18" points="37,694 90,694 63.5,607.2 	"/>
	<g class="st1">
		<path class="st12" d="M67.8,607.1c3.7,6.8,6.6,13.8,9.2,20.9c1.3,3.5,2.6,7.1,3.7,10.7c1.2,3.6,2.2,7.2,3.1,10.9
			c1.7,7.4,2.7,15,4.7,22.3c1,3.7,2.1,7.3,3.4,10.8c1.2,3.6,2.7,7.1,4.1,10.6h-4.2c0.8-3.7,1.5-7.5,2.3-11.1c0.8-3.7,1.8-7.4,2.8-11
			c1.9-7.3,3.8-14.6,6.2-21.8c2.3-7.2,4.9-14.3,7.7-21.4c2.8-7,5.7-14.1,9.3-20.9l0.8,0.2c-0.9,7.6-2.4,15.1-4,22.5
			c-1.6,7.4-3.5,14.8-5.6,22c-2.1,7.3-4.6,14.4-7.1,21.6c-1.3,3.6-2.5,7.2-3.9,10.7c-1.3,3.5-2.9,7-4.3,10.6l-2.8,6.8l-1.4-6.8
			c-0.8-3.7-1.5-7.4-2.5-11.1c-1-3.7-2-7.3-3.3-10.9c-2.4-7.2-5.9-14-8.6-21.1c-1.4-3.5-2.5-7.1-3.5-10.8c-1-3.6-2-7.3-2.9-11
			c-1.8-7.4-3.3-14.8-4-22.5L67.8,607.1z"/>
	</g>
	<g class="st1">
		<path class="st11" d="M59.2,607.3c-0.7,7.7-2.3,15.1-4,22.5c-0.9,3.7-1.8,7.3-2.9,11c-1,3.6-2.2,7.2-3.5,10.8
			c-2.7,7.1-6.1,13.9-8.6,21.1c-1.2,3.6-2.3,7.2-3.2,10.9c-1,3.7-1.7,7.4-2.5,11.1l-1.4,6.8l-2.8-6.8c-1.4-3.5-3-7-4.3-10.5
			c-1.4-3.5-2.6-7.1-3.9-10.7c-2.5-7.1-5-14.3-7.1-21.5c-2.1-7.3-4-14.6-5.6-22c-1.6-7.4-3.1-14.9-4-22.5l0.8-0.2
			c3.5,6.8,6.5,13.8,9.3,20.9c2.8,7,5.4,14.2,7.7,21.4c2.3,7.2,4.3,14.5,6.2,21.8c1,3.7,2,7.3,2.8,11c0.9,3.7,1.6,7.4,2.4,11.1
			l-4.2,0c1.4-3.5,2.9-7,4.1-10.6c1.2-3.6,2.4-7.2,3.4-10.8c2-7.3,2.9-14.9,4.6-22.3c0.9-3.7,1.9-7.3,3.1-10.9
			c1.2-3.6,2.4-7.2,3.7-10.7c2.7-7.1,5.5-14.1,9.2-20.9L59.2,607.3z"/>
	</g>
	<polygon class="st18" points="0.4,693.8 27.5,693.8 0.9,607 	"/>
</g>
<g id="Capa_11" class="st0">
	<polygon class="st15" points="-511.8,696.2 99,399.5 -511.8,399.5 	"/>
	<polygon class="st18" points="-511.8,103.8 99,400.5 -511.8,400.5 	"/>
</g>
<g id="Capa_2" class="st0">
</g>
<g id="Capa_3" class="st0">
</g>
<g id="Capa_4" class="st0">
</g>
<g id="Capa_5" class="st0">
</g>
<g id="Capa_12" class="st0">
</g>
</svg>
