<?xml version="1.0" encoding="utf-8"?>
<!-- Generator: Adobe Illustrator 22.0.0, SVG Export Plug-In . SVG Version: 6.00 Build 0)  -->
<svg version="1.1" xmlns="http://www.w3.org/2000/svg" xmlns:xlink="http://www.w3.org/1999/xlink" x="0px" y="0px"
	 viewBox="0 0 98.4 787.9" style="enable-background:new 0 0 98.4 787.9;" xml:space="preserve">
<style type="text/css">
	.st0{display:none;}
	.st1{display:inline;}
	.st2{fill:#FFFFFF;}
	.st3{display:inline;fill:#FFDC71;}
	.st4{fill:#F33600;}
	.st5{fill:#EAA500;}
	.st6{fill:#B60300;}
	.st7{fill:none;stroke:#FFFFFF;stroke-width:8;stroke-miterlimit:10;}
	.st8{fill:#A86000;}
	.st9{fill:#0071BB;}
	.st10{fill:#1B1464;}
	.st11{fill:#580000;}
	.st12{fill:#DD2400;}
	.st13{fill:#EA9E00;}
	.st14{fill:#A70500;}
	.st15{display:inline;fill:#580000;}
	.st16{display:inline;fill:#DD2400;}
	.st17{display:inline;fill:#EA9E00;}
	.st18{display:inline;fill:#A70500;}
	.st19{display:inline;fill:#F6921E;}
	.st20{fill:#F6921E;}
	.st21{clip-path:url(#SVGID_2_);}
	.st22{clip-path:url(#SVGID_4_);}
</style>
<g id="Capa_1" class="st0">
</g>
<g id="Capa_6" class="st0">
</g>
<g id="Capa_7">
	
		<rect x="0" y="195.8" transform="matrix(-1 -4.513646e-11 4.513646e-11 -1 49.3269 441.14)" class="st5" width="49.3" height="49.6"/>
	<path class="st8" d="M49.9,195.8v49.6h-9.8l-29.3-30l29.8,9.2c0,0-31-28.8-30.4-28.8S49.9,195.8,49.9,195.8z"/>
	<g>
		<path class="st2" d="M9.8,196.4c2.9,2,5.8,4,8.6,6l2.1,1.5c0.7,0.5,1.4,1,2,1.6c1.2,1.3,2.5,2.4,3.8,3.6l15.2,14.3l6.1,5.7l-8-2.3
			L9.2,218l2-3.3l15.2,15.2c1.3,1.3,2.5,2.5,3.8,3.8c0.3,0.3,0.7,0.6,1,0.9l0.8,1.1l1.7,2.1c2.2,2.8,4.4,5.7,6.5,8.7
			c-2.9-2.1-5.8-4.3-8.7-6.5l-2.1-1.7l-1.1-0.8c-0.3-0.3-0.6-0.6-0.9-1c-1.2-1.3-2.5-2.5-3.8-3.8L8.3,217.5L2.8,212l7.5,2.2
			l30.4,8.9l-1.9,3.4l-15.2-14.3c-1.3-1.2-2.5-2.4-3.8-3.5c-0.7-0.6-1.2-1.3-1.8-1.9l-1.7-2C14.1,201.9,11.9,199.2,9.8,196.4z"/>
	</g>
	<rect x="49.6" y="195.8" class="st4" width="49.3" height="49.5"/>
	<path class="st6" d="M49.7,196v49.2h9.8l29.4-29.8L59,224.6c0,0,31.1-28.6,30.5-28.6S49.7,196,49.7,196z"/>
	<g>
		<path class="st2" d="M90.1,196c-2.1,2.8-4.3,5.6-6.6,8.2l-1.7,2c-0.6,0.7-1.1,1.4-1.8,1.9c-1.3,1.1-2.6,2.4-3.8,3.5L61,226.1
			l-1.9-3.4l30.4-8.9l7.5-2.2l-5.5,5.5l-15.2,15.2c-1.3,1.3-2.5,2.5-3.8,3.8c-0.3,0.3-0.6,0.7-0.9,1l-1.1,0.8l-2.1,1.7
			c-2.8,2.2-5.7,4.4-8.7,6.5c2.1-2.9,4.3-5.8,6.5-8.7l1.7-2.1l0.8-1.1c0.3-0.3,0.6-0.6,1-0.9c1.3-1.2,2.5-2.5,3.8-3.8l15.2-15.2
			l2,3.3l-30.4,8.9l-8,2.3l6.1-5.7l15.2-14.3c1.3-1.2,2.6-2.4,3.8-3.6c0.6-0.6,1.3-1.1,2-1.6l2.1-1.5C84.2,200,87.1,198,90.1,196z"
			/>
	</g>
	
		<rect x="49" y="245.2" transform="matrix(-1 -4.515511e-11 4.515511e-11 -1 147.4072 540.0012)" class="st5" width="49.3" height="49.6"/>
	<path class="st8" d="M98.9,245.2v49.6h-9.8l-29.3-30l29.8,9.2c0,0-31-28.8-30.4-28.8S98.9,245.2,98.9,245.2z"/>
	<g>
		<path class="st2" d="M58.8,245.8c2.9,2,5.8,4,8.6,6l2.1,1.5c0.7,0.5,1.4,1,2,1.6c1.2,1.3,2.5,2.4,3.8,3.6l15.2,14.3l6.1,5.7
			l-8-2.3l-30.4-8.9l2-3.3l15.2,15.2c1.3,1.3,2.5,2.5,3.8,3.8c0.3,0.3,0.7,0.6,1,0.9l0.8,1.1l1.7,2.1c2.2,2.8,4.4,5.7,6.5,8.7
			c-2.9-2.1-5.8-4.3-8.7-6.5l-2.1-1.7l-1.1-0.8c-0.3-0.3-0.6-0.6-0.9-1c-1.2-1.3-2.5-2.5-3.8-3.8L57.4,267l-5.5-5.5l7.5,2.2
			l30.4,8.9l-1.9,3.4l-15.2-14.3c-1.3-1.2-2.5-2.4-3.8-3.5c-0.7-0.6-1.2-1.3-1.8-1.9l-1.7-2C63.1,251.4,60.9,248.6,58.8,245.8z"/>
	</g>
	<rect x="0" y="245.2" class="st4" width="49.3" height="49.5"/>
	<path class="st6" d="M0.1,245.4v49.2h9.8l29.4-29.8L9.3,274c0,0,31.1-28.6,30.5-28.6C39.3,245.4,0.1,245.4,0.1,245.4z"/>
	<g>
		<path class="st2" d="M40.4,245.4c-2.1,2.8-4.3,5.6-6.6,8.2l-1.7,2c-0.6,0.7-1.1,1.4-1.8,1.9c-1.3,1.1-2.6,2.4-3.8,3.5l-15.2,14.3
			l-1.9-3.4l30.4-8.9l7.5-2.2l-5.5,5.5l-15.2,15.2c-1.3,1.3-2.5,2.5-3.8,3.8c-0.3,0.3-0.6,0.7-0.9,1l-1.1,0.8l-2.1,1.7
			c-2.8,2.2-5.7,4.4-8.7,6.5c2.1-2.9,4.3-5.8,6.5-8.7l1.7-2.1l0.8-1.1c0.3-0.3,0.6-0.6,1-0.9c1.3-1.2,2.5-2.5,3.8-3.8L39,263.8
			l2,3.3l-30.4,8.9l-8,2.3l6.1-5.7l15.2-14.3c1.3-1.2,2.6-2.4,3.8-3.6c0.6-0.6,1.3-1.1,2-1.6l2.1-1.5
			C34.6,249.4,37.5,247.4,40.4,245.4z"/>
	</g>
	
		<rect x="0" y="97.4" transform="matrix(-1 -4.515511e-11 4.515511e-11 -1 49.3269 244.3869)" class="st5" width="49.3" height="49.6"/>
	<path class="st8" d="M49.9,97.4V147h-9.8l-29.3-30l29.8,9.2c0,0-31-28.8-30.4-28.8S49.9,97.4,49.9,97.4z"/>
	<g>
		<path class="st2" d="M9.8,98c2.9,2,5.8,4,8.6,6l2.1,1.5c0.7,0.5,1.4,1,2,1.6c1.2,1.3,2.5,2.4,3.8,3.6l15.2,14.3l6.1,5.7l-8-2.3
			l-30.4-8.9l2-3.3l15.2,15.2c1.3,1.3,2.5,2.5,3.8,3.8c0.3,0.3,0.7,0.6,1,0.9l0.8,1.1l1.7,2.1c2.2,2.8,4.4,5.7,6.5,8.7
			c-2.9-2.1-5.8-4.3-8.7-6.5l-2.1-1.7l-1.1-0.8c-0.3-0.3-0.6-0.6-0.9-1c-1.2-1.3-2.5-2.5-3.8-3.8L8.3,119.1l-5.5-5.5l7.5,2.2
			l30.4,8.9l-1.9,3.4l-15.2-14.3c-1.3-1.2-2.5-2.4-3.8-3.5c-0.7-0.6-1.2-1.3-1.8-1.9l-1.7-2C14.1,103.5,11.9,100.8,9.8,98z"/>
	</g>
	<rect x="49.6" y="97.4" class="st4" width="49.3" height="49.5"/>
	<path class="st6" d="M49.7,97.6v49.2h9.8l29.4-29.8L59,126.2c0,0,31.1-28.6,30.5-28.6S49.7,97.6,49.7,97.6z"/>
	<g>
		<path class="st2" d="M90.1,97.6c-2.1,2.8-4.3,5.6-6.6,8.2l-1.7,2c-0.6,0.7-1.1,1.4-1.8,1.9c-1.3,1.1-2.6,2.4-3.8,3.5L61,127.7
			l-1.9-3.4l30.4-8.9l7.5-2.2l-5.5,5.5L76.3,134c-1.3,1.3-2.5,2.5-3.8,3.8c-0.3,0.3-0.6,0.7-0.9,1l-1.1,0.8l-2.1,1.7
			c-2.8,2.2-5.7,4.4-8.7,6.5c2.1-2.9,4.3-5.8,6.5-8.7l1.7-2.1l0.8-1.1c0.3-0.3,0.6-0.6,1-0.9c1.3-1.2,2.5-2.5,3.8-3.8l15.2-15.2
			l2,3.3l-30.4,8.9l-8,2.3l6.1-5.7l15.2-14.3c1.3-1.2,2.6-2.4,3.8-3.6c0.6-0.6,1.3-1.1,2-1.6l2.1-1.5
			C84.2,101.6,87.1,99.6,90.1,97.6z"/>
	</g>
	
		<rect x="49" y="146.8" transform="matrix(-1 -4.517332e-11 4.517332e-11 -1 147.4072 343.2481)" class="st5" width="49.3" height="49.6"/>
	<path class="st8" d="M98.9,146.8v49.6h-9.8l-29.3-30l29.8,9.2c0,0-31-28.8-30.4-28.8S98.9,146.8,98.9,146.8z"/>
	<g>
		<path class="st2" d="M58.8,147.4c2.9,2,5.8,4,8.6,6l2.1,1.5c0.7,0.5,1.4,1,2,1.6c1.2,1.3,2.5,2.4,3.8,3.6l15.2,14.3l6.1,5.7
			l-8-2.3l-30.4-8.9l2-3.3L75.4,181c1.3,1.3,2.5,2.5,3.8,3.8c0.3,0.3,0.7,0.6,1,0.9l0.8,1.1l1.7,2.1c2.2,2.8,4.4,5.7,6.5,8.7
			c-2.9-2.1-5.8-4.3-8.7-6.5l-2.1-1.7l-1.1-0.8c-0.3-0.3-0.6-0.6-0.9-1c-1.2-1.3-2.5-2.5-3.8-3.8l-15.2-15.2l-5.5-5.5l7.5,2.2
			l30.4,8.9l-1.9,3.4l-15.2-14.3c-1.3-1.2-2.5-2.4-3.8-3.5c-0.7-0.6-1.2-1.3-1.8-1.9l-1.7-2C63.1,153,60.9,150.2,58.8,147.4z"/>
	</g>
	<rect x="0" y="146.8" class="st4" width="49.3" height="49.5"/>
	<path class="st6" d="M0.1,147v49.2h9.8l29.4-29.8l-29.9,9.2c0,0,31.1-28.6,30.5-28.6C39.3,147,0.1,147,0.1,147z"/>
	<g>
		<path class="st2" d="M40.4,147.1c-2.1,2.8-4.3,5.6-6.6,8.2l-1.7,2c-0.6,0.7-1.1,1.4-1.8,1.9c-1.3,1.1-2.6,2.4-3.8,3.5l-15.2,14.3
			l-1.9-3.4l30.4-8.9l7.5-2.2l-5.5,5.5l-15.2,15.2c-1.3,1.3-2.5,2.5-3.8,3.8c-0.3,0.3-0.6,0.7-0.9,1l-1.1,0.8l-2.1,1.7
			c-2.8,2.2-5.7,4.4-8.7,6.5c2.1-2.9,4.3-5.8,6.5-8.7l1.7-2.1l0.8-1.1c0.3-0.3,0.6-0.6,1-0.9c1.3-1.2,2.5-2.5,3.8-3.8L39,165.4
			l2,3.3l-30.4,8.9l-8,2.3l6.1-5.7l15.2-14.3c1.3-1.2,2.6-2.4,3.8-3.6c0.6-0.6,1.3-1.1,2-1.6l2.1-1.5C34.6,151,37.5,149,40.4,147.1z
			"/>
	</g>
	<rect x="0" y="0" transform="matrix(-1 -4.513646e-11 4.513646e-11 -1 49.3269 49.6211)" class="st5" width="49.3" height="49.6"/>
	<path class="st8" d="M49.9,0v49.6h-9.8l-29.3-30l29.8,9.2c0,0-31-28.8-30.4-28.8C10.9,0,49.9,0,49.9,0z"/>
	<g>
		<path class="st2" d="M9.8,0.6c2.9,2,5.8,4,8.6,6l2.1,1.5c0.7,0.5,1.4,1,2,1.6c1.2,1.3,2.5,2.4,3.8,3.6l15.2,14.3l6.1,5.7l-8-2.3
			L9.2,22.3l2-3.3l15.2,15.2c1.3,1.3,2.5,2.5,3.8,3.8c0.3,0.3,0.7,0.6,1,0.9l0.8,1.1l1.7,2.1c2.2,2.8,4.4,5.7,6.5,8.7
			c-2.9-2.1-5.8-4.3-8.7-6.5l-2.1-1.7l-1.1-0.8c-0.3-0.3-0.6-0.6-0.9-1c-1.2-1.3-2.5-2.5-3.8-3.8L8.3,21.8l-5.5-5.5l7.5,2.2
			l30.4,8.9l-1.9,3.4L23.6,16.4c-1.3-1.2-2.5-2.4-3.8-3.5c-0.7-0.6-1.2-1.3-1.8-1.9l-1.7-2C14.1,6.2,11.9,3.4,9.8,0.6z"/>
	</g>
	<rect x="49.6" y="0" class="st4" width="49.3" height="49.5"/>
	<path class="st6" d="M49.7,0.2v49.2h9.8l29.4-29.8L59,28.8c0,0,31.1-28.6,30.5-28.6S49.7,0.2,49.7,0.2z"/>
	<g>
		<path class="st2" d="M90.1,0.2c-2.1,2.8-4.3,5.6-6.6,8.2l-1.7,2c-0.6,0.7-1.1,1.4-1.8,1.9c-1.3,1.1-2.6,2.4-3.8,3.5L61,30.3
			l-1.9-3.4l30.4-8.9l7.5-2.2l-5.5,5.5L76.3,36.6c-1.3,1.3-2.5,2.5-3.8,3.8c-0.3,0.3-0.6,0.7-0.9,1l-1.1,0.8l-2.1,1.7
			c-2.8,2.2-5.7,4.4-8.7,6.5c2.1-2.9,4.3-5.8,6.5-8.7l1.7-2.1l0.8-1.1c0.3-0.3,0.6-0.6,1-0.9c1.3-1.2,2.5-2.5,3.8-3.8l15.2-15.2
			l2,3.3l-30.4,8.9l-8,2.3l6.1-5.7l15.2-14.3c1.3-1.2,2.6-2.4,3.8-3.6c0.6-0.6,1.3-1.1,2-1.6l2.1-1.5C84.2,4.2,87.1,2.2,90.1,0.2z"
			/>
	</g>
	
		<rect x="49" y="49.4" transform="matrix(-1 -4.515511e-11 4.515511e-11 -1 147.4072 148.4823)" class="st5" width="49.3" height="49.6"/>
	<path class="st8" d="M98.9,49.4v49.6h-9.8L59.9,69l29.8,9.2c0,0-31-28.8-30.4-28.8S98.9,49.4,98.9,49.4z"/>
	<g>
		<path class="st2" d="M58.8,50c2.9,2,5.8,4,8.6,6l2.1,1.5c0.7,0.5,1.4,1,2,1.6c1.2,1.3,2.5,2.4,3.8,3.6l15.2,14.3l6.1,5.7l-8-2.3
			l-30.4-8.9l2-3.3l15.2,15.2c1.3,1.3,2.5,2.5,3.8,3.8c0.3,0.3,0.7,0.6,1,0.9l0.8,1.1l1.7,2.1c2.2,2.8,4.4,5.7,6.5,8.7
			c-2.9-2.1-5.8-4.3-8.7-6.5L78.4,92l-1.1-0.8c-0.3-0.3-0.6-0.6-0.9-1c-1.2-1.3-2.5-2.5-3.8-3.8L57.4,71.2l-5.5-5.5l7.5,2.2
			l30.4,8.9l-1.9,3.4L72.6,65.8c-1.3-1.2-2.5-2.4-3.8-3.5c-0.7-0.6-1.2-1.3-1.8-1.9l-1.7-2C63.1,55.6,60.9,52.8,58.8,50z"/>
	</g>
	<rect x="0" y="49.4" class="st4" width="49.3" height="49.5"/>
	<path class="st6" d="M0.1,49.7v49.2h9.8l29.4-29.8L9.3,78.3c0,0,31.1-28.6,30.5-28.6C39.3,49.7,0.1,49.7,0.1,49.7z"/>
	<g>
		<path class="st2" d="M40.4,49.7c-2.1,2.8-4.3,5.6-6.6,8.2l-1.7,2c-0.6,0.7-1.1,1.4-1.8,1.9c-1.3,1.1-2.6,2.4-3.8,3.5L11.4,79.7
			l-1.9-3.4l30.4-8.9l7.5-2.2l-5.5,5.5L26.7,86c-1.3,1.3-2.5,2.5-3.8,3.8c-0.3,0.3-0.6,0.7-0.9,1l-1.1,0.8l-2.1,1.7
			c-2.8,2.2-5.7,4.4-8.7,6.5c2.1-2.9,4.3-5.8,6.5-8.7l1.7-2.1l0.8-1.1c0.3-0.3,0.6-0.6,1-0.9c1.3-1.2,2.5-2.5,3.8-3.8L39,68l2,3.3
			l-30.4,8.9l-8,2.3l6.1-5.7l15.2-14.3c1.3-1.2,2.6-2.4,3.8-3.6c0.6-0.6,1.3-1.1,2-1.6l2.1-1.5C34.6,53.6,37.5,51.6,40.4,49.7z"/>
	</g>
	
		<rect x="0" y="294.6" transform="matrix(-1 -4.519197e-11 4.519197e-11 -1 49.3269 638.8624)" class="st5" width="49.3" height="49.6"/>
	<path class="st8" d="M49.9,294.6v49.6h-9.8l-29.3-30l29.8,9.2c0,0-31-28.8-30.4-28.8S49.9,294.6,49.9,294.6z"/>
	<g>
		<path class="st2" d="M9.8,295.2c2.9,2,5.8,4,8.6,6l2.1,1.5c0.7,0.5,1.4,1,2,1.6c1.2,1.3,2.5,2.4,3.8,3.6l15.2,14.3l6.1,5.7l-8-2.3
			l-30.4-8.9l2-3.3l15.2,15.2c1.3,1.3,2.5,2.5,3.8,3.8c0.3,0.3,0.7,0.6,1,0.9l0.8,1.1l1.7,2.1c2.2,2.8,4.4,5.7,6.5,8.7
			c-2.9-2.1-5.8-4.3-8.7-6.5l-2.1-1.7l-1.1-0.8c-0.3-0.3-0.6-0.6-0.9-1c-1.2-1.3-2.5-2.5-3.8-3.8L8.3,316.4l-5.5-5.5l7.5,2.2
			l30.4,8.9l-1.9,3.4L23.6,311c-1.3-1.2-2.5-2.4-3.8-3.5c-0.7-0.6-1.2-1.3-1.8-1.9l-1.7-2C14.1,300.8,11.9,298,9.8,295.2z"/>
	</g>
	<rect x="49.6" y="294.6" class="st4" width="49.3" height="49.5"/>
	<path class="st6" d="M49.7,294.9v49.2h9.8l29.4-29.8L59,323.5c0,0,31.1-28.6,30.5-28.6S49.7,294.9,49.7,294.9z"/>
	<g>
		<path class="st2" d="M90.1,294.9c-2.1,2.8-4.3,5.6-6.6,8.2l-1.7,2c-0.6,0.7-1.1,1.4-1.8,1.9c-1.3,1.1-2.6,2.4-3.8,3.5L61,324.9
			l-1.9-3.4l30.4-8.9l7.5-2.2l-5.5,5.5l-15.2,15.2c-1.3,1.3-2.5,2.5-3.8,3.8c-0.3,0.3-0.6,0.7-0.9,1l-1.1,0.8l-2.1,1.7
			c-2.8,2.2-5.7,4.4-8.7,6.5c2.1-2.9,4.3-5.8,6.5-8.7l1.7-2.1l0.8-1.1c0.3-0.3,0.6-0.6,1-0.9c1.3-1.2,2.5-2.5,3.8-3.8l15.2-15.2
			l2,3.3l-30.4,8.9l-8,2.3l6.1-5.7l15.2-14.3c1.3-1.2,2.6-2.4,3.8-3.6c0.6-0.6,1.3-1.1,2-1.6l2.1-1.5
			C84.2,298.8,87.1,296.8,90.1,294.9z"/>
	</g>
	
		<rect x="49" y="344.1" transform="matrix(-1 -4.513646e-11 4.513646e-11 -1 147.4072 737.7236)" class="st5" width="49.3" height="49.6"/>
	<path class="st8" d="M98.9,344.1v49.6h-9.8l-29.3-30l29.8,9.2c0,0-31-28.8-30.4-28.8S98.9,344.1,98.9,344.1z"/>
	<g>
		<path class="st2" d="M58.8,344.7c2.9,2,5.8,4,8.6,6l2.1,1.5c0.7,0.5,1.4,1,2,1.6c1.2,1.3,2.5,2.4,3.8,3.6l15.2,14.3l6.1,5.7
			l-8-2.3l-30.4-8.9l2-3.3l15.2,15.2c1.3,1.3,2.5,2.5,3.8,3.8c0.3,0.3,0.7,0.6,1,0.9L81,384l1.7,2.1c2.2,2.8,4.4,5.7,6.5,8.7
			c-2.9-2.1-5.8-4.3-8.7-6.5l-2.1-1.7l-1.1-0.8c-0.3-0.3-0.6-0.6-0.9-1c-1.2-1.3-2.5-2.5-3.8-3.8l-15.2-15.2l-5.5-5.5l7.5,2.2
			l30.4,8.9l-1.9,3.4l-15.2-14.3c-1.3-1.2-2.5-2.4-3.8-3.5c-0.7-0.6-1.2-1.3-1.8-1.9l-1.7-2C63.1,350.2,60.9,347.5,58.8,344.7z"/>
	</g>
	<rect x="0" y="344.1" class="st4" width="49.3" height="49.5"/>
	<path class="st6" d="M0.1,344.3v49.2h9.8l29.4-29.8l-29.9,9.2c0,0,31.1-28.6,30.5-28.6C39.3,344.3,0.1,344.3,0.1,344.3z"/>
	<g>
		<path class="st2" d="M40.4,344.3c-2.1,2.8-4.3,5.6-6.6,8.2l-1.7,2c-0.6,0.7-1.1,1.4-1.8,1.9c-1.3,1.1-2.6,2.4-3.8,3.5l-15.2,14.3
			L9.5,371l30.4-8.9l7.5-2.2l-5.5,5.5l-15.2,15.2c-1.3,1.3-2.5,2.5-3.8,3.8c-0.3,0.3-0.6,0.7-0.9,1l-1.1,0.8l-2.1,1.7
			c-2.8,2.2-5.7,4.4-8.7,6.5c2.1-2.9,4.3-5.8,6.5-8.7l1.7-2.1l0.8-1.1c0.3-0.3,0.6-0.6,1-0.9c1.3-1.2,2.5-2.5,3.8-3.8L39,362.6
			l2,3.3l-30.4,8.9l-8,2.3l6.1-5.7l15.2-14.3c1.3-1.2,2.6-2.4,3.8-3.6c0.6-0.6,1.3-1.1,2-1.6l2.1-1.5
			C34.6,348.3,37.5,346.3,40.4,344.3z"/>
	</g>
	
		<rect x="0" y="392.2" transform="matrix(-1 -4.517332e-11 4.517332e-11 -1 49.3269 834.082)" class="st5" width="49.3" height="49.6"/>
	<path class="st8" d="M49.9,392.2v49.6h-9.8l-29.3-30l29.8,9.2c0,0-31-28.8-30.4-28.8S49.9,392.2,49.9,392.2z"/>
	<g>
		<path class="st2" d="M9.8,392.8c2.9,2,5.8,4,8.6,6l2.1,1.5c0.7,0.5,1.4,1,2,1.6c1.2,1.3,2.5,2.4,3.8,3.6L41.5,420l6.1,5.7l-8-2.3
			l-30.4-8.9l2-3.3l15.2,15.2c1.3,1.3,2.5,2.5,3.8,3.8c0.3,0.3,0.7,0.6,1,0.9l0.8,1.1l1.7,2.1c2.2,2.8,4.4,5.7,6.5,8.7
			c-2.9-2.1-5.8-4.3-8.7-6.5l-2.1-1.7l-1.1-0.8c-0.3-0.3-0.6-0.6-0.9-1c-1.2-1.3-2.5-2.5-3.8-3.8L8.3,414l-5.5-5.5l7.5,2.2l30.4,8.9
			l-1.9,3.4l-15.2-14.3c-1.3-1.2-2.5-2.4-3.8-3.5c-0.7-0.6-1.2-1.3-1.8-1.9l-1.7-2C14.1,398.4,11.9,395.6,9.8,392.8z"/>
	</g>
	<rect x="49.6" y="392.2" class="st4" width="49.3" height="49.5"/>
	<path class="st6" d="M49.7,392.5v49.2h9.8l29.4-29.8L59,421.1c0,0,31.1-28.6,30.5-28.6S49.7,392.5,49.7,392.5z"/>
	<g>
		<path class="st2" d="M90.1,392.5c-2.1,2.8-4.3,5.6-6.6,8.2l-1.7,2c-0.6,0.7-1.1,1.4-1.8,1.9c-1.3,1.1-2.6,2.4-3.8,3.5L61,422.5
			l-1.9-3.4l30.4-8.9l7.5-2.2l-5.5,5.5l-15.2,15.2c-1.3,1.3-2.5,2.5-3.8,3.8c-0.3,0.3-0.6,0.7-0.9,1l-1.1,0.8l-2.1,1.7
			c-2.8,2.2-5.7,4.4-8.7,6.5c2.1-2.9,4.3-5.8,6.5-8.7l1.7-2.1l0.8-1.1c0.3-0.3,0.6-0.6,1-0.9c1.3-1.2,2.5-2.5,3.8-3.8l15.2-15.2
			l2,3.3L60.2,423l-8,2.3l6.1-5.7l15.2-14.3c1.3-1.2,2.6-2.4,3.8-3.6c0.6-0.6,1.3-1.1,2-1.6l2.1-1.5
			C84.2,396.4,87.1,394.4,90.1,392.5z"/>
	</g>
	
		<rect x="49" y="441.7" transform="matrix(-1 -4.517332e-11 4.517332e-11 -1 147.4072 932.9432)" class="st5" width="49.3" height="49.6"/>
	<path class="st8" d="M98.9,441.7v49.6h-9.8l-29.3-30l29.8,9.2c0,0-31-28.8-30.4-28.8S98.9,441.7,98.9,441.7z"/>
	<g>
		<path class="st2" d="M58.8,442.3c2.9,2,5.8,4,8.6,6l2.1,1.5c0.7,0.5,1.4,1,2,1.6c1.2,1.3,2.5,2.4,3.8,3.6l15.2,14.3l6.1,5.7
			l-8-2.3l-30.4-8.9l2-3.3l15.2,15.2c1.3,1.3,2.5,2.5,3.8,3.8c0.3,0.3,0.7,0.6,1,0.9l0.8,1.1l1.7,2.1c2.2,2.8,4.4,5.7,6.5,8.7
			c-2.9-2.1-5.8-4.3-8.7-6.5l-2.1-1.7l-1.1-0.8c-0.3-0.3-0.6-0.6-0.9-1c-1.2-1.3-2.5-2.5-3.8-3.8l-15.2-15.2l-5.5-5.5l7.5,2.2
			l30.4,8.9l-1.9,3.4L72.6,458c-1.3-1.2-2.5-2.4-3.8-3.5c-0.7-0.6-1.2-1.3-1.8-1.9l-1.7-2C63.1,447.8,60.9,445.1,58.8,442.3z"/>
	</g>
	<rect x="0" y="441.7" class="st4" width="49.3" height="49.5"/>
	<path class="st6" d="M0.1,441.9v49.2h9.8l29.4-29.8l-29.9,9.2c0,0,31.1-28.6,30.5-28.6C39.3,441.9,0.1,441.9,0.1,441.9z"/>
	<g>
		<path class="st2" d="M40.4,441.9c-2.1,2.8-4.3,5.6-6.6,8.2l-1.7,2c-0.6,0.7-1.1,1.4-1.8,1.9c-1.3,1.1-2.6,2.4-3.8,3.5L11.4,472
			l-1.9-3.4l30.4-8.9l7.5-2.2l-5.5,5.5l-15.2,15.2c-1.3,1.3-2.5,2.5-3.8,3.8c-0.3,0.3-0.6,0.7-0.9,1l-1.1,0.8l-2.1,1.7
			c-2.8,2.2-5.7,4.4-8.7,6.5c2.1-2.9,4.3-5.8,6.5-8.7l1.7-2.1l0.8-1.1c0.3-0.3,0.6-0.6,1-0.9c1.3-1.2,2.5-2.5,3.8-3.8L39,460.2
			l2,3.3l-30.4,8.9l-8,2.3l6.1-5.7l15.2-14.3c1.3-1.2,2.6-2.4,3.8-3.6c0.6-0.6,1.3-1.1,2-1.6l2.1-1.5
			C34.6,445.9,37.5,443.9,40.4,441.9z"/>
	</g>
	
		<rect x="0" y="491.1" transform="matrix(-1 -4.513646e-11 4.513646e-11 -1 49.3269 1031.8044)" class="st5" width="49.3" height="49.6"/>
	<path class="st8" d="M49.9,491.1v49.6h-9.8l-29.3-30l29.8,9.2c0,0-31-28.8-30.4-28.8S49.9,491.1,49.9,491.1z"/>
	<g>
		<path class="st2" d="M9.8,491.7c2.9,2,5.8,4,8.6,6l2.1,1.5c0.7,0.5,1.4,1,2,1.6c1.2,1.3,2.5,2.4,3.8,3.6l15.2,14.3l6.1,5.7l-8-2.3
			l-30.4-8.9l2-3.3l15.2,15.2c1.3,1.3,2.5,2.5,3.8,3.8c0.3,0.3,0.7,0.6,1,0.9L32,531l1.7,2.1c2.2,2.8,4.4,5.7,6.5,8.7
			c-2.9-2.1-5.8-4.3-8.7-6.5l-2.1-1.7l-1.1-0.8c-0.3-0.3-0.6-0.6-0.9-1c-1.2-1.3-2.5-2.5-3.8-3.8L8.3,512.9l-5.5-5.5l7.5,2.2
			l30.4,8.9l-1.9,3.4l-15.2-14.3c-1.3-1.2-2.5-2.4-3.8-3.5c-0.7-0.6-1.2-1.3-1.8-1.9l-1.7-2C14.1,497.3,11.9,494.5,9.8,491.7z"/>
	</g>
	<rect x="49.6" y="491.1" class="st4" width="49.3" height="49.5"/>
	<path class="st6" d="M49.7,491.3v49.2h9.8l29.4-29.8L59,519.9c0,0,31.1-28.6,30.5-28.6S49.7,491.3,49.7,491.3z"/>
	<g>
		<path class="st2" d="M90.1,491.3c-2.1,2.8-4.3,5.6-6.6,8.2l-1.7,2c-0.6,0.7-1.1,1.4-1.8,1.9c-1.3,1.1-2.6,2.4-3.8,3.5L61,521.4
			l-1.9-3.4l30.4-8.9L97,507l-5.5,5.5l-15.2,15.2c-1.3,1.3-2.5,2.5-3.8,3.8c-0.3,0.3-0.6,0.7-0.9,1l-1.1,0.8l-2.1,1.7
			c-2.8,2.2-5.7,4.4-8.7,6.5c2.1-2.9,4.3-5.8,6.5-8.7l1.7-2.1l0.8-1.1c0.3-0.3,0.6-0.6,1-0.9c1.3-1.2,2.5-2.5,3.8-3.8l15.2-15.2
			l2,3.3l-30.4,8.9l-8,2.3l6.1-5.7l15.2-14.3c1.3-1.2,2.6-2.4,3.8-3.6c0.6-0.6,1.3-1.1,2-1.6l2.1-1.5
			C84.2,495.3,87.1,493.3,90.1,491.3z"/>
	</g>
	
		<rect x="49" y="540.5" transform="matrix(-1 -4.517332e-11 4.517332e-11 -1 147.4072 1130.6656)" class="st5" width="49.3" height="49.6"/>
	<path class="st8" d="M98.9,540.5v49.6h-9.8l-29.3-30l29.8,9.2c0,0-31-28.8-30.4-28.8S98.9,540.5,98.9,540.5z"/>
	<g>
		<path class="st2" d="M58.8,541.1c2.9,2,5.8,4,8.6,6l2.1,1.5c0.7,0.5,1.4,1,2,1.6c1.2,1.3,2.5,2.4,3.8,3.6l15.2,14.3l6.1,5.7
			l-8-2.3l-30.4-8.9l2-3.3l15.2,15.2c1.3,1.3,2.5,2.5,3.8,3.8c0.3,0.3,0.7,0.6,1,0.9l0.8,1.1l1.7,2.1c2.2,2.8,4.4,5.7,6.5,8.7
			c-2.9-2.1-5.8-4.3-8.7-6.5l-2.1-1.7l-1.1-0.8c-0.3-0.3-0.6-0.6-0.9-1c-1.2-1.3-2.5-2.5-3.8-3.8l-15.2-15.2l-5.5-5.5l7.5,2.2
			l30.4,8.9l-1.9,3.4l-15.2-14.3c-1.3-1.2-2.5-2.4-3.8-3.5c-0.7-0.6-1.2-1.3-1.8-1.9l-1.7-2C63.1,546.7,60.9,543.9,58.8,541.1z"/>
	</g>
	<rect x="0" y="540.5" class="st4" width="49.3" height="49.5"/>
	<path class="st6" d="M0.1,540.8V590h9.8l29.4-29.8l-29.9,9.2c0,0,31.1-28.6,30.5-28.6C39.3,540.8,0.1,540.8,0.1,540.8z"/>
	<g>
		<path class="st2" d="M40.4,540.8c-2.1,2.8-4.3,5.6-6.6,8.2l-1.7,2c-0.6,0.7-1.1,1.4-1.8,1.9c-1.3,1.1-2.6,2.4-3.8,3.5l-15.2,14.3
			l-1.9-3.4l30.4-8.9l7.5-2.2l-5.5,5.5l-15.2,15.2c-1.3,1.3-2.5,2.5-3.8,3.8c-0.3,0.3-0.6,0.7-0.9,1l-1.1,0.8l-2.1,1.7
			c-2.8,2.2-5.7,4.4-8.7,6.5c2.1-2.9,4.3-5.8,6.5-8.7l1.7-2.1l0.8-1.1c0.3-0.3,0.6-0.6,1-0.9c1.3-1.2,2.5-2.5,3.8-3.8L39,559.1
			l2,3.3l-30.4,8.9l-8,2.3l6.1-5.7l15.2-14.3c1.3-1.2,2.6-2.4,3.8-3.6c0.6-0.6,1.3-1.1,2-1.6l2.1-1.5
			C34.6,544.7,37.5,542.7,40.4,540.8z"/>
	</g>
	
		<rect x="0" y="590" transform="matrix(-1 -4.517332e-11 4.517332e-11 -1 49.3269 1229.5269)" class="st5" width="49.3" height="49.6"/>
	<path class="st8" d="M49.9,590v49.6h-9.8l-29.3-30l29.8,9.2c0,0-31-28.8-30.4-28.8S49.9,590,49.9,590z"/>
	<g>
		<path class="st2" d="M9.8,590.6c2.9,2,5.8,4,8.6,6l2.1,1.5c0.7,0.5,1.4,1,2,1.6c1.2,1.3,2.5,2.4,3.8,3.6l15.2,14.3l6.1,5.7l-8-2.3
			l-30.4-8.9l2-3.3l15.2,15.2c1.3,1.3,2.5,2.5,3.8,3.8c0.3,0.3,0.7,0.6,1,0.9l0.8,1.1l1.7,2.1c2.2,2.8,4.4,5.7,6.5,8.7
			c-2.9-2.1-5.8-4.3-8.7-6.5l-2.1-1.7l-1.1-0.8c-0.3-0.3-0.6-0.6-0.9-1c-1.2-1.3-2.5-2.5-3.8-3.8L8.3,611.7l-5.5-5.5l7.5,2.2
			l30.4,8.9l-1.9,3.4l-15.2-14.3c-1.3-1.2-2.5-2.4-3.8-3.5c-0.7-0.6-1.2-1.3-1.8-1.9l-1.7-2C14.1,596.1,11.9,593.4,9.8,590.6z"/>
	</g>
	<rect x="49.6" y="590" class="st4" width="49.3" height="49.5"/>
	<path class="st6" d="M49.7,590.2v49.2h9.8l29.4-29.8L59,618.8c0,0,31.1-28.6,30.5-28.6S49.7,590.2,49.7,590.2z"/>
	<g>
		<path class="st2" d="M90.1,590.2c-2.1,2.8-4.3,5.6-6.6,8.2l-1.7,2c-0.6,0.7-1.1,1.4-1.8,1.9c-1.3,1.1-2.6,2.4-3.8,3.5L61,620.2
			l-1.9-3.4l30.4-8.9l7.5-2.2l-5.5,5.5l-15.2,15.2c-1.3,1.3-2.5,2.5-3.8,3.8c-0.3,0.3-0.6,0.7-0.9,1l-1.1,0.8l-2.1,1.7
			c-2.8,2.2-5.7,4.4-8.7,6.5c2.1-2.9,4.3-5.8,6.5-8.7l1.7-2.1l0.8-1.1c0.3-0.3,0.6-0.6,1-0.9c1.3-1.2,2.5-2.5,3.8-3.8l15.2-15.2
			l2,3.3l-30.4,8.9l-8,2.3l6.1-5.7L73.5,603c1.3-1.2,2.6-2.4,3.8-3.6c0.6-0.6,1.3-1.1,2-1.6l2.1-1.5
			C84.2,594.2,87.1,592.2,90.1,590.2z"/>
	</g>
	
		<rect x="49" y="639.4" transform="matrix(-1 -4.509960e-11 4.509960e-11 -1 147.4072 1328.3881)" class="st5" width="49.3" height="49.6"/>
	<path class="st8" d="M98.9,639.4V689h-9.8l-29.3-30l29.8,9.2c0,0-31-28.8-30.4-28.8S98.9,639.4,98.9,639.4z"/>
	<g>
		<path class="st2" d="M58.8,640c2.9,2,5.8,4,8.6,6l2.1,1.5c0.7,0.5,1.4,1,2,1.6c1.2,1.3,2.5,2.4,3.8,3.6l15.2,14.3l6.1,5.7l-8-2.3
			l-30.4-8.9l2-3.3l15.2,15.2c1.3,1.3,2.5,2.5,3.8,3.8c0.3,0.3,0.7,0.6,1,0.9l0.8,1.1l1.7,2.1c2.2,2.8,4.4,5.7,6.5,8.7
			c-2.9-2.1-5.8-4.3-8.7-6.5l-2.1-1.7l-1.1-0.8c-0.3-0.3-0.6-0.6-0.9-1c-1.2-1.3-2.5-2.5-3.8-3.8l-15.2-15.2l-5.5-5.5l7.5,2.2
			l30.4,8.9l-1.9,3.4l-15.2-14.3c-1.3-1.2-2.5-2.4-3.8-3.5c-0.7-0.6-1.2-1.3-1.8-1.9l-1.7-2C63.1,645.5,60.9,642.8,58.8,640z"/>
	</g>
	<rect x="0" y="639.4" class="st4" width="49.3" height="49.5"/>
	<path class="st6" d="M0.1,639.6v49.2h9.8l29.4-29.8l-29.9,9.2c0,0,31.1-28.6,30.5-28.6C39.3,639.6,0.1,639.6,0.1,639.6z"/>
	<g>
		<path class="st2" d="M40.4,639.6c-2.1,2.8-4.3,5.6-6.6,8.2l-1.7,2c-0.6,0.7-1.1,1.4-1.8,1.9c-1.3,1.1-2.6,2.4-3.8,3.5l-15.2,14.3
			l-1.9-3.4l30.4-8.9l7.5-2.2l-5.5,5.5L26.7,676c-1.3,1.3-2.5,2.5-3.8,3.8c-0.3,0.3-0.6,0.7-0.9,1l-1.1,0.8l-2.1,1.7
			c-2.8,2.2-5.7,4.4-8.7,6.5c2.1-2.9,4.3-5.8,6.5-8.7l1.7-2.1l0.8-1.1c0.3-0.3,0.6-0.6,1-0.9c1.3-1.2,2.5-2.5,3.8-3.8L39,657.9
			l2,3.3l-30.4,8.9l-8,2.3l6.1-5.7l15.2-14.3c1.3-1.2,2.6-2.4,3.8-3.6c0.6-0.6,1.3-1.1,2-1.6l2.1-1.5
			C34.6,643.6,37.5,641.6,40.4,639.6z"/>
	</g>
	
		<rect x="0" y="688.8" transform="matrix(-1 -4.513646e-11 4.513646e-11 -1 49.3269 1427.2493)" class="st5" width="49.3" height="49.6"/>
	<path class="st8" d="M49.9,688.8v49.6h-9.8l-29.3-30l29.8,9.2c0,0-31-28.8-30.4-28.8S49.9,688.8,49.9,688.8z"/>
	<g>
		<path class="st2" d="M9.8,689.4c2.9,2,5.8,4,8.6,6l2.1,1.5c0.7,0.5,1.4,1,2,1.6c1.2,1.3,2.5,2.4,3.8,3.6l15.2,14.3l6.1,5.7l-8-2.3
			l-30.4-8.9l2-3.3L26.4,723c1.3,1.3,2.5,2.5,3.8,3.8c0.3,0.3,0.7,0.6,1,0.9l0.8,1.1l1.7,2.1c2.2,2.8,4.4,5.7,6.5,8.7
			c-2.9-2.1-5.8-4.3-8.7-6.5l-2.1-1.7l-1.1-0.8c-0.3-0.3-0.6-0.6-0.9-1c-1.2-1.3-2.5-2.5-3.8-3.8L8.3,710.6l-5.5-5.5l7.5,2.2
			l30.4,8.9l-1.9,3.4l-15.2-14.3c-1.3-1.2-2.5-2.4-3.8-3.5c-0.7-0.6-1.2-1.3-1.8-1.9l-1.7-2C14.1,695,11.9,692.2,9.8,689.4z"/>
	</g>
	<rect x="49.6" y="688.8" class="st4" width="49.3" height="49.5"/>
	<path class="st6" d="M49.7,689v49.2h9.8l29.4-29.8L59,717.7c0,0,31.1-28.6,30.5-28.6S49.7,689,49.7,689z"/>
	<g>
		<path class="st2" d="M90.1,689.1c-2.1,2.8-4.3,5.6-6.6,8.2l-1.7,2c-0.6,0.7-1.1,1.4-1.8,1.9c-1.3,1.1-2.6,2.4-3.8,3.5L61,719.1
			l-1.9-3.4l30.4-8.9l7.5-2.2l-5.5,5.5l-15.2,15.2c-1.3,1.3-2.5,2.5-3.8,3.8c-0.3,0.3-0.6,0.7-0.9,1l-1.1,0.8l-2.1,1.7
			c-2.8,2.2-5.7,4.4-8.7,6.5c2.1-2.9,4.3-5.8,6.5-8.7l1.7-2.1l0.8-1.1c0.3-0.3,0.6-0.6,1-0.9c1.3-1.2,2.5-2.5,3.8-3.8l15.2-15.2
			l2,3.3l-30.4,8.9l-8,2.3l6.1-5.7l15.2-14.3c1.3-1.2,2.6-2.4,3.8-3.6c0.6-0.6,1.3-1.1,2-1.6l2.1-1.5C84.2,693,87.1,691,90.1,689.1z
			"/>
	</g>
	
		<rect x="49" y="738.2" transform="matrix(-1 -4.513646e-11 4.513646e-11 -1 147.4072 1526.1105)" class="st5" width="49.3" height="49.6"/>
	<path class="st8" d="M98.9,738.2v49.6h-9.8l-29.3-30l29.8,9.2c0,0-31-28.8-30.4-28.8S98.9,738.2,98.9,738.2z"/>
	<g>
		<path class="st2" d="M58.8,738.9c2.9,2,5.8,4,8.6,6l2.1,1.5c0.7,0.5,1.4,1,2,1.6c1.2,1.3,2.5,2.4,3.8,3.6L90.6,766l6.1,5.7l-8-2.3
			l-30.4-8.9l2-3.3l15.2,15.2c1.3,1.3,2.5,2.5,3.8,3.8c0.3,0.3,0.7,0.6,1,0.9l0.8,1.1l1.7,2.1c2.2,2.8,4.4,5.7,6.5,8.7
			c-2.9-2.1-5.8-4.3-8.7-6.5l-2.1-1.7l-1.1-0.8c-0.3-0.3-0.6-0.6-0.9-1c-1.2-1.3-2.5-2.5-3.8-3.8L57.4,760l-5.5-5.5l7.5,2.2
			l30.4,8.9l-1.9,3.4l-15.2-14.3c-1.3-1.2-2.5-2.4-3.8-3.5c-0.7-0.6-1.2-1.3-1.8-1.9l-1.7-2C63.1,744.4,60.9,741.7,58.8,738.9z"/>
	</g>
	<rect x="0" y="738.2" class="st4" width="49.3" height="49.5"/>
	<path class="st6" d="M0.1,738.5v49.2h9.8l29.4-29.8l-29.9,9.2c0,0,31.1-28.6,30.5-28.6C39.3,738.5,0.1,738.5,0.1,738.5z"/>
	<g>
		<path class="st2" d="M40.4,738.5c-2.1,2.8-4.3,5.6-6.6,8.2l-1.7,2c-0.6,0.7-1.1,1.4-1.8,1.9c-1.3,1.1-2.6,2.4-3.8,3.5l-15.2,14.3
			l-1.9-3.4l30.4-8.9l7.5-2.2l-5.5,5.5l-15.2,15.2c-1.3,1.3-2.5,2.5-3.8,3.8c-0.3,0.3-0.6,0.7-0.9,1l-1.1,0.8l-2.1,1.7
			c-2.8,2.2-5.7,4.4-8.7,6.5c2.1-2.9,4.3-5.8,6.5-8.7l1.7-2.1l0.8-1.1c0.3-0.3,0.6-0.6,1-0.9c1.3-1.2,2.5-2.5,3.8-3.8L39,756.8
			l2,3.3L10.6,769l-8,2.3l6.1-5.7l15.2-14.3c1.3-1.2,2.6-2.4,3.8-3.6c0.6-0.6,1.3-1.1,2-1.6l2.1-1.5
			C34.6,742.5,37.5,740.4,40.4,738.5z"/>
	</g>
</g>
<g id="Capa_8" class="st0">
	<g class="st1">
		<rect x="-0.5" y="-0.5" class="st11" width="162.5" height="250"/>
		<polygon class="st14" points="236.5,-0.5 86.5,-0.5 161.5,249.5 		"/>
		<g>
			<path class="st12" d="M150.1,249.6c-3.9-10.2-7.5-20.5-11-30.8c-1.8-5.1-3.5-10.3-5.2-15.5c-1.7-5.2-3.4-10.3-5.1-15.5l-5-15.5
				l-4.8-15.6c-3.3-10.4-6.3-20.8-9.2-31.3C104,104.5,99,83.3,93,62.4C87,41.5,80.4,20.7,73.4,0.1l4.2,0
				c-2.8,10.5-5.5,21.1-8.4,31.5c-2.9,10.5-5.8,21-8.8,31.4c-6,20.9-11.9,41.8-18.3,62.6c-3.2,10.4-6.4,20.8-9.8,31.1l-5,15.5
				l-5.1,15.5c-6.9,20.7-13.8,41.3-21.4,61.7l-0.8-0.2c4.9-21.2,10.5-42.3,16.1-63.3l4.3-15.7l4.4-15.7c2.9-10.5,5.9-20.9,9-31.4
				c6.1-20.9,12.7-41.6,19.2-62.4c3.3-10.4,6.5-20.7,9.9-31.1c3.4-10.3,6.9-20.6,10.4-31l2.3-7l1.8,7c5.5,21,11.4,42,17.9,62.8
				c6.5,20.8,14,41.2,20.7,61.9c3.4,10.3,6.6,20.7,9.6,31.2l4.5,15.7l4.4,15.7c1.5,5.2,2.9,10.5,4.3,15.7c1.4,5.2,2.8,10.5,4.2,15.8
				c2.7,10.5,5.3,21.1,7.7,31.7L150.1,249.6z"/>
		</g>
		<rect x="-161.5" y="245.5" class="st11" width="162.5" height="250"/>
		<rect x="1.5" y="245.5" class="st11" width="162.5" height="250"/>
		<polygon class="st14" points="75.5,245.5 -74.5,245.5 0.5,495.5 		"/>
		<g>
			<path class="st12" d="M13.3,495.5c2.4-10.6,5-21.2,7.7-31.8c1.3-5.3,2.7-10.5,4.1-15.8c1.4-5.3,2.8-10.5,4.3-15.7l4.4-15.7
				l4.5-15.7c3-10.5,6.2-20.9,9.5-31.2c6.7-20.7,14.2-41.2,20.6-61.9c6.5-20.8,12.3-41.7,17.8-62.8l1.8-7l2.4,7
				c3.5,10.3,7,20.6,10.4,30.9c3.4,10.3,6.7,20.7,10,31.1c6.6,20.7,13.1,41.5,19.3,62.3c3.1,10.4,6.1,20.9,9,31.4l4.4,15.7l4.3,15.7
				c5.7,21,11.2,42.1,16.2,63.3l-0.8,0.2c-7.6-20.4-14.6-41-21.5-61.7l-5.1-15.5l-5-15.5c-3.3-10.4-6.6-20.7-9.8-31.1
				c-6.4-20.8-12.4-41.7-18.4-62.6c-3-10.5-6-20.9-8.9-31.4c-2.9-10.5-5.6-21-8.4-31.5l4.2,0c-6.9,20.6-13.6,41.4-19.5,62.3
				c-6,20.9-11,42.1-16.7,63.1c-2.9,10.5-5.9,20.9-9.1,31.3l-4.8,15.6l-5,15.5c-1.6,5.2-3.4,10.3-5.1,15.5
				c-1.7,5.2-3.4,10.3-5.2,15.5c-3.5,10.3-7.1,20.6-11,30.8L13.3,495.5z"/>
		</g>
		<rect x="-0.5" y="495.5" class="st11" width="162.5" height="250"/>
		<polygon class="st14" points="236.5,495.5 86.5,495.5 161.5,745.5 		"/>
		<g>
			<path class="st12" d="M150.1,745.6c-3.9-10.2-7.5-20.5-11-30.8c-1.8-5.1-3.5-10.3-5.2-15.5c-1.7-5.2-3.4-10.3-5.1-15.5l-5-15.5
				l-4.8-15.6c-3.3-10.4-6.3-20.8-9.2-31.3c-5.8-21-10.8-42.2-16.8-63.1c-6-20.9-12.6-41.6-19.6-62.2h4.2
				c-2.8,10.5-5.5,21.1-8.4,31.5c-2.9,10.5-5.8,21-8.8,31.4c-6,20.9-11.9,41.8-18.3,62.6c-3.2,10.4-6.4,20.8-9.8,31.1l-5,15.5
				l-5.1,15.5c-6.9,20.7-13.8,41.3-21.4,61.7l-0.8-0.2c4.9-21.2,10.5-42.3,16.1-63.3l4.3-15.7l4.4-15.7c2.9-10.5,5.9-20.9,9-31.4
				c6.1-20.9,12.7-41.6,19.2-62.4c3.3-10.4,6.5-20.7,9.9-31.1c3.4-10.3,6.9-20.6,10.4-31l2.3-7l1.8,7c5.5,21,11.4,42,17.9,62.8
				c6.5,20.8,14,41.2,20.7,61.9c3.4,10.3,6.6,20.7,9.6,31.2l4.5,15.7l4.4,15.7c1.5,5.2,2.9,10.5,4.3,15.7c1.4,5.2,2.8,10.5,4.2,15.8
				c2.7,10.5,5.3,21.1,7.7,31.7L150.1,745.6z"/>
		</g>
		<rect x="-161.5" y="741.5" class="st11" width="162.5" height="250"/>
		<rect x="1.5" y="741.5" class="st11" width="162.5" height="250"/>
		<polygon class="st14" points="75.5,741.5 -74.5,741.5 0.5,991.5 		"/>
		<g>
			<path class="st12" d="M13.3,991.5c2.4-10.6,5-21.2,7.7-31.8c1.3-5.3,2.7-10.5,4.1-15.8c1.4-5.3,2.8-10.5,4.3-15.7l4.4-15.7
				l4.5-15.7c3-10.5,6.2-20.9,9.5-31.2c6.7-20.7,14.2-41.2,20.6-61.9c6.5-20.8,12.3-41.7,17.8-62.8l1.8-7l2.4,7
				c3.5,10.3,7,20.6,10.4,30.9c3.4,10.3,6.7,20.7,10,31.1c6.6,20.7,13.1,41.5,19.3,62.3c3.1,10.4,6.1,20.9,9,31.4l4.4,15.7l4.3,15.7
				c5.7,21,11.2,42.1,16.2,63.3l-0.8,0.2c-7.6-20.4-14.6-41-21.5-61.7l-5.1-15.5l-5-15.5c-3.3-10.4-6.6-20.7-9.8-31.1
				c-6.4-20.8-12.4-41.7-18.4-62.6c-3-10.5-6-20.9-8.9-31.4c-2.9-10.5-5.6-21-8.4-31.5l4.2,0c-6.9,20.6-13.6,41.4-19.5,62.3
				c-6,20.9-11,42.1-16.7,63.1c-2.9,10.5-5.9,20.9-9.1,31.3l-4.8,15.6l-5,15.5c-1.6,5.2-3.4,10.3-5.1,15.5
				c-1.7,5.2-3.4,10.3-5.2,15.5c-3.5,10.3-7.1,20.6-11,30.8L13.3,991.5z"/>
		</g>
	</g>
	<rect x="0" y="787.5" transform="matrix(-1 -4.489843e-11 4.489843e-11 -1 162.5 1825)" class="st16" width="162.5" height="250"/>
	<polygon class="st17" points="87.5,1037.5 237.5,1037.5 162.5,787.5 	"/>
	<g class="st1">
		<path class="st11" d="M149.9,787.6c-2.4,10.6-5,21.2-7.7,31.7c-1.4,5.3-2.7,10.5-4.2,15.8c-1.4,5.3-2.8,10.5-4.3,15.7l-4.4,15.7
			l-4.5,15.7c-3,10.5-6.2,20.8-9.6,31.2c-6.7,20.7-14.2,41.1-20.7,61.9c-6.5,20.8-12.4,41.7-17.9,62.8l-1.8,7l-2.3-7
			c-3.4-10.3-7-20.6-10.4-31c-3.4-10.3-6.7-20.7-9.9-31.1c-6.5-20.7-13.1-41.5-19.2-62.4c-3.1-10.4-6.1-20.9-9-31.4l-4.4-15.7
			l-4.3-15.7c-5.6-21-11.2-42.1-16.1-63.3l0.8-0.2c7.6,20.4,14.5,41.1,21.4,61.7l5.1,15.5l5,15.5c3.3,10.4,6.6,20.7,9.8,31.1
			c6.4,20.8,12.3,41.7,18.3,62.6c3,10.5,6,20.9,8.8,31.4c2.9,10.5,5.6,21,8.4,31.5h-4.2c7-20.6,13.6-41.3,19.6-62.2
			c6-20.9,11-42.1,16.8-63.1c2.9-10.5,5.9-20.9,9.2-31.3l4.8-15.6l5-15.5c1.6-5.2,3.4-10.3,5.1-15.5c1.7-5.2,3.4-10.3,5.2-15.5
			c3.5-10.3,7.2-20.6,11-30.8L149.9,787.6z"/>
	</g>
</g>
<g id="Capa_10" class="st0">
	<rect x="0.4" y="-0.5" class="st15" width="62.1" height="86.8"/>
	<rect x="62.6" y="-0.5" class="st16" width="62.1" height="86.8"/>
	<polygon class="st18" points="89.1,-0.5 36.1,-0.5 62.6,86.3 	"/>
	<g class="st1">
		<path class="st12" d="M58.5,86.4c-2.9-7-5.5-14.1-7.9-21.3l-1.8-5.4l-1.7-5.4c-1.2-3.6-2.2-7.2-3.2-10.9c-2-7.3-3.6-14.7-5.7-22
			C36.1,14.1,33.7,7,31.1-0.2l2.1,0c-0.9,3.7-1.8,7.3-2.8,11c-1,3.7-2,7.3-3.1,10.9C25.3,29,23.2,36.3,21,43.5
			c-2.3,7.2-4.6,14.4-7.2,21.5c-2.5,7.1-5.1,14.3-7.9,21.3l-0.4-0.1c1.6-7.4,3.4-14.8,5.3-22.1c1.9-7.3,4-14.6,6.1-21.9
			c2.2-7.2,4.5-14.4,6.9-21.6c1.2-3.6,2.3-7.2,3.6-10.8c1.2-3.6,2.5-7.1,3.8-10.7l1.2-3.4l0.9,3.4c1.9,7.3,3.8,14.6,6.2,21.8
			c2.3,7.2,5.2,14.2,7.6,21.4c1.2,3.6,2.4,7.2,3.4,10.8l1.6,5.4l1.5,5.5c2,7.3,3.9,14.6,5.3,22.1L58.5,86.4z"/>
	</g>
	<g class="st1">
		<path class="st11" d="M67.1,86.3c1.5-7.5,3.3-14.8,5.3-22.1l1.5-5.5l1.6-5.4c1-3.6,2.2-7.2,3.4-10.8c2.4-7.2,5.3-14.2,7.6-21.4
			c2.3-7.2,4.3-14.5,6.2-21.8l0.9-3.4l1.2,3.4c1.3,3.6,2.6,7.1,3.8,10.7c1.2,3.6,2.4,7.2,3.6,10.8c2.4,7.2,4.7,14.4,6.9,21.6
			c2.1,7.3,4.2,14.5,6.1,21.9c1.9,7.3,3.7,14.7,5.3,22.1l-0.4,0.1c-2.8-7-5.5-14.1-8-21.3c-2.5-7.1-4.9-14.3-7.2-21.5
			c-2.3-7.2-4.3-14.5-6.4-21.8c-1-3.6-2.1-7.3-3.1-10.9c-1-3.7-1.9-7.3-2.8-11l2.1,0c-2.5,7.1-5,14.3-7,21.6
			c-2.1,7.3-3.7,14.7-5.6,22c-1,3.7-2,7.3-3.2,10.9l-1.7,5.4l-1.8,5.4c-2.4,7.2-5,14.3-7.9,21.3L67.1,86.3z"/>
	</g>
	<polygon class="st18" points="125,-0.3 97.9,-0.3 124.5,86.5 	"/>
	<polygon class="st18" points="0.4,-0.3 27.5,-0.3 1,86.5 	"/>
	
		<rect x="63.6" y="86.5" transform="matrix(-1 -4.488999e-11 4.488999e-11 -1 189.3234 259.8335)" class="st15" width="62.1" height="86.8"/>
	
		<rect x="1.5" y="86.5" transform="matrix(-1 -4.490465e-11 4.490465e-11 -1 64.9683 259.8335)" class="st16" width="62.1" height="86.8"/>
	<polygon class="st18" points="37,173.3 90,173.3 63.5,86.5 	"/>
	<g class="st1">
		<path class="st12" d="M67.6,86.5c2.9,7,5.5,14.1,7.9,21.3l1.8,5.4l1.7,5.4c1.2,3.6,2.2,7.2,3.2,10.9c2,7.3,3.6,14.7,5.7,22
			c2.1,7.3,4.5,14.4,7.1,21.6h-2.1c0.9-3.7,1.8-7.3,2.8-11c1-3.7,2-7.3,3.1-10.9c2.1-7.3,4.1-14.6,6.4-21.8
			c2.3-7.2,4.6-14.4,7.2-21.5c2.5-7.1,5.1-14.3,7.9-21.3l0.4,0.1c-1.6,7.4-3.4,14.8-5.3,22.1c-1.9,7.3-4,14.6-6.1,21.9
			c-2.2,7.2-4.5,14.4-6.9,21.6c-1.2,3.6-2.3,7.2-3.6,10.8c-1.2,3.6-2.5,7.1-3.8,10.7l-1.2,3.4l-0.9-3.4c-1.9-7.3-3.8-14.6-6.2-21.8
			c-2.3-7.2-5.2-14.2-7.6-21.4c-1.2-3.6-2.4-7.2-3.4-10.8l-1.6-5.4l-1.5-5.5c-2-7.3-3.9-14.6-5.3-22.1L67.6,86.5z"/>
	</g>
	<g class="st1">
		<path class="st11" d="M59,86.5c-1.5,7.5-3.3,14.8-5.3,22.1l-1.5,5.5l-1.6,5.4c-1,3.6-2.2,7.2-3.4,10.8c-2.4,7.2-5.3,14.2-7.6,21.4
			c-2.3,7.2-4.3,14.5-6.2,21.8l-0.9,3.4l-1.2-3.4c-1.3-3.6-2.6-7.1-3.8-10.7c-1.2-3.6-2.4-7.2-3.6-10.8c-2.4-7.2-4.7-14.4-6.9-21.6
			c-2.1-7.3-4.2-14.5-6.1-21.9C9,101.4,7.2,94,5.6,86.6L6,86.5c2.8,7,5.5,14.1,8,21.3c2.5,7.1,4.9,14.3,7.2,21.5
			c2.3,7.2,4.3,14.5,6.4,21.8c1,3.6,2.1,7.3,3.1,10.9c1,3.7,1.9,7.3,2.8,11l-2.1,0c2.5-7.1,5-14.3,7-21.6c2.1-7.3,3.7-14.7,5.6-22
			c1-3.7,2-7.3,3.2-10.9l1.7-5.4l1.8-5.4c2.4-7.2,5-14.3,7.9-21.3L59,86.5z"/>
	</g>
	<polygon class="st18" points="0.4,173.1 27.5,173.1 0.9,86.3 	"/>
	<rect x="0.4" y="173.2" class="st15" width="62.1" height="86.8"/>
	<rect x="62.6" y="173.2" class="st16" width="62.1" height="86.8"/>
	<polygon class="st18" points="89.1,173.2 36.1,173.2 62.6,260 	"/>
	<g class="st1">
		<path class="st12" d="M58.3,260.1c-3.7-6.8-6.6-13.8-9.2-20.9c-1.3-3.5-2.6-7.1-3.7-10.7c-1.2-3.6-2.2-7.2-3.1-10.9
			c-1.7-7.4-2.7-15-4.7-22.3c-1-3.7-2.1-7.3-3.4-10.8c-1.2-3.6-2.7-7.1-4.1-10.6l4.2,0c-0.8,3.7-1.5,7.5-2.3,11.1
			c-0.8,3.7-1.8,7.4-2.8,11c-1.9,7.3-3.8,14.6-6.2,21.8c-2.3,7.2-4.9,14.3-7.7,21.4c-2.8,7-5.7,14.1-9.3,20.9l-0.8-0.2
			c0.9-7.6,2.4-15.1,4-22.5c1.6-7.4,3.5-14.8,5.6-22c2.1-7.3,4.6-14.4,7.1-21.6c1.3-3.6,2.5-7.2,3.9-10.7c1.3-3.5,2.9-7,4.3-10.6
			l2.8-6.8l1.4,6.8c0.8,3.7,1.5,7.4,2.5,11.1c1,3.7,2,7.3,3.3,10.9c2.4,7.2,5.9,14,8.6,21.1c1.4,3.5,2.5,7.1,3.5,10.8
			c1,3.6,2,7.3,2.9,11c1.8,7.4,3.3,14.8,4,22.5L58.3,260.1z"/>
	</g>
	<g class="st1">
		<path class="st11" d="M66.9,259.9c0.7-7.7,2.3-15.1,4-22.5c0.9-3.7,1.8-7.3,2.9-11c1-3.6,2.2-7.2,3.5-10.8
			c2.7-7.1,6.1-13.9,8.6-21.1c1.2-3.6,2.3-7.2,3.2-10.9c1-3.7,1.7-7.4,2.5-11.1l1.4-6.8l2.8,6.8c1.4,3.5,3,7,4.3,10.5
			c1.4,3.5,2.6,7.1,3.9,10.7c2.5,7.1,5,14.3,7.1,21.5c2.1,7.3,4,14.6,5.6,22c1.6,7.4,3.1,14.9,4,22.5l-0.8,0.2
			c-3.5-6.8-6.5-13.8-9.3-20.9c-2.8-7-5.4-14.2-7.7-21.4c-2.3-7.2-4.3-14.5-6.2-21.8c-1-3.7-2-7.3-2.8-11c-0.9-3.7-1.6-7.4-2.4-11.1
			l4.2,0c-1.4,3.5-2.9,7-4.1,10.6c-1.2,3.6-2.4,7.2-3.4,10.8c-2,7.3-2.9,14.9-4.6,22.3c-0.9,3.7-1.9,7.3-3.1,10.9
			c-1.2,3.6-2.4,7.2-3.7,10.7c-2.7,7.1-5.5,14.1-9.2,20.9L66.9,259.9z"/>
	</g>
	<polygon class="st18" points="125,173.4 97.9,173.4 124.5,260.2 	"/>
	<polygon class="st18" points="0.4,173.4 27.5,173.4 1,260.2 	"/>
	
		<rect x="63.6" y="260.2" transform="matrix(-1 -4.490465e-11 4.490465e-11 -1 189.3234 607.194)" class="st15" width="62.1" height="86.8"/>
	
		<rect x="1.5" y="260.2" transform="matrix(-1 -4.488999e-11 4.488999e-11 -1 64.9683 607.194)" class="st16" width="62.1" height="86.8"/>
	<polygon class="st18" points="37,347 90,347 63.5,260.2 	"/>
	<g class="st1">
		<path class="st12" d="M67.8,260.1c3.7,6.8,6.6,13.8,9.2,20.9c1.3,3.5,2.6,7.1,3.7,10.7c1.2,3.6,2.2,7.2,3.1,10.9
			c1.7,7.4,2.7,15,4.7,22.3c1,3.7,2.1,7.3,3.4,10.8c1.2,3.6,2.7,7.1,4.1,10.6h-4.2c0.8-3.7,1.5-7.5,2.3-11.1c0.8-3.7,1.8-7.4,2.8-11
			c1.9-7.3,3.8-14.6,6.2-21.8c2.3-7.2,4.9-14.3,7.7-21.4c2.8-7,5.7-14.1,9.3-20.9l0.8,0.2c-0.9,7.6-2.4,15.1-4,22.5
			c-1.6,7.4-3.5,14.8-5.6,22c-2.1,7.3-4.6,14.4-7.1,21.6c-1.3,3.6-2.5,7.2-3.9,10.7c-1.3,3.5-2.9,7-4.3,10.6l-2.8,6.8l-1.4-6.8
			c-0.8-3.7-1.5-7.4-2.5-11.1c-1-3.7-2-7.3-3.3-10.9c-2.4-7.2-5.9-14-8.6-21.1c-1.4-3.5-2.5-7.1-3.5-10.8c-1-3.6-2-7.3-2.9-11
			c-1.8-7.4-3.3-14.8-4-22.5L67.8,260.1z"/>
	</g>
	<g class="st1">
		<path class="st11" d="M59.2,260.3c-0.7,7.7-2.3,15.1-4,22.5c-0.9,3.7-1.8,7.3-2.9,11c-1,3.6-2.2,7.2-3.5,10.8
			c-2.7,7.1-6.1,13.9-8.6,21.1c-1.2,3.6-2.3,7.2-3.2,10.9c-1,3.7-1.7,7.4-2.5,11.1l-1.4,6.8l-2.8-6.8c-1.4-3.5-3-7-4.3-10.5
			c-1.4-3.5-2.6-7.1-3.9-10.7c-2.5-7.1-5-14.3-7.1-21.5c-2.1-7.3-4-14.6-5.6-22c-1.6-7.4-3.1-14.9-4-22.5l0.8-0.2
			c3.5,6.8,6.5,13.8,9.3,20.9c2.8,7,5.4,14.2,7.7,21.4c2.3,7.2,4.3,14.5,6.2,21.8c1,3.7,2,7.3,2.8,11c0.9,3.7,1.6,7.4,2.4,11.1
			l-4.2,0c1.4-3.5,2.9-7,4.1-10.6c1.2-3.6,2.4-7.2,3.4-10.8c2-7.3,2.9-14.9,4.6-22.3c0.9-3.7,1.9-7.3,3.1-10.9
			c1.2-3.6,2.4-7.2,3.7-10.7c2.7-7.1,5.5-14.1,9.2-20.9L59.2,260.3z"/>
	</g>
	<polygon class="st18" points="0.4,346.8 27.5,346.8 0.9,260 	"/>
	<rect x="0.4" y="346.5" class="st15" width="62.1" height="86.8"/>
	<rect x="62.6" y="346.5" class="st16" width="62.1" height="86.8"/>
	<polygon class="st18" points="89.1,346.5 36.1,346.5 62.6,433.3 	"/>
	<g class="st1">
		<path class="st12" d="M58.3,433.4c-3.7-6.8-6.6-13.8-9.2-20.9c-1.3-3.5-2.6-7.1-3.7-10.7c-1.2-3.6-2.2-7.2-3.1-10.9
			c-1.7-7.4-2.7-15-4.7-22.3c-1-3.7-2.1-7.3-3.4-10.8c-1.2-3.6-2.7-7.1-4.1-10.6h4.2c-0.8,3.7-1.5,7.5-2.3,11.1
			c-0.8,3.7-1.8,7.4-2.8,11c-1.9,7.3-3.8,14.6-6.2,21.8c-2.3,7.2-4.9,14.3-7.7,21.4c-2.8,7-5.7,14.1-9.3,20.9l-0.8-0.2
			c0.9-7.6,2.4-15.1,4-22.5c1.6-7.4,3.5-14.8,5.6-22c2.1-7.3,4.6-14.4,7.1-21.6c1.3-3.6,2.5-7.2,3.9-10.7c1.3-3.5,2.9-7,4.3-10.6
			l2.8-6.8l1.4,6.8c0.8,3.7,1.5,7.4,2.5,11.1c1,3.7,2,7.3,3.3,10.9c2.4,7.2,5.9,14,8.6,21.1c1.4,3.5,2.5,7.1,3.5,10.8
			c1,3.6,2,7.3,2.9,11c1.8,7.4,3.3,14.8,4,22.5L58.3,433.4z"/>
	</g>
	<g class="st1">
		<path class="st11" d="M66.9,433.2c0.7-7.7,2.3-15.1,4-22.5c0.9-3.7,1.8-7.3,2.9-11c1-3.6,2.2-7.2,3.5-10.8
			c2.7-7.1,6.1-13.9,8.6-21.1c1.2-3.6,2.3-7.2,3.2-10.9c1-3.7,1.7-7.4,2.5-11.1L93,339l2.8,6.8c1.4,3.5,3,7,4.3,10.5
			c1.4,3.5,2.6,7.1,3.9,10.7c2.5,7.1,5,14.3,7.1,21.5c2.1,7.3,4,14.6,5.6,22c1.6,7.4,3.1,14.9,4,22.5l-0.8,0.2
			c-3.5-6.8-6.5-13.8-9.3-20.9c-2.8-7-5.4-14.2-7.7-21.4c-2.3-7.2-4.3-14.5-6.2-21.8c-1-3.7-2-7.3-2.8-11c-0.9-3.7-1.6-7.4-2.4-11.1
			l4.2,0c-1.4,3.5-2.9,7-4.1,10.6c-1.2,3.6-2.4,7.2-3.4,10.8c-2,7.3-2.9,14.9-4.6,22.3c-0.9,3.7-1.9,7.3-3.1,10.9
			c-1.2,3.6-2.4,7.2-3.7,10.7c-2.7,7.1-5.5,14.1-9.2,20.9L66.9,433.2z"/>
	</g>
	<polygon class="st18" points="125,346.7 97.9,346.7 124.5,433.5 	"/>
	<polygon class="st18" points="0.4,346.7 27.5,346.7 1,433.5 	"/>
	
		<rect x="63.6" y="433.5" transform="matrix(-1 -4.487534e-11 4.487534e-11 -1 189.3234 953.8335)" class="st15" width="62.1" height="86.8"/>
	
		<rect x="1.5" y="433.5" transform="matrix(-1 -4.490465e-11 4.490465e-11 -1 64.9683 953.8335)" class="st16" width="62.1" height="86.8"/>
	<polygon class="st18" points="37,520.3 90,520.3 63.5,433.5 	"/>
	<g class="st1">
		<path class="st12" d="M67.8,433.4c3.7,6.8,6.6,13.8,9.2,20.9c1.3,3.5,2.6,7.1,3.7,10.7c1.2,3.6,2.2,7.2,3.1,10.9
			c1.7,7.4,2.7,15,4.7,22.3c1,3.7,2.1,7.3,3.4,10.8c1.2,3.6,2.7,7.1,4.1,10.6h-4.2c0.8-3.7,1.5-7.5,2.3-11.1c0.8-3.7,1.8-7.4,2.8-11
			c1.9-7.3,3.8-14.6,6.2-21.8c2.3-7.2,4.9-14.3,7.7-21.4c2.8-7,5.7-14.1,9.3-20.9l0.8,0.2c-0.9,7.6-2.4,15.1-4,22.5
			c-1.6,7.4-3.5,14.8-5.6,22c-2.1,7.3-4.6,14.4-7.1,21.6c-1.3,3.6-2.5,7.2-3.9,10.7c-1.3,3.5-2.9,7-4.3,10.6l-2.8,6.8l-1.4-6.8
			c-0.8-3.7-1.5-7.4-2.5-11.1c-1-3.7-2-7.3-3.3-10.9c-2.4-7.2-5.9-14-8.6-21.1c-1.4-3.5-2.5-7.1-3.5-10.8c-1-3.6-2-7.3-2.9-11
			c-1.8-7.4-3.3-14.8-4-22.5L67.8,433.4z"/>
	</g>
	<g class="st1">
		<path class="st11" d="M59.2,433.6c-0.7,7.7-2.3,15.1-4,22.5c-0.9,3.7-1.8,7.3-2.9,11c-1,3.6-2.2,7.2-3.5,10.8
			c-2.7,7.1-6.1,13.9-8.6,21.1c-1.2,3.6-2.3,7.2-3.2,10.9c-1,3.7-1.7,7.4-2.5,11.1l-1.4,6.8l-2.8-6.8c-1.4-3.5-3-7-4.3-10.5
			c-1.4-3.5-2.6-7.1-3.9-10.7c-2.5-7.1-5-14.3-7.1-21.5c-2.1-7.3-4-14.6-5.6-22c-1.6-7.4-3.1-14.9-4-22.5l0.8-0.2
			c3.5,6.8,6.5,13.8,9.3,20.9c2.8,7,5.4,14.2,7.7,21.4c2.3,7.2,4.3,14.5,6.2,21.8c1,3.7,2,7.3,2.8,11c0.9,3.7,1.6,7.4,2.4,11.1
			l-4.2,0c1.4-3.5,2.9-7,4.1-10.6c1.2-3.6,2.4-7.2,3.4-10.8c2-7.3,2.9-14.9,4.6-22.3c0.9-3.7,1.9-7.3,3.1-10.9
			c1.2-3.6,2.4-7.2,3.7-10.7c2.7-7.1,5.5-14.1,9.2-20.9L59.2,433.6z"/>
	</g>
	<polygon class="st18" points="0.4,520.1 27.5,520.1 0.9,433.3 	"/>
	<rect x="0.4" y="520.2" class="st15" width="62.1" height="86.8"/>
	<rect x="62.6" y="520.2" class="st16" width="62.1" height="86.8"/>
	<polygon class="st18" points="89.1,520.2 36.1,520.2 62.6,607 	"/>
	<g class="st1">
		<path class="st12" d="M58.3,607.1c-3.7-6.8-6.6-13.8-9.2-20.9c-1.3-3.5-2.6-7.1-3.7-10.7c-1.2-3.6-2.2-7.2-3.1-10.9
			c-1.7-7.4-2.7-15-4.7-22.3c-1-3.7-2.1-7.3-3.4-10.8c-1.2-3.6-2.7-7.1-4.1-10.6h4.2c-0.8,3.7-1.5,7.5-2.3,11.1
			c-0.8,3.7-1.8,7.4-2.8,11c-1.9,7.3-3.8,14.6-6.2,21.8c-2.3,7.2-4.9,14.3-7.7,21.4c-2.8,7-5.7,14.1-9.3,20.9l-0.8-0.2
			c0.9-7.6,2.4-15.1,4-22.5c1.6-7.4,3.5-14.8,5.6-22c2.1-7.3,4.6-14.4,7.1-21.6c1.3-3.6,2.5-7.2,3.9-10.7c1.3-3.5,2.9-7,4.3-10.6
			l2.8-6.8l1.4,6.8c0.8,3.7,1.5,7.4,2.5,11.1c1,3.7,2,7.3,3.3,10.9c2.4,7.2,5.9,14,8.6,21.1c1.4,3.5,2.5,7.1,3.5,10.8
			c1,3.6,2,7.3,2.9,11c1.8,7.4,3.3,14.8,4,22.5L58.3,607.1z"/>
	</g>
	<g class="st1">
		<path class="st11" d="M66.9,606.9c0.7-7.7,2.3-15.1,4-22.5c0.9-3.7,1.8-7.3,2.9-11c1-3.6,2.2-7.2,3.5-10.8
			c2.7-7.1,6.1-13.9,8.6-21.1c1.2-3.6,2.3-7.2,3.2-10.9c1-3.7,1.7-7.4,2.5-11.1l1.4-6.8l2.8,6.8c1.4,3.5,3,7,4.3,10.5
			c1.4,3.5,2.6,7.1,3.9,10.7c2.5,7.1,5,14.3,7.1,21.5c2.1,7.3,4,14.6,5.6,22c1.6,7.4,3.1,14.9,4,22.5l-0.8,0.2
			c-3.5-6.8-6.5-13.8-9.3-20.9c-2.8-7-5.4-14.2-7.7-21.4c-2.3-7.2-4.3-14.5-6.2-21.8c-1-3.7-2-7.3-2.8-11c-0.9-3.7-1.6-7.4-2.4-11.1
			l4.2,0c-1.4,3.5-2.9,7-4.1,10.6c-1.2,3.6-2.4,7.2-3.4,10.8c-2,7.3-2.9,14.9-4.6,22.3c-0.9,3.7-1.9,7.3-3.1,10.9
			c-1.2,3.6-2.4,7.2-3.7,10.7c-2.7,7.1-5.5,14.1-9.2,20.9L66.9,606.9z"/>
	</g>
	<polygon class="st18" points="125,520.4 97.9,520.4 124.5,607.2 	"/>
	<polygon class="st18" points="0.4,520.4 27.5,520.4 1,607.2 	"/>
	
		<rect x="63.6" y="607.2" transform="matrix(-1 -4.490465e-11 4.490465e-11 -1 189.3234 1301.194)" class="st15" width="62.1" height="86.8"/>
	
		<rect x="1.5" y="607.2" transform="matrix(-1 -4.490465e-11 4.490465e-11 -1 64.9683 1301.194)" class="st16" width="62.1" height="86.8"/>
	<polygon class="st18" points="37,694 90,694 63.5,607.2 	"/>
	<g class="st1">
		<path class="st12" d="M67.8,607.1c3.7,6.8,6.6,13.8,9.2,20.9c1.3,3.5,2.6,7.1,3.7,10.7c1.2,3.6,2.2,7.2,3.1,10.9
			c1.7,7.4,2.7,15,4.7,22.3c1,3.7,2.1,7.3,3.4,10.8c1.2,3.6,2.7,7.1,4.1,10.6h-4.2c0.8-3.7,1.5-7.5,2.3-11.1c0.8-3.7,1.8-7.4,2.8-11
			c1.9-7.3,3.8-14.6,6.2-21.8c2.3-7.2,4.9-14.3,7.7-21.4c2.8-7,5.7-14.1,9.3-20.9l0.8,0.2c-0.9,7.6-2.4,15.1-4,22.5
			c-1.6,7.4-3.5,14.8-5.6,22c-2.1,7.3-4.6,14.4-7.1,21.6c-1.3,3.6-2.5,7.2-3.9,10.7c-1.3,3.5-2.9,7-4.3,10.6l-2.8,6.8l-1.4-6.8
			c-0.8-3.7-1.5-7.4-2.5-11.1c-1-3.7-2-7.3-3.3-10.9c-2.4-7.2-5.9-14-8.6-21.1c-1.4-3.5-2.5-7.1-3.5-10.8c-1-3.6-2-7.3-2.9-11
			c-1.8-7.4-3.3-14.8-4-22.5L67.8,607.1z"/>
	</g>
	<g class="st1">
		<path class="st11" d="M59.2,607.3c-0.7,7.7-2.3,15.1-4,22.5c-0.9,3.7-1.8,7.3-2.9,11c-1,3.6-2.2,7.2-3.5,10.8
			c-2.7,7.1-6.1,13.9-8.6,21.1c-1.2,3.6-2.3,7.2-3.2,10.9c-1,3.7-1.7,7.4-2.5,11.1l-1.4,6.8l-2.8-6.8c-1.4-3.5-3-7-4.3-10.5
			c-1.4-3.5-2.6-7.1-3.9-10.7c-2.5-7.1-5-14.3-7.1-21.5c-2.1-7.3-4-14.6-5.6-22c-1.6-7.4-3.1-14.9-4-22.5l0.8-0.2
			c3.5,6.8,6.5,13.8,9.3,20.9c2.8,7,5.4,14.2,7.7,21.4c2.3,7.2,4.3,14.5,6.2,21.8c1,3.7,2,7.3,2.8,11c0.9,3.7,1.6,7.4,2.4,11.1
			l-4.2,0c1.4-3.5,2.9-7,4.1-10.6c1.2-3.6,2.4-7.2,3.4-10.8c2-7.3,2.9-14.9,4.6-22.3c0.9-3.7,1.9-7.3,3.1-10.9
			c1.2-3.6,2.4-7.2,3.7-10.7c2.7-7.1,5.5-14.1,9.2-20.9L59.2,607.3z"/>
	</g>
	<polygon class="st18" points="0.4,693.8 27.5,693.8 0.9,607 	"/>
</g>
<g id="Capa_11" class="st0">
	<polygon class="st15" points="-511.8,696.2 99,399.5 -511.8,399.5 	"/>
	<polygon class="st18" points="-511.8,103.8 99,400.5 -511.8,400.5 	"/>
</g>
<g id="Capa_2" class="st0">
</g>
<g id="Capa_3" class="st0">
</g>
<g id="Capa_4" class="st0">
</g>
<g id="Capa_5" class="st0">
</g>
<g id="Capa_12" class="st0">
</g>
</svg>
