<?xml version="1.0" encoding="utf-8"?>
<!-- Generator: Adobe Illustrator 22.0.0, SVG Export Plug-In . SVG Version: 6.00 Build 0)  -->
<svg version="1.1" xmlns="http://www.w3.org/2000/svg" xmlns:xlink="http://www.w3.org/1999/xlink" x="0px" y="0px"
	 viewBox="0 0 1220.4 591.9" style="enable-background:new 0 0 1220.4 591.9;" xml:space="preserve">
<style type="text/css">
	.st0{display:none;}
	.st1{display:inline;}
	.st2{fill:#FFFFFF;}
	.st3{display:inline;fill:#FFDC71;}
	.st4{display:inline;fill:#F33600;}
	.st5{display:inline;fill:#EAA500;}
	.st6{display:inline;fill:#B60300;}
	.st7{display:inline;fill:none;stroke:#FFFFFF;stroke-width:8;stroke-miterlimit:10;}
	.st8{display:inline;fill:#A86000;}
	.st9{fill:#EAA500;}
	.st10{fill:#A86000;}
	.st11{fill:#F33600;}
	.st12{fill:#B60300;}
	.st13{fill:#580000;}
	.st14{fill:#DD2400;}
	.st15{fill:#EA9E00;}
	.st16{fill:#A70500;}
	.st17{fill:#F6921E;}
	.st18{clip-path:url(#SVGID_2_);}
	.st19{clip-path:url(#SVGID_4_);}
</style>
<g id="Capa_1" class="st0">
</g>
<g id="Capa_6" class="st0">
</g>
<g id="Capa_7" class="st0">
</g>
<g id="Capa_11">
	<polygon class="st13" points="610.2,593.2 1221,296.5 610.2,296.5 	"/>
	<polygon class="st16" points="610.2,0.8 1221,297.5 610.2,297.5 	"/>
	<polygon class="st14" points="611.8,593.2 1,296.5 611.8,296.5 	"/>
	<polygon class="st13" points="611.8,0.8 1,297.5 611.8,297.5 	"/>
	<g>
		<g>
			<path class="st2" d="M382,230c0.8,11.1,1,22.2,1.2,33.3c0.1,5.5,0.1,11.1-0.1,16.6l-0.6,16.6c-0.2,5.5-0.2,11.1-0.1,16.6
				c0,2.8,0.1,5.5,0.2,8.3l0.3,8.3c0.2,5.5,0.3,11.1,0.4,16.6l0.2,16.6l-1.6-1.6c5,0,10-0.1,14.9,0c5,0,10,0.1,14.9,0.2l7.5,0.2
				l7.5,0.3c5,0.2,10,0.4,14.9,0.7v0.3c-5,0.3-10,0.5-14.9,0.7l-7.5,0.3l-7.5,0.2c-5,0.1-10,0.2-14.9,0.2c-5,0.1-10,0-14.9,0l-1.6,0
				l0-1.6l0.2-16.6c0.1-5.5,0.2-11.1,0.4-16.6l0.3-8.3c0.1-2.8,0.2-5.5,0.2-8.3c0.1-5.5,0-11.1-0.1-16.6l-0.6-16.6
				c-0.2-5.5-0.2-11.1-0.1-16.6c0.1-11.1,0.4-22.2,1.2-33.3H382z"/>
		</g>
		<g>
			<path class="st2" d="M595.5,230c0.8,11.1,1,22.2,1.2,33.3c0.1,5.5,0.1,11.1-0.1,16.6l-0.6,16.6c-0.2,5.5-0.2,11.1-0.1,16.6
				c0,2.8,0.1,5.5,0.2,8.3l0.3,8.3c0.2,5.5,0.3,11.1,0.4,16.6l0.2,16.6l-1.6-1.6c5,0,10-0.1,14.9,0c5,0,10,0.1,14.9,0.2l7.5,0.2
				l7.5,0.3c5,0.2,10,0.4,14.9,0.7v0.3c-5,0.3-10,0.5-14.9,0.7l-7.5,0.3l-7.5,0.2c-5,0.1-10,0.2-14.9,0.2c-5,0.1-10,0-14.9,0l-1.6,0
				l0-1.6l0.2-16.6c0.1-5.5,0.2-11.1,0.4-16.6l0.3-8.3c0.1-2.8,0.2-5.5,0.2-8.3c0.1-5.5,0-11.1-0.1-16.6l-0.6-16.6
				c-0.2-5.5-0.2-11.1-0.1-16.6c0.1-11.1,0.4-22.2,1.2-33.3H595.5z"/>
		</g>
		<g>
			<path class="st2" d="M397.9,348.7c2-8.5,4.2-17,6.6-25.4c2.4-8.4,4.8-16.8,7.5-25.1l4.2-12.4c1.4-4.1,2.8-8.3,4.1-12.5
				c2.6-8.3,5-16.8,7.2-25.2l0.7-2.6l0.9,2.6c2.8,8.3,5.5,16.6,8.1,25c2.6,8.3,5.2,16.7,7.7,25.1c2.4,8.4,4.9,16.8,7.1,25.2
				c2.3,8.4,4.5,16.9,6.5,25.4l-0.3,0.1c-3-8.2-5.8-16.5-8.5-24.8c-2.7-8.3-5.4-16.6-7.9-25c-2.6-8.4-4.9-16.8-7.4-25.2
				c-2.4-8.4-4.7-16.8-7-25.3h1.6c-2.8,8.3-5.5,16.6-7.9,25c-1.2,4.2-2.3,8.4-3.4,12.7l-3.4,12.7c-2.3,8.4-4.9,16.8-7.6,25.1
				c-2.7,8.3-5.5,16.6-8.5,24.8L397.9,348.7z"/>
		</g>
		<g>
			<path class="st2" d="M521.3,349.1c2-8.5,4.2-17,6.6-25.4c2.4-8.4,4.8-16.8,7.5-25.1l4.2-12.4c1.4-4.1,2.8-8.3,4.1-12.5
				c2.6-8.3,5-16.8,7.2-25.2l0.7-2.6l0.9,2.6c2.8,8.3,5.5,16.6,8.1,25c2.6,8.3,5.2,16.7,7.7,25.1c2.4,8.4,4.9,16.8,7.1,25.2
				c2.3,8.4,4.5,16.9,6.5,25.4l-0.3,0.1c-3-8.2-5.8-16.5-8.5-24.8c-2.7-8.3-5.4-16.6-7.9-25c-2.6-8.4-4.9-16.8-7.4-25.2
				c-2.4-8.4-4.7-16.8-7-25.3h1.6c-2.8,8.3-5.5,16.6-7.9,25c-1.2,4.2-2.3,8.4-3.4,12.7l-3.4,12.7c-2.3,8.4-4.9,16.8-7.6,25.1
				c-2.7,8.3-5.5,16.6-8.5,24.8L521.3,349.1z"/>
		</g>
		<g>
			<path class="st2" d="M498.1,248.2c2.9,4.1,5.7,8.2,8.3,12.4c2.7,4.2,5.3,8.4,7.9,12.7c2.6,4.3,5.1,8.6,7.4,13
				c2.4,4.4,4.7,8.8,7.1,13.2l0.5,0.8l-0.9,0c-3.7-0.1-7.5-0.1-11.2,0c-3.7,0-7.5,0.2-11.2,0.3c-7.5,0.3-14.9,0.5-22.4,0.6l1.2-2.3
				c2.8,4.1,5.6,8.1,8.4,12.2c1.4,2,2.7,4.1,4.1,6.2c1.4,2.1,2.7,4.1,4,6.2c2.7,4.1,5.3,8.3,7.8,12.5c2.6,4.2,5.1,8.4,7.6,12.7
				l-0.2,0.2c-3-3.9-6-7.8-8.9-11.8c-2.9-4-5.8-8-8.6-12c-1.4-2-2.8-4-4.2-6.1c-1.4-2-2.8-4-4.2-6.1c-2.8-4.1-5.4-8.2-8.1-12.3
				l-1.5-2.3l2.7,0c7.5,0.1,14.9,0.3,22.4,0.6c3.7,0.1,7.5,0.3,11.2,0.3c3.7,0.1,7.5,0.1,11.2,0L528,300c-2.6-4.2-5.4-8.4-8.1-12.6
				c-2.8-4.2-5.3-8.4-7.8-12.7c-2.5-4.3-5-8.6-7.3-13c-2.4-4.4-4.7-8.8-6.9-13.3L498.1,248.2z"/>
		</g>
		<g>
			<path class="st2" d="M871.2,248.4c-2.2,4.5-4.5,8.9-6.9,13.3c-2.4,4.4-4.8,8.7-7.3,13c-2.5,4.3-5.1,8.6-7.8,12.7
				c-2.7,4.2-5.5,8.3-8.1,12.6l-0.4-0.8c3.7,0.1,7.5,0.1,11.2,0c3.7,0,7.5-0.2,11.2-0.3c7.5-0.3,14.9-0.5,22.4-0.6l2.7,0l-1.5,2.3
				c-2.7,4.1-5.3,8.3-8.1,12.3c-1.4,2.1-2.8,4.1-4.2,6.1c-1.4,2-2.8,4.1-4.2,6.1c-2.8,4-5.7,8-8.6,12c-2.9,4-5.9,7.9-8.9,11.8
				l-0.2-0.2c2.4-4.3,5-8.5,7.6-12.7c2.6-4.2,5.2-8.4,7.8-12.5c1.3-2.1,2.7-4.1,4-6.2c1.3-2.1,2.7-4.1,4.1-6.2
				c2.7-4.1,5.6-8.1,8.4-12.2l1.2,2.3c-7.5-0.1-14.9-0.3-22.4-0.6c-3.7-0.1-7.5-0.3-11.2-0.3c-3.7-0.1-7.5-0.1-11.2,0l-0.9,0
				l0.5-0.8c2.4-4.3,4.7-8.8,7.1-13.2c2.3-4.4,4.8-8.7,7.4-13c2.6-4.3,5.2-8.5,7.9-12.7c2.7-4.2,5.5-8.3,8.3-12.4L871.2,248.4z"/>
		</g>
		<g>
			<path class="st2" d="M653.9,349.1c2-8.5,4.2-17,6.6-25.4c2.4-8.4,4.8-16.8,7.5-25.1l4.2-12.4c1.4-4.1,2.8-8.3,4.1-12.5
				c2.6-8.3,5-16.8,7.2-25.2l0.7-2.6l0.9,2.6c2.8,8.3,5.5,16.6,8.1,25c2.6,8.3,5.2,16.7,7.7,25.1c2.4,8.4,4.9,16.8,7.1,25.2
				c2.3,8.4,4.5,16.9,6.5,25.4l-0.3,0.1c-3-8.2-5.8-16.5-8.5-24.8c-2.7-8.3-5.4-16.6-7.9-25c-2.6-8.4-4.9-16.8-7.4-25.2
				c-2.4-8.4-4.7-16.8-7-25.3h1.6c-2.8,8.3-5.5,16.6-7.9,25c-1.2,4.2-2.3,8.4-3.4,12.7l-3.4,12.7c-2.3,8.4-4.9,16.8-7.6,25.1
				c-2.7,8.3-5.5,16.6-8.5,24.8L653.9,349.1z"/>
		</g>
		<g>
			<path class="st2" d="M774.5,349.2c-3-8.2-5.8-16.5-8.5-24.8c-2.7-8.3-5.3-16.7-7.6-25.1l-3.4-12.7c-1.1-4.2-2.2-8.5-3.4-12.7
				c-2.4-8.4-5.1-16.7-7.9-25h1.6c-2.2,8.5-4.5,16.9-7,25.3c-2.4,8.4-4.8,16.8-7.4,25.2c-2.6,8.4-5.2,16.7-7.9,25
				c-2.8,8.3-5.5,16.6-8.5,24.8l-0.3-0.1c2-8.5,4.3-17,6.5-25.4c2.3-8.4,4.7-16.8,7.1-25.2c2.5-8.4,5.1-16.7,7.7-25.1
				c2.6-8.3,5.3-16.7,8.1-25l0.9-2.6l0.7,2.6c2.3,8.4,4.6,16.9,7.2,25.2c1.3,4.2,2.7,8.3,4.1,12.5l4.2,12.4
				c2.7,8.3,5.1,16.7,7.5,25.1c2.4,8.4,4.6,16.9,6.6,25.4L774.5,349.2z"/>
		</g>
		<g>
			<path class="st2" d="M654.7,248.8c-3.6,0.3-7.1,0.4-10.7,0.6c-3.6,0.2-7.1,0.3-10.7,0.4c-3.6,0.1-7.1,0.2-10.7,0.2
				c-3.6,0-7.1,0.1-10.7,0l1.3-1.3c-0.2,8.3-0.7,16.7-0.9,25c-0.2,8.3,0,16.7,0.2,25c0.3,8.3,0.5,16.7,0.5,25l0.1,12.5
				c0,4.2,0,8.3-0.1,12.5l-1.6-1.6c7.2,0.1,14.3,0.2,21.5,0.4l10.8,0.4c3.6,0.2,7.2,0.3,10.8,0.6v0.3c-3.6,0.2-7.2,0.4-10.8,0.6
				l-10.8,0.4c-7.2,0.2-14.3,0.4-21.5,0.4l-1.5,0l0-1.6c-0.1-4.2,0-8.3,0-12.5l0.2-12.5c0.1-8.3,0.4-16.7,0.7-25
				c0.3-8.3,0.5-16.7,0.4-25c-0.2-8.3-0.6-16.7-0.7-25l0-1.3l1.3,0c3.6,0,7.1,0,10.7,0c3.6,0,7.1,0.1,10.7,0.2
				c3.6,0.1,7.1,0.2,10.7,0.4c3.6,0.2,7.1,0.3,10.7,0.6V248.8z"/>
		</g>
		<g>
			<path class="st2" d="M867.7,298.9c0,6.6-1.2,13.2-3.6,19.4c-2.4,6.2-6,11.9-10.6,16.8c-4.6,4.9-10.2,8.8-16.5,11.4
				c-6.2,2.6-13,3.9-19.7,3.9c-6.7-0.1-13.4-1.6-19.5-4.3c-6.1-2.7-11.7-6.6-16.3-11.3c-9.3-9.4-15-22.5-15.2-35.9
				c-0.1-6.7,1-13.4,3.5-19.7c2.5-6.3,6.2-12,11-16.8c4.7-4.8,10.5-8.7,16.7-11.3c6.2-2.7,13-4,19.8-4c6.8,0.1,13.6,1.4,19.8,4.1
				c6.2,2.7,11.8,6.6,16.4,11.5c4.6,4.9,8.2,10.6,10.6,16.8C866.4,285.7,867.7,292.3,867.7,298.9z M867.4,298.9
				c0-6.6-1.4-13.1-4.1-19.1c-2.7-6-6.5-11.3-11.2-15.8c-9.4-8.8-22.1-13.9-34.8-13.8c-12.7,0-25.4,5.1-34.5,14.1
				c-4.5,4.5-8.2,9.9-10.8,15.8c-2.5,5.9-4,12.3-4.1,18.8c-0.1,6.5,1,13,3.5,19c2.4,6,6.1,11.6,10.8,16.2
				c9.3,9.2,22.4,14.1,35.2,13.8c6.4-0.1,12.8-1.4,18.7-3.8c5.9-2.4,11.4-5.9,16.1-10.3c4.7-4.4,8.5-9.8,11.2-15.8
				C866,312,867.3,305.5,867.4,298.9z"/>
		</g>
		<g>
			<path class="st2" d="M495.1,248.3c-2,8.5-4.2,17-6.6,25.4c-2.4,8.4-4.8,16.8-7.5,25.1l-4.2,12.4c-1.4,4.1-2.8,8.3-4.1,12.5
				c-2.6,8.3-5,16.8-7.2,25.2l-0.7,2.6L464,349c-2.8-8.3-5.5-16.6-8.1-25c-2.6-8.3-5.2-16.7-7.7-25.1c-2.4-8.4-4.9-16.8-7.1-25.2
				c-2.3-8.4-4.5-16.9-6.5-25.4l0.3-0.1c3,8.2,5.8,16.5,8.5,24.8c2.7,8.3,5.4,16.6,7.9,25c2.6,8.4,4.9,16.8,7.4,25.2
				c2.4,8.4,4.7,16.8,7,25.3H464c2.8-8.3,5.5-16.6,7.9-25c1.2-4.2,2.3-8.4,3.4-12.7l3.4-12.7c2.3-8.4,4.9-16.8,7.6-25.1
				c2.7-8.3,5.5-16.6,8.5-24.8L495.1,248.3z"/>
		</g>
		<g>
			<polygon class="st2" points="611.7,296.8 636.2,298.9 611.6,299.8 			"/>
		</g>
	</g>
</g>
<g id="Capa_2" class="st0">
</g>
<g id="Capa_3" class="st0">
</g>
<g id="Capa_4" class="st0">
</g>
<g id="Capa_5" class="st0">
</g>
<g id="Capa_12" class="st0">
</g>
</svg>
