<?xml version="1.0" encoding="utf-8"?>
<!-- Generator: Adobe Illustrator 22.0.0, SVG Export Plug-In . SVG Version: 6.00 Build 0)  -->
<svg version="1.1" id="Capa_1" xmlns="http://www.w3.org/2000/svg" xmlns:xlink="http://www.w3.org/1999/xlink" x="0px" y="0px"
	 viewBox="0 0 1280 800" style="enable-background:new 0 0 1280 800;" xml:space="preserve">
<style type="text/css">
	.st0{fill:#FFFFFF;}
</style>
<g>
	<g>
		<g>
			<path class="st0" d="M105.4,55c1.3,22.5,1.7,45,1.9,67.6c0.1,11.3,0.1,22.5-0.2,33.8l-1,33.8c-0.3,11.3-0.3,22.5-0.2,33.8
				l0.1,8.4l0.2,8.4l0.4,16.9c0.7,22.5,0.8,45,1.1,67.6l-2.6-2.6c5.1-0.1,10.1,0,15.2-0.1c5.1,0,10.1,0,15.2,0.1
				c10.1,0.1,20.2,0.2,30.3,0.4l15.2,0.3l15.2,0.4c10.1,0.3,20.2,0.7,30.3,1.2v0.5c-10.1,0.5-20.2,0.9-30.3,1.2l-15.2,0.4l-15.2,0.3
				c-10.1,0.2-20.2,0.3-30.3,0.4c-5.1,0.1-10.1,0.1-15.2,0.1c-5.1,0-10.1,0-15.2-0.1l-2.6,0l0-2.6c0.3-22.5,0.3-45,1.1-67.6
				l0.4-16.9l0.2-8.4l0.1-8.4c0.1-11.3,0.1-22.5-0.2-33.8l-1-33.8c-0.3-11.3-0.3-22.5-0.2-33.8c0.2-22.5,0.6-45,1.9-67.6H105.4z"/>
		</g>
		<g>
			<path class="st0" d="M538.9,55c1.3,22.5,1.7,45,1.9,67.6c0.1,11.3,0.1,22.5-0.2,33.8l-1,33.8c-0.3,11.3-0.3,22.5-0.2,33.8
				l0.1,8.4l0.2,8.4l0.4,16.9c0.7,22.5,0.8,45,1.1,67.6l-2.6-2.6c5.1-0.1,10.1,0,15.2-0.1c5.1,0,10.1,0,15.2,0.1
				c10.1,0.1,20.2,0.2,30.3,0.4l15.2,0.3l15.2,0.4c10.1,0.3,20.2,0.7,30.3,1.2v0.5c-10.1,0.5-20.2,0.9-30.3,1.2l-15.2,0.4l-15.2,0.3
				c-10.1,0.2-20.2,0.3-30.3,0.4c-5.1,0.1-10.1,0.1-15.2,0.1c-5.1,0-10.1,0-15.2-0.1l-2.6,0l0-2.6c0.3-22.5,0.3-45,1.1-67.6
				l0.4-16.9l0.2-8.4l0.1-8.4c0.1-11.3,0.1-22.5-0.2-33.8l-1-33.8c-0.3-11.3-0.3-22.5-0.2-33.8c0.2-22.5,0.6-45,1.9-67.6H538.9z"/>
		</g>
		<g>
			<path class="st0" d="M137.8,296.2c4.2-17.3,8.9-34.4,13.7-51.5l3.6-12.8l3.7-12.8c2.5-8.5,5.1-17,7.8-25.5
				c5.4-16.9,11.3-33.7,16.5-50.7c2.6-8.5,5.2-17,7.6-25.5c2.5-8.5,4.8-17.1,7.2-25.7l1.2-4.3l1.4,4.3c2.8,8.4,5.6,16.9,8.3,25.3
				c2.7,8.5,5.4,16.9,8,25.4l7.9,25.4c2.6,8.5,5.2,17,7.7,25.5c5,17,9.9,34.1,14.6,51.2c4.7,17.1,9.3,34.3,13.7,51.5l-0.5,0.1
				c-5.9-16.8-11.5-33.6-17-50.5c-5.5-16.9-10.8-33.8-16-50.8c-2.5-8.5-5.1-17-7.6-25.5l-7.4-25.6c-2.5-8.5-4.9-17.1-7.3-25.6
				c-2.4-8.5-4.7-17.1-7-25.7h2.6c-2.7,8.5-5.5,16.9-8.2,25.4c-2.7,8.5-5.2,17-7.7,25.5c-5,17.1-9.3,34.3-14.1,51.4
				c-2.4,8.5-4.9,17.1-7.5,25.5l-3.9,12.7l-4,12.7c-5.4,16.9-10.9,33.8-16.9,50.5L137.8,296.2z"/>
		</g>
		<g>
			<path class="st0" d="M388.4,297c4.2-17.3,8.9-34.4,13.7-51.5l3.6-12.8l3.7-12.8c2.5-8.5,5.1-17,7.8-25.5
				c5.4-16.9,11.3-33.7,16.5-50.7c2.6-8.5,5.2-17,7.6-25.5c2.5-8.5,4.8-17.1,7.2-25.7l1.2-4.3l1.4,4.3c2.8,8.4,5.6,16.9,8.3,25.3
				c2.7,8.5,5.4,16.9,8,25.4l7.9,25.4c2.6,8.5,5.2,17,7.7,25.5c5,17,9.9,34.1,14.6,51.2c4.7,17.1,9.3,34.3,13.7,51.5l-0.5,0.1
				c-5.9-16.8-11.5-33.6-17-50.5c-5.5-16.9-10.8-33.8-16-50.8c-2.5-8.5-5.1-17-7.6-25.5l-7.4-25.6c-2.5-8.5-4.9-17.1-7.3-25.6
				c-2.4-8.5-4.7-17.1-7-25.7h2.6c-2.7,8.5-5.5,16.9-8.2,25.4c-2.7,8.5-5.2,17-7.7,25.5c-5,17.1-9.3,34.3-14.1,51.4
				c-2.4,8.5-4.9,17.1-7.5,25.5l-3.9,12.7l-4,12.7c-5.4,16.9-10.9,33.8-16.9,50.5L388.4,297z"/>
		</g>
		<g>
			<path class="st0" d="M341.2,92c5.8,8.3,11.3,16.9,16.7,25.4l4.1,6.4l4,6.5c2.7,4.3,5.3,8.6,7.9,13c2.6,4.3,5.2,8.7,7.8,13.1
				c2.5,4.4,5,8.8,7.4,13.2c4.9,8.9,9.6,17.8,14.6,26.6l0.8,1.3l-1.5,0c-3.8-0.1-7.6-0.1-11.4-0.1c-3.8,0-7.6,0-11.4,0.1
				c-7.6,0.1-15.2,0.4-22.8,0.6c-7.6,0.2-15.2,0.5-22.8,0.7l-22.8,0.4l2-3.8c5.7,8.2,11.4,16.5,16.9,24.8c2.8,4.1,5.5,8.3,8.3,12.5
				c2.8,4.2,5.5,8.4,8.2,12.6c2.7,4.2,5.4,8.4,8.1,12.6c2.7,4.2,5.4,8.4,8,12.7c5.3,8.5,10.5,17,15.6,25.7l-0.4,0.3
				c-6.1-8-12-16-17.9-24.1c-2.9-4.1-5.8-8.1-8.7-12.2c-2.9-4.1-5.8-8.2-8.6-12.3c-2.9-4.1-5.7-8.2-8.5-12.3
				c-2.8-4.1-5.7-8.2-8.4-12.4c-5.6-8.3-11.1-16.7-16.5-25l-2.5-3.9l4.5,0.1l22.8,0.4c7.6,0.2,15.2,0.4,22.8,0.7
				c7.6,0.2,15.2,0.5,22.8,0.6c3.8,0.1,7.6,0.1,11.4,0.1c3.8,0,7.6,0,11.4-0.1l-0.7,1.3c-5.3-8.6-10.9-17.1-16.3-25.6
				c-2.7-4.3-5.4-8.6-8.1-12.9c-2.6-4.3-5.2-8.7-7.7-13.1c-2.5-4.4-5.1-8.7-7.6-13.2l-3.7-6.6l-3.7-6.6c-4.9-8.9-9.7-17.8-14.3-26.8
				L341.2,92z"/>
		</g>
		<g>
			<path class="st0" d="M1098.9,92.3c-4.6,9.1-9.4,18-14.3,26.8l-3.7,6.6l-3.7,6.6c-2.5,4.4-5,8.8-7.6,13.2
				c-2.5,4.4-5.1,8.7-7.7,13.1c-2.7,4.3-5.3,8.6-8,12.9c-5.5,8.5-11,17-16.3,25.6l-0.7-1.3c3.8,0.1,7.6,0.1,11.4,0.1
				c3.8,0,7.6,0,11.4-0.1c7.6-0.1,15.2-0.4,22.8-0.6c7.6-0.2,15.2-0.5,22.8-0.7l22.8-0.4l4.5-0.1l-2.5,3.9
				c-5.5,8.4-10.9,16.7-16.5,25c-2.8,4.2-5.6,8.3-8.4,12.4c-2.8,4.1-5.7,8.2-8.5,12.3c-2.9,4.1-5.7,8.2-8.6,12.3
				c-2.9,4.1-5.8,8.2-8.7,12.2c-5.9,8.1-11.8,16.2-17.9,24.1l-0.4-0.3c5.1-8.6,10.3-17.2,15.6-25.7c2.6-4.2,5.3-8.5,8-12.7
				c2.7-4.2,5.4-8.4,8.1-12.6c2.7-4.2,5.4-8.4,8.2-12.6c2.7-4.2,5.5-8.4,8.3-12.5c5.6-8.3,11.3-16.5,16.9-24.8l2,3.8l-22.8-0.4
				c-7.6-0.2-15.2-0.4-22.8-0.7c-7.6-0.2-15.2-0.5-22.8-0.6c-3.8-0.1-7.6-0.1-11.4-0.1c-3.8,0-7.6,0-11.4,0.1l-1.5,0l0.8-1.3
				c5-8.8,9.8-17.7,14.6-26.6c2.4-4.4,4.9-8.8,7.4-13.2c2.6-4.4,5.1-8.7,7.8-13.1c2.6-4.3,5.2-8.7,7.9-13l4-6.5l4.1-6.4
				c5.4-8.6,10.9-17.1,16.7-25.4L1098.9,92.3z"/>
		</g>
		<g>
			<path class="st0" d="M657.8,297c4.2-17.3,8.9-34.4,13.7-51.5l3.6-12.8l3.7-12.8c2.5-8.5,5.1-17,7.8-25.5
				c5.4-16.9,11.3-33.7,16.5-50.7c2.6-8.5,5.2-17,7.6-25.5c2.5-8.5,4.8-17.1,7.2-25.7l1.2-4.3l1.4,4.3c2.8,8.4,5.6,16.9,8.3,25.3
				c2.7,8.5,5.4,16.9,8,25.4l7.9,25.4c2.6,8.5,5.2,17,7.7,25.5c5,17,9.9,34.1,14.6,51.2c4.7,17.1,9.3,34.3,13.7,51.5l-0.5,0.1
				c-5.9-16.8-11.5-33.6-17-50.5c-5.5-16.9-10.8-33.8-16-50.8c-2.5-8.5-5.1-17-7.6-25.5l-7.4-25.6c-2.5-8.5-4.9-17.1-7.3-25.6
				c-2.4-8.5-4.7-17.1-7-25.7h2.6c-2.7,8.5-5.5,16.9-8.2,25.4c-2.7,8.5-5.2,17-7.7,25.5c-5,17.1-9.3,34.3-14.1,51.4
				c-2.4,8.5-4.9,17.1-7.5,25.5l-3.9,12.7l-4,12.7c-5.4,16.9-10.9,33.8-16.9,50.5L657.8,297z"/>
		</g>
		<g>
			<path class="st0" d="M902.7,297.1c-6-16.7-11.5-33.6-16.9-50.5l-4-12.7l-3.9-12.7c-2.6-8.5-5.1-17-7.5-25.5
				c-4.8-17.1-9.1-34.3-14.1-51.4c-2.5-8.5-5-17-7.7-25.5c-2.6-8.5-5.4-16.9-8.2-25.4h2.6c-2.3,8.6-4.6,17.1-7,25.7
				c-2.4,8.6-4.8,17.1-7.3,25.6l-7.4,25.6c-2.5,8.5-5,17-7.6,25.5c-5.2,17-10.5,33.9-16,50.8c-5.5,16.9-11.1,33.8-17,50.5l-0.5-0.1
				c4.3-17.2,8.9-34.4,13.7-51.5c4.7-17.1,9.7-34.2,14.6-51.2c2.6-8.5,5.1-17,7.7-25.5l7.9-25.4c2.6-8.5,5.3-17,8-25.4
				c2.7-8.5,5.5-16.9,8.3-25.3l1.4-4.3l1.2,4.3c2.4,8.6,4.7,17.1,7.2,25.7c2.4,8.5,5,17,7.6,25.5c5.2,17,11.1,33.7,16.5,50.7
				c2.7,8.5,5.3,16.9,7.8,25.5l3.7,12.8l3.6,12.8c4.8,17.1,9.5,34.2,13.7,51.5L902.7,297.1z"/>
		</g>
		<g>
			<path class="st0" d="M659.2,93.2c-7.2,0.5-14.5,0.8-21.7,1c-7.2,0.3-14.5,0.4-21.7,0.6c-7.2,0.1-14.5,0.3-21.7,0.3l-10.8,0.1
				l-10.8,0l2.2-2.2c-0.2,16.9-1.1,33.9-1.5,50.8c-0.4,16.9-0.1,33.9,0.3,50.8c0.2,8.5,0.5,16.9,0.6,25.4c0.1,8.5,0.2,16.9,0.3,25.4
				l0.2,25.4c0,8.5,0,16.9-0.1,25.4l-2.6-2.6c7.3,0.1,14.6,0.1,21.8,0.3c7.3,0.1,14.6,0.3,21.8,0.4c7.3,0.2,14.6,0.4,21.8,0.7
				c3.6,0.1,7.3,0.3,10.9,0.4c3.6,0.1,7.3,0.3,10.9,0.5v0.5c-3.6,0.2-7.3,0.4-10.9,0.5c-3.6,0.1-7.3,0.3-10.9,0.4
				c-7.3,0.3-14.6,0.5-21.8,0.7c-7.3,0.2-14.6,0.3-21.8,0.4c-7.3,0.1-14.6,0.2-21.8,0.3l-2.6,0l0-2.6c-0.1-8.5,0-16.9,0-25.4
				l0.3-25.4c0.1-8.5,0.2-16.9,0.4-25.4c0.2-8.5,0.5-16.9,0.8-25.4c0.5-16.9,0.9-33.9,0.6-50.8c-0.2-16.9-1-33.9-1.2-50.8l0-2.2
				l2.2,0l10.8,0l10.8,0.1c7.2,0,14.5,0.2,21.7,0.3c7.2,0.2,14.5,0.3,21.7,0.6c7.2,0.3,14.5,0.6,21.7,1V93.2z"/>
		</g>
		<g>
			<path class="st0" d="M1091.7,195c0,6.7-0.6,13.4-1.9,20c-1.2,6.6-3.1,13.1-5.5,19.3c-2.5,6.3-5.5,12.3-9.1,18
				c-3.6,5.7-7.8,11.1-12.5,16c-4.7,4.9-9.8,9.4-15.5,13.2c-1.4,0.9-2.8,1.9-4.3,2.8c-1.5,0.9-2.9,1.8-4.4,2.6
				c-1.5,0.8-3,1.6-4.6,2.3c-1.6,0.7-3.1,1.5-4.7,2.1c-12.6,5.3-26.3,7.9-39.9,7.8c-13.6-0.2-27.2-3.1-39.6-8.6
				c-6.2-2.7-12.1-6-17.7-9.9c-5.6-3.8-10.7-8.2-15.5-13c-9.5-9.6-17.1-20.9-22.3-33.3c-2.6-6.2-4.7-12.7-6.1-19.3
				c-1.4-6.6-2.2-13.4-2.3-20.1c-0.2-13.5,2.2-27.2,7.3-39.8c5.1-12.6,12.7-24.3,22.3-34c9.6-9.7,21.1-17.6,33.8-22.9
				c12.6-5.3,26.4-8,40.1-8c13.7,0.1,27.4,2.8,40,8.2c12.6,5.3,24,13.4,33.3,23.2c9.4,9.8,16.7,21.5,21.6,34
				c2.4,6.3,4.3,12.7,5.5,19.3C1091.1,181.6,1091.8,188.3,1091.7,195z M1091.2,195c-0.1-6.7-0.7-13.3-2.1-19.8
				c-1.4-6.5-3.4-12.9-6.1-19c-5.3-12.2-13.2-23.1-22.7-32.2c-4.8-4.5-10-8.6-15.5-12.1c-1.4-0.8-2.8-1.7-4.2-2.5
				c-1.4-0.8-2.8-1.6-4.3-2.3c-1.5-0.7-2.9-1.5-4.4-2.2c-1.5-0.6-3-1.3-4.5-1.9c-6.1-2.4-12.3-4.3-18.7-5.5
				c-6.4-1.2-12.9-1.8-19.4-1.8c-6.5,0-13,0.6-19.4,1.9c-6.4,1.3-12.6,3.2-18.7,5.6c-12.1,4.9-23.1,12.2-32.4,21.4
				c-9.3,9.2-16.8,20.2-22,32.2c-2.6,6-4.6,12.3-6,18.7c-1.4,6.4-2.1,13-2.3,19.6c-0.2,13.2,2.1,26.5,7.2,38.7
				c5,12.3,12.5,23.5,21.9,32.9c4.7,4.6,9.9,8.8,15.5,12.4c5.6,3.6,11.5,6.6,17.6,9c12.3,4.8,25.4,7.2,38.5,7
				c6.5-0.1,13.1-0.8,19.5-2.1c6.4-1.3,12.7-3.2,18.7-5.6c1.5-0.6,3-1.3,4.5-2c1.5-0.7,2.9-1.5,4.4-2.2c1.5-0.7,2.9-1.6,4.3-2.4
				c1.4-0.8,2.8-1.7,4.2-2.6c5.5-3.6,10.7-7.6,15.5-12.2c9.5-9.1,17.3-20.1,22.6-32.2c2.7-6.1,4.7-12.5,6.1-19
				C1090.5,208.3,1091.2,201.7,1091.2,195z"/>
		</g>
		<g>
			<path class="st0" d="M335,92.2c-4.2,17.3-8.9,34.4-13.7,51.5l-3.6,12.8l-3.7,12.8c-2.5,8.5-5.1,17-7.8,25.5
				c-5.4,16.9-11.3,33.7-16.5,50.7c-2.6,8.5-5.2,17-7.6,25.5c-2.5,8.5-4.8,17.1-7.2,25.7l-1.2,4.3l-1.4-4.3
				c-2.8-8.4-5.6-16.9-8.3-25.3c-2.7-8.5-5.4-16.9-8-25.4l-7.9-25.4c-2.6-8.5-5.2-17-7.7-25.5c-5-17-9.9-34.1-14.6-51.2
				c-4.7-17.1-9.3-34.3-13.7-51.5l0.5-0.1c5.9,16.8,11.5,33.6,17,50.5c5.5,16.9,10.8,33.8,16,50.8c2.5,8.5,5.1,17,7.6,25.5l7.4,25.6
				c2.5,8.5,4.9,17.1,7.3,25.6c2.4,8.5,4.7,17.1,7,25.7h-2.6c2.7-8.5,5.5-16.9,8.2-25.4c2.7-8.5,5.2-17,7.7-25.5
				c5-17.1,9.3-34.3,14.1-51.4c2.4-8.5,4.9-17.1,7.5-25.5l3.9-12.7l4-12.7c5.4-16.9,10.9-33.8,16.9-50.5L335,92.2z"/>
		</g>
		<g>
			<polygon class="st0" points="571.9,191.3 621.7,195 571.8,196.3 			"/>
		</g>
	</g>
</g>
</svg>
