<?xml version="1.0" encoding="utf-8"?>
<!-- Generator: Adobe Illustrator 22.0.0, SVG Export Plug-In . SVG Version: 6.00 Build 0)  -->
<svg version="1.1" id="Capa_1" xmlns="http://www.w3.org/2000/svg" xmlns:xlink="http://www.w3.org/1999/xlink" x="0px" y="0px"
	 viewBox="0 0 1280 620" style="enable-background:new 0 0 1280 620;" xml:space="preserve">
<style type="text/css">
	.st0{fill:#F6921E;}
	.st1{fill:#FFFFFF;}
</style>
<polygon class="st0" points="1280,312.2 1279,311.7 1280,311.2 1278,311.2 640.8,1.7 640.8,0.9 640,1.3 639.2,0.9 639.2,1.7 
	2,311.2 0,311.2 1,311.7 0,312.2 2,312.2 639.2,621.7 639.2,622.5 640,622.1 640.8,622.5 640.8,621.7 1278,312.2 "/>
<g>
	<g>
		<g>
			<path class="st1" d="M329.1,223.1c1,13.9,1.4,27.7,1.5,41.6c0.1,6.9,0.1,13.9-0.1,20.8l-0.8,20.8c-0.2,6.9-0.2,13.9-0.2,20.8
				l0.1,5.2l0.2,5.2l0.3,10.4c0.6,13.9,0.6,27.7,0.8,41.6l-2.1-2.1c3.1-0.1,6.2,0,9.3,0c3.1,0,6.2,0,9.3,0c6.2,0,12.4,0.2,18.7,0.3
				c6.2,0.2,12.4,0.4,18.7,0.6c6.2,0.3,12.4,0.6,18.7,1v0.4c-6.2,0.4-12.4,0.7-18.7,1c-6.2,0.2-12.4,0.4-18.7,0.6
				c-6.2,0.1-12.4,0.3-18.7,0.3c-3.1,0-6.2,0.1-9.3,0c-3.1,0-6.2,0-9.3,0l-2.1,0l0-2.1c0.2-13.9,0.3-27.7,0.8-41.6l0.3-10.4l0.2-5.2
				l0.1-5.2c0.1-6.9,0.1-13.9-0.2-20.8l-0.8-20.8c-0.2-6.9-0.2-13.9-0.1-20.8c0.2-13.9,0.5-27.7,1.5-41.6H329.1z"/>
		</g>
		<g>
			<path class="st1" d="M595.8,223.1c1,13.9,1.4,27.7,1.5,41.6c0.1,6.9,0.1,13.9-0.1,20.8l-0.8,20.8c-0.2,6.9-0.2,13.9-0.2,20.8
				l0.1,5.2l0.2,5.2l0.3,10.4c0.6,13.9,0.6,27.7,0.8,41.6l-2.1-2.1c3.1-0.1,6.2,0,9.3,0c3.1,0,6.2,0,9.3,0c6.2,0,12.4,0.2,18.7,0.3
				c6.2,0.2,12.4,0.4,18.7,0.6c6.2,0.3,12.4,0.6,18.7,1v0.4c-6.2,0.4-12.4,0.7-18.7,1c-6.2,0.2-12.4,0.4-18.7,0.6
				c-6.2,0.1-12.4,0.3-18.7,0.3c-3.1,0-6.2,0.1-9.3,0c-3.1,0-6.2,0-9.3,0l-2.1,0l0-2.1c0.2-13.9,0.3-27.7,0.8-41.6l0.3-10.4l0.2-5.2
				l0.1-5.2c0.1-6.9,0.1-13.9-0.2-20.8l-0.8-20.8c-0.2-6.9-0.2-13.9-0.1-20.8c0.2-13.9,0.5-27.7,1.5-41.6H595.8z"/>
		</g>
		<g>
			<path class="st1" d="M348.9,371.5c2.4-10.7,5.2-21.2,8.1-31.8l2.2-7.9l2.3-7.9c1.5-5.2,3.1-10.5,4.8-15.7l5.2-15.5l2.6-7.8
				l2.5-7.8c3.3-10.4,6.2-21,9-31.5l0.9-3.5l1.2,3.5c1.7,5.2,3.5,10.4,5.2,15.5c1.7,5.2,3.3,10.4,5,15.6c3.3,10.4,6.6,20.8,9.7,31.3
				c3,10.5,6.1,21,8.9,31.5c2.8,10.6,5.6,21.1,8.1,31.8l-0.4,0.1c-3.8-10.3-7.3-20.6-10.7-31c-3.4-10.4-6.7-20.8-10-31.2
				c-3.2-10.4-6.2-21-9.2-31.5c-1.5-5.2-3-10.5-4.4-15.8c-1.5-5.3-2.8-10.6-4.2-15.8h2.1c-3.5,10.4-6.9,20.8-9.8,31.3l-2.2,7.9
				l-2.1,7.9l-4.2,15.9c-1.5,5.3-3,10.5-4.6,15.7l-2.4,7.8l-2.5,7.8c-3.4,10.4-6.8,20.8-10.7,31L348.9,371.5z"/>
		</g>
		<g>
			<path class="st1" d="M503.1,372c2.4-10.7,5.2-21.2,8.1-31.8l2.2-7.9l2.3-7.9c1.5-5.2,3.1-10.5,4.8-15.7l5.2-15.5l2.6-7.8l2.5-7.8
				c3.3-10.4,6.2-21,9-31.5l0.9-3.5l1.2,3.5c1.7,5.2,3.5,10.4,5.2,15.5c1.7,5.2,3.3,10.4,5,15.6c3.3,10.4,6.6,20.8,9.7,31.3
				c3,10.5,6.1,21,8.9,31.5c2.8,10.6,5.6,21.1,8.1,31.8l-0.4,0.1c-3.8-10.3-7.3-20.6-10.7-31c-3.4-10.4-6.7-20.8-10-31.2
				c-3.2-10.4-6.2-21-9.2-31.5c-1.5-5.2-3-10.5-4.4-15.8c-1.5-5.3-2.8-10.6-4.2-15.8h2.1c-3.5,10.4-6.9,20.8-9.8,31.3l-2.2,7.9
				l-2.1,7.9l-4.2,15.9c-1.5,5.3-3,10.5-4.6,15.7l-2.4,7.8l-2.5,7.8c-3.4,10.4-6.8,20.8-10.7,31L503.1,372z"/>
		</g>
		<g>
			<path class="st1" d="M474.2,245.9c3.7,5.1,7.1,10.3,10.5,15.5c1.7,2.6,3.4,5.2,5,7.9c1.7,2.6,3.3,5.3,4.9,8
				c3.3,5.3,6.4,10.7,9.3,16.2c2.9,5.5,5.8,11.1,8.8,16.5l0.6,1.1l-1.2,0c-2.3-0.1-4.7-0.1-7-0.1c-2.3,0-4.7,0-7,0.1
				c-4.7,0.1-9.3,0.3-14,0.5c-4.7,0.2-9.3,0.4-14,0.5c-4.7,0.1-9.3,0.2-14,0.3l1.6-3c3.5,5.1,7.1,10.1,10.5,15.2
				c1.7,2.5,3.4,5.1,5.1,7.7c1.7,2.6,3.4,5.1,5,7.8c3.3,5.2,6.6,10.4,9.8,15.7c3.2,5.3,6.3,10.6,9.4,15.9l-0.3,0.2
				c-3.8-4.8-7.6-9.7-11.2-14.7c-3.7-5-7.3-9.9-10.8-15c-1.8-2.5-3.5-5-5.3-7.6c-1.7-2.5-3.5-5.1-5.2-7.6
				c-3.5-5.1-6.8-10.3-10.1-15.4l-2-3.1l3.6,0.1c4.7,0.1,9.3,0.1,14,0.3c4.7,0.1,9.3,0.4,14,0.5c4.7,0.2,9.3,0.4,14,0.5
				c2.3,0,4.7,0,7,0.1c2.3,0,4.7,0,7-0.1l-0.6,1c-3.3-5.3-6.8-10.5-10.2-15.7c-3.4-5.2-6.7-10.5-9.8-15.9c-1.6-2.7-3.1-5.4-4.6-8.1
				c-1.5-2.7-3-5.4-4.5-8.2c-3-5.5-5.9-11-8.6-16.6L474.2,245.9z"/>
		</g>
		<g>
			<path class="st1" d="M940.3,246.1c-2.7,5.6-5.6,11.2-8.6,16.6c-1.5,2.7-3,5.5-4.5,8.2c-1.5,2.7-3.1,5.4-4.6,8.1
				c-3.1,5.4-6.3,10.7-9.8,15.9c-3.4,5.2-6.9,10.4-10.2,15.7l-0.6-1c2.3,0.1,4.7,0.1,7,0.1c2.3,0,4.7,0,7-0.1
				c4.7-0.1,9.3-0.3,14-0.5c4.7-0.2,9.3-0.4,14-0.5c4.7-0.1,9.3-0.2,14-0.3l3.6-0.1l-2,3.1c-3.4,5.2-6.7,10.3-10.1,15.4
				c-1.7,2.6-3.5,5.1-5.2,7.6c-1.7,2.5-3.5,5.1-5.3,7.6c-3.5,5-7.1,10-10.8,15c-3.7,5-7.4,9.9-11.2,14.7l-0.3-0.2
				c3-5.4,6.2-10.7,9.4-15.9c3.2-5.3,6.5-10.5,9.8-15.7c1.6-2.6,3.3-5.2,5-7.8c1.7-2.6,3.4-5.2,5.1-7.7c3.4-5.1,7-10.1,10.5-15.2
				l1.6,3c-4.7-0.1-9.3-0.1-14-0.3c-4.7-0.1-9.3-0.4-14-0.5c-4.7-0.2-9.3-0.4-14-0.5c-2.3,0-4.7,0-7-0.1c-2.3,0-4.7,0-7,0.1l-1.2,0
				l0.6-1.1c3.1-5.4,5.9-11,8.8-16.5c2.9-5.5,6-10.9,9.3-16.2c1.6-2.7,3.2-5.3,4.9-8c1.6-2.6,3.3-5.3,5-7.9
				c3.4-5.2,6.8-10.4,10.5-15.5L940.3,246.1z"/>
		</g>
		<g>
			<path class="st1" d="M668.8,372c2.4-10.7,5.2-21.2,8.1-31.8l2.2-7.9l2.3-7.9c1.5-5.2,3.1-10.5,4.8-15.7l5.2-15.5l2.6-7.8l2.5-7.8
				c3.3-10.4,6.2-21,9-31.5l0.9-3.5l1.2,3.5c1.7,5.2,3.5,10.4,5.2,15.5c1.7,5.2,3.3,10.4,5,15.6c3.3,10.4,6.6,20.8,9.7,31.3
				c3,10.5,6.1,21,8.9,31.5c2.8,10.6,5.6,21.1,8.1,31.8l-0.4,0.1c-3.8-10.3-7.3-20.6-10.7-31c-3.4-10.4-6.7-20.8-10-31.2
				c-3.2-10.4-6.2-21-9.2-31.5c-1.5-5.2-3-10.5-4.4-15.8c-1.5-5.3-2.8-10.6-4.2-15.8h2.1c-3.5,10.4-6.9,20.8-9.8,31.3l-2.2,7.9
				l-2.1,7.9l-4.2,15.9c-1.5,5.3-3,10.5-4.6,15.7l-2.4,7.8l-2.5,7.8c-3.4,10.4-6.8,20.8-10.7,31L668.8,372z"/>
		</g>
		<g>
			<path class="st1" d="M819.5,372.1c-3.9-10.2-7.3-20.6-10.7-31l-2.5-7.8l-2.4-7.8c-1.6-5.2-3.2-10.5-4.6-15.7l-4.2-15.9l-2.1-7.9
				l-2.2-7.9c-3-10.5-6.4-20.9-9.8-31.3h2.1c-1.4,5.3-2.8,10.6-4.2,15.8c-1.4,5.3-2.9,10.5-4.4,15.8c-3,10.5-6,21-9.2,31.5
				c-3.2,10.4-6.5,20.9-10,31.2c-3.5,10.4-7,20.7-10.7,31l-0.4-0.1c2.5-10.7,5.3-21.2,8.1-31.8c2.8-10.6,5.8-21.1,8.9-31.5
				c3.1-10.5,6.4-20.9,9.7-31.3c1.6-5.2,3.3-10.4,5-15.6c1.7-5.2,3.5-10.4,5.2-15.5l1.2-3.5l0.9,3.5c2.8,10.6,5.7,21.1,9,31.5
				l2.5,7.8l2.6,7.8l5.2,15.5c1.7,5.2,3.3,10.4,4.8,15.7l2.3,7.9l2.2,7.9c2.9,10.5,5.7,21.1,8.1,31.8L819.5,372.1z"/>
		</g>
		<g>
			<path class="st1" d="M669.8,246.7c-8.9,0.7-17.8,1-26.7,1.3c-4.4,0.1-8.9,0.2-13.3,0.2l-6.7,0.1l-6.7,0l1.8-1.8
				c-0.2,10.4-0.9,20.8-1.2,31.3c-0.3,10.4,0,20.8,0.3,31.3c0.2,5.2,0.4,10.4,0.5,15.6c0.1,5.2,0.2,10.4,0.2,15.6l0.2,15.6
				c0,5.2,0,10.4-0.1,15.6l-2.1-2.1c4.5,0,9,0.1,13.4,0.2c4.5,0.1,9,0.2,13.4,0.4c4.5,0.2,9,0.3,13.4,0.5c4.5,0.2,9,0.5,13.4,0.8
				v0.4c-4.5,0.3-9,0.5-13.4,0.8c-4.5,0.2-9,0.4-13.4,0.5c-4.5,0.1-9,0.3-13.4,0.4c-4.5,0.1-9,0.2-13.4,0.2l-2.1,0l0-2.1
				c-0.1-5.2,0-10.4,0-15.6l0.3-15.6c0.1-5.2,0.2-10.4,0.3-15.6c0.1-5.2,0.4-10.4,0.6-15.6c0.4-10.4,0.7-20.8,0.5-31.3
				c-0.2-10.4-0.9-20.8-1-31.3l0-1.7l1.8,0l6.7,0l6.7,0.1c4.4,0,8.9,0.1,13.3,0.2c8.9,0.3,17.8,0.6,26.7,1.3V246.7z"/>
		</g>
		<g>
			<path class="st1" d="M935.9,309.2c0,8.2-1.5,16.5-4.5,24.2c-2.9,7.7-7.5,14.9-13.2,21.1c-5.7,6.1-12.8,11.1-20.6,14.4
				c-7.8,3.3-16.3,4.9-24.7,4.8c-8.4-0.2-16.8-2-24.5-5.4c-3.8-1.7-7.5-3.8-10.9-6.2c-3.4-2.4-6.6-5.1-9.5-8
				c-11.7-11.8-18.7-28.1-19-44.8c-0.2-8.4,1.2-16.8,4.4-24.6c3.1-7.8,7.8-15.1,13.8-21.1c5.9-6,13.1-10.9,20.9-14.2
				c7.8-3.3,16.3-5,24.8-5c8.5,0.1,17,1.7,24.8,5.1c7.8,3.3,14.8,8.3,20.6,14.5c5.7,6.1,10.2,13.3,13.2,21.1
				C934.4,292.7,935.9,301,935.9,309.2z M935.5,309.2c0-4.1-0.4-8.2-1.3-12.2c-0.9-4-2.1-7.9-3.8-11.6c-3.3-7.4-8.1-14.1-14-19.6
				c-11.8-11-27.5-17.3-43.5-17.2c-15.9,0-31.7,6.3-43.1,17.6c-5.7,5.6-10.3,12.3-13.5,19.6c-3.2,7.4-5,15.3-5.1,23.4
				c-0.1,8.1,1.2,16.2,4.3,23.8c3,7.5,7.7,14.5,13.4,20.2c2.9,2.8,6.1,5.4,9.5,7.6c3.4,2.2,7.1,4,10.8,5.5
				c7.5,2.9,15.6,4.3,23.6,4.1c8-0.1,15.9-1.7,23.4-4.7c0.9-0.4,1.8-0.8,2.7-1.2c0.9-0.4,1.8-0.9,2.7-1.3c0.9-0.5,1.8-1,2.6-1.4
				c0.9-0.5,1.7-1,2.6-1.6c3.4-2.2,6.6-4.6,9.5-7.4c5.9-5.5,10.7-12.2,14-19.7c1.7-3.7,2.9-7.6,3.8-11.6
				C935.1,317.4,935.5,313.3,935.5,309.2z"/>
		</g>
		<g>
			<path class="st1" d="M470.4,246c-2.4,10.7-5.2,21.2-8.1,31.8l-2.2,7.9l-2.3,7.9c-1.5,5.2-3.1,10.5-4.8,15.7l-5.2,15.5l-2.6,7.8
				l-2.5,7.8c-3.3,10.4-6.2,21-9,31.5l-0.9,3.5l-1.2-3.5c-1.7-5.2-3.5-10.4-5.2-15.5c-1.7-5.2-3.3-10.4-5-15.6
				c-3.3-10.4-6.6-20.8-9.7-31.3c-3-10.5-6.1-21-8.9-31.5c-2.8-10.6-5.6-21.1-8.1-31.8l0.4-0.1c3.8,10.3,7.3,20.6,10.7,31
				c3.4,10.4,6.7,20.8,10,31.2c3.2,10.4,6.2,21,9.2,31.5c1.5,5.2,3,10.5,4.4,15.8c1.5,5.3,2.8,10.6,4.2,15.8h-2.1
				c3.5-10.4,6.9-20.8,9.8-31.3l2.2-7.9l2.1-7.9l4.2-15.9c1.5-5.3,3-10.5,4.6-15.7l2.4-7.8l2.5-7.8c3.4-10.4,6.8-20.8,10.7-31
				L470.4,246z"/>
		</g>
		<g>
			<polygon class="st1" points="616.1,306.5 646.7,309.2 616,310.5 			"/>
		</g>
	</g>
</g>
</svg>
