<?xml version="1.0" encoding="utf-8"?>
<!-- Generator: Adobe Illustrator 22.0.0, SVG Export Plug-In . SVG Version: 6.00 Build 0)  -->
<svg version="1.1" id="Capa_1" xmlns="http://www.w3.org/2000/svg" xmlns:xlink="http://www.w3.org/1999/xlink" x="0px" y="0px"
	 viewBox="0 0 1280 800" style="enable-background:new 0 0 1280 800;" xml:space="preserve">
<style type="text/css">
	.st0{fill:#F6921E;}
	.st1{fill:#FFFFFF;}
</style>
<g>
	<polygon class="st0" points="-1789,-1117.3 642.4,1917.3 642.4,-1117.3 	"/>
	<polygon class="st0" points="3070,-1117.3 638.6,1917.3 638.6,-1117.3 	"/>
	<g>
		<g>
			<path class="st1" d="M-320.8-457.2c1.6,21,2.5,42.1,3.3,63.1c0.7,21,1.2,42.1,1.4,63.1c0.1,10.5,0.2,21,0.1,31.5
				c-0.1,10.5-0.2,21-0.6,31.5c-0.6,21-1.8,42.1-2.4,63.1c-1.4,42.1-0.3,84.1,1.3,126.2c0.8,21,1.4,42.1,1.7,63.1
				c0.3,21,0.6,42.1,0.8,63.1l-6.3-6.3c18.9-0.2,37.8-0.2,56.7,0c9.4,0.1,18.9,0.2,28.3,0.4l28.3,0.6l28.3,0.8l28.3,1
				c18.9,0.8,37.8,1.7,56.7,2.9v1.2c-18.9,1.3-37.8,2.2-56.7,2.9l-28.3,1l-28.3,0.8l-28.3,0.6c-9.4,0.2-18.9,0.3-28.3,0.4
				c-18.9,0.2-37.8,0.2-56.7,0l-6.4-0.1l0.1-6.2c0.2-21,0.5-42.1,0.8-63.1c0.3-21,0.9-42.1,1.7-63.1c1.6-42.1,2.7-84.1,1.3-126.2
				c-0.6-21-1.8-42.1-2.4-63.1c-0.3-10.5-0.5-21-0.6-31.5c0-10.5,0-21,0.1-31.5c0.2-21,0.7-42.1,1.4-63.1c0.8-21,1.7-42.1,3.3-63.1
				H-320.8z"/>
		</g>
		<g>
			<path class="st1" d="M488.7-457.2c1.6,21,2.5,42.1,3.3,63.1c0.7,21,1.2,42.1,1.4,63.1c0.1,10.5,0.2,21,0.1,31.5
				c-0.1,10.5-0.2,21-0.6,31.5c-0.6,21-1.8,42.1-2.4,63.1c-1.4,42.1-0.3,84.1,1.3,126.2c0.8,21,1.4,42.1,1.7,63.1
				c0.3,21,0.6,42.1,0.8,63.1l-6.3-6.3c18.9-0.2,37.8-0.2,56.7,0c9.4,0.1,18.9,0.2,28.3,0.4l28.3,0.6l28.3,0.8l28.3,1
				c18.9,0.8,37.8,1.7,56.7,2.9v1.2c-18.9,1.3-37.8,2.2-56.7,2.9l-28.3,1l-28.3,0.8l-28.3,0.6c-9.4,0.2-18.9,0.3-28.3,0.4
				c-18.9,0.2-37.8,0.2-56.7,0l-6.4-0.1l0.1-6.2c0.2-21,0.5-42.1,0.8-63.1c0.3-21,0.9-42.1,1.7-63.1c1.6-42.1,2.7-84.1,1.3-126.2
				c-0.6-21-1.8-42.1-2.4-63.1c-0.3-10.5-0.5-21-0.6-31.5c0-10.5,0-21,0.1-31.5c0.2-21,0.7-42.1,1.4-63.1c0.8-21,1.7-42.1,3.3-63.1
				H488.7z"/>
		</g>
		<g>
			<path class="st1" d="M-260.7-6.9c3.6-16.2,7.6-32.3,11.8-48.4l3.1-12l3.2-12c2.2-8,4.3-16,6.5-24c4.4-16,9-31.9,13.7-47.8
				c4.6-15.9,9.5-31.8,14.6-47.5c10.3-31.5,21.7-62.7,31.5-94.4c9.9-31.7,18.8-63.6,27.3-95.7l2.8-10.5l3.5,10.5l7.9,23.6l4,11.8
				l3.9,11.8c5.2,15.8,10.1,31.6,15.1,47.4l14.9,47.5c5,15.8,9.7,31.7,14.4,47.6c4.7,15.9,9.3,31.8,13.7,47.8l6.7,24l6.5,24
				c2.2,8,4.3,16,6.4,24l3.2,12l3.1,12.1c4.1,16.1,8.2,32.2,11.9,48.4L-32-6.6c-5.8-15.6-11.3-31.2-16.7-46.9l-4-11.8l-4-11.8
				c-2.6-7.9-5.3-15.7-7.9-23.6l-7.7-23.6l-7.6-23.7c-5.1-15.8-10-31.6-14.9-47.5c-4.8-15.9-9.6-31.7-14.2-47.7l-13.7-47.8
				c-4.5-15.9-9.1-31.9-13.5-47.9l-3.3-12l-3.2-12l-6.4-24.1h6.3c-10.6,31.4-20.7,63-29.9,94.9c-9.2,31.9-16.9,64.2-25.6,96.2
				c-4.4,16-9.1,31.9-14,47.7c-4.9,15.9-9.8,31.7-14.9,47.5c-2.5,7.9-5.2,15.8-7.8,23.6l-3.9,11.8l-4,11.8
				c-5.4,15.7-10.9,31.4-16.8,46.9L-260.7-6.9z"/>
		</g>
		<g>
			<path class="st1" d="M207.3-5.4c3.6-16.2,7.6-32.3,11.8-48.4l3.1-12l3.2-12c2.2-8,4.3-16,6.5-24c4.4-16,9-31.9,13.7-47.8
				c4.6-15.9,9.5-31.8,14.6-47.5c10.3-31.5,21.7-62.7,31.5-94.4c9.9-31.7,18.8-63.6,27.3-95.7l2.8-10.5l3.5,10.5l7.9,23.6l4,11.8
				l3.9,11.8c5.2,15.8,10.1,31.6,15.1,47.4l14.9,47.5c5,15.8,9.7,31.7,14.4,47.6c4.7,15.9,9.3,31.8,13.7,47.8l6.7,24l6.5,24
				c2.2,8,4.3,16,6.4,24l3.2,12l3.1,12.1c4.1,16.1,8.2,32.2,11.9,48.4L436-5c-5.8-15.6-11.3-31.2-16.7-46.9l-4-11.8l-4-11.8
				c-2.6-7.9-5.3-15.7-7.9-23.6l-7.7-23.6l-7.6-23.7c-5.1-15.8-10-31.6-14.9-47.5c-4.8-15.9-9.6-31.7-14.2-47.7l-13.7-47.8
				c-4.5-15.9-9.1-31.9-13.5-47.9l-3.3-12l-3.2-12l-6.4-24.1h6.3c-10.6,31.4-20.7,63-29.9,94.9c-9.2,31.9-16.9,64.2-25.6,96.2
				c-4.4,16-9.1,31.9-14,47.7c-4.9,15.9-9.8,31.7-14.9,47.5c-2.5,7.9-5.2,15.8-7.8,23.6l-3.9,11.8l-4,11.8
				c-5.4,15.7-10.9,31.4-16.8,46.9L207.3-5.4z"/>
		</g>
		<g>
			<path class="st1" d="M119.4-388.2c11.1,15.4,21.5,31.2,31.8,47.1c10.3,15.9,20.2,32,30,48.1c4.9,8.1,9.8,16.2,14.5,24.4
				c2.3,4.1,4.7,8.2,6.9,12.4l6.8,12.5c8.9,16.7,17.6,33.5,26.9,50l1.8,3.2l-3.6-0.1c-14.2-0.3-28.3-0.3-42.5-0.1
				c-14.2,0.2-28.3,0.8-42.5,1.4c-14.2,0.6-28.3,1.2-42.5,1.6c-14.2,0.4-28.3,0.6-42.5,0.8l4.8-9.1l16,23
				c5.3,7.7,10.6,15.4,15.8,23.1c10.4,15.5,20.6,31.1,30.6,46.9l7.5,11.8l7.4,11.9l7.4,11.9l7.3,12c9.7,16,19.4,32,28.5,48.3l-1,0.7
				c-11.7-14.7-22.9-29.6-34-44.7l-8.3-11.3l-8.2-11.4l-8.2-11.4l-8.1-11.4c-10.8-15.2-21.4-30.6-31.9-46.1
				c-5.2-7.7-10.4-15.5-15.5-23.4l-15.3-23.5l-6-9.3l10.9,0.2c14.2,0.2,28.3,0.5,42.5,0.8c14.2,0.4,28.3,1.1,42.5,1.6
				c14.2,0.6,28.3,1.1,42.5,1.4c14.2,0.3,28.3,0.3,42.5-0.1l-1.8,3.1c-10-16-20.6-31.7-31-47.6l-7.7-11.9c-2.5-4-5-8-7.5-12
				c-4.9-8.1-9.7-16.2-14.5-24.4c-9.5-16.4-18.8-32.8-27.8-49.5c-9-16.7-17.8-33.4-26-50.5L119.4-388.2z"/>
		</g>
		<g>
			<path class="st1" d="M1534.6-387.6c-8.2,17.1-17,33.9-26,50.5c-9,16.6-18.3,33.1-27.8,49.5c-4.7,8.2-9.5,16.3-14.5,24.4
				c-2.5,4-5,8-7.5,12l-7.7,11.9c-10.4,15.8-21,31.5-31,47.6l-1.8-3.1c14.2,0.3,28.3,0.3,42.5,0.1c14.2-0.2,28.3-0.8,42.5-1.4
				c14.2-0.6,28.3-1.2,42.5-1.6c14.2-0.4,28.3-0.6,42.5-0.8l10.9-0.2l-6,9.3L1578-166c-5.1,7.8-10.2,15.6-15.5,23.4
				c-10.4,15.5-21,30.9-31.9,46.1l-8.1,11.4l-8.2,11.4l-8.2,11.4l-8.3,11.3c-11.1,15-22.3,30-34,44.7l-1-0.7
				c9.2-16.3,18.8-32.4,28.5-48.3l7.3-12l7.4-11.9l7.4-11.9l7.5-11.8c10-15.8,20.2-31.4,30.6-46.9c5.2-7.8,10.5-15.5,15.8-23.1
				l16-23l4.8,9.1c-14.2-0.2-28.3-0.5-42.5-0.8c-14.2-0.4-28.3-1.1-42.5-1.6c-14.2-0.6-28.3-1.1-42.5-1.4
				c-14.2-0.3-28.3-0.3-42.5,0.1l-3.6,0.1l1.8-3.2c9.3-16.5,17.9-33.3,26.9-50l6.8-12.5c2.3-4.1,4.6-8.3,6.9-12.4
				c4.7-8.2,9.6-16.3,14.5-24.4c9.8-16.2,19.8-32.2,30-48.1c10.3-15.9,20.7-31.7,31.8-47.1L1534.6-387.6z"/>
		</g>
		<g>
			<path class="st1" d="M710.4-5.4c3.6-16.2,7.6-32.3,11.8-48.4l3.1-12l3.2-12c2.2-8,4.3-16,6.5-24c4.4-16,9-31.9,13.7-47.8
				c4.6-15.9,9.5-31.8,14.6-47.5c10.3-31.5,21.7-62.7,31.5-94.4c9.9-31.7,18.8-63.6,27.3-95.7l2.8-10.5l3.5,10.5l7.9,23.6l4,11.8
				l3.9,11.8c5.2,15.8,10.1,31.6,15.1,47.4l14.9,47.5c5,15.8,9.7,31.7,14.4,47.6c4.7,15.9,9.3,31.8,13.7,47.8l6.7,24l6.5,24
				c2.2,8,4.3,16,6.4,24l3.2,12l3.1,12.1c4.1,16.1,8.2,32.2,11.9,48.4L939.1-5c-5.8-15.6-11.3-31.2-16.7-46.9l-4-11.8l-4-11.8
				c-2.6-7.9-5.3-15.7-7.9-23.6l-7.7-23.6l-7.6-23.7c-5.1-15.8-10-31.6-14.9-47.5c-4.8-15.9-9.6-31.7-14.2-47.7l-13.7-47.8
				c-4.5-15.9-9.1-31.9-13.5-47.9l-3.3-12l-3.2-12l-6.4-24.1h6.3c-10.6,31.4-20.7,63-29.9,94.9c-9.2,31.9-16.9,64.2-25.6,96.2
				c-4.4,16-9.1,31.9-14,47.7c-4.9,15.9-9.8,31.7-14.9,47.5c-2.5,7.9-5.2,15.8-7.8,23.6l-3.9,11.8l-4,11.8
				C723-36.2,717.5-20.6,711.6-5L710.4-5.4z"/>
		</g>
		<g>
			<path class="st1" d="M1167.8-5c-5.9-15.5-11.4-31.2-16.8-46.9l-4-11.8l-3.9-11.8c-2.6-7.9-5.2-15.7-7.8-23.6
				c-5.1-15.8-10.1-31.6-14.9-47.5c-4.9-15.8-9.6-31.7-14-47.7c-8.8-32-16.5-64.3-25.6-96.2c-9.2-31.9-19.3-63.5-29.9-94.9h6.3
				l-6.4,24.1l-3.2,12l-3.3,12c-4.4,16-8.9,31.9-13.5,47.9l-13.7,47.8c-4.6,15.9-9.3,31.8-14.2,47.7c-4.9,15.9-9.8,31.7-14.9,47.5
				l-7.6,23.7l-7.7,23.6c-2.6,7.9-5.2,15.7-7.9,23.6l-4,11.8l-4,11.8c-5.4,15.7-10.9,31.4-16.7,46.9l-1.1-0.3
				c3.8-16.2,7.8-32.3,11.9-48.4l3.1-12.1l3.2-12c2.1-8,4.2-16,6.4-24l6.5-24l6.7-24c4.5-16,9.1-31.9,13.7-47.8
				c4.7-15.9,9.5-31.8,14.4-47.6l14.9-47.5c5-15.8,10-31.6,15.1-47.4l3.9-11.8l4-11.8l7.9-23.6l3.5-10.5l2.8,10.5
				c8.4,32.1,17.4,64,27.3,95.7c9.9,31.7,21.3,62.9,31.5,94.4c5.1,15.8,10,31.6,14.6,47.5c4.7,15.9,9.2,31.9,13.7,47.8
				c2.2,8,4.4,16,6.5,24l3.2,12l3.1,12c4.2,16.1,8.2,32.2,11.8,48.4L1167.8-5z"/>
		</g>
		<g>
			<path class="st1" d="M713.3-385.8c-13.5,1.1-27,1.8-40.5,2.4c-6.8,0.3-13.5,0.6-20.3,0.8l-20.3,0.6c-13.5,0.3-27,0.6-40.5,0.7
				c-13.5,0.1-27,0.3-40.5,0l5.3-5.3c-0.5,31.6-2.7,63.3-3.5,94.9c-0.8,31.6-0.2,63.3,0.9,94.9c0.5,15.8,1.1,31.6,1.5,47.5
				c0.2,7.9,0.3,15.8,0.4,23.7l0.3,23.7l0.5,47.5c0.1,15.8,0,31.6-0.2,47.5l-6.3-6.3l20.4,0.3l20.4,0.4c13.6,0.2,27.2,0.7,40.8,1.1
				c13.6,0.5,27.2,1,40.8,1.6c13.6,0.6,27.2,1.3,40.8,2.3v1.2c-13.6,1-27.2,1.7-40.8,2.3c-13.6,0.6-27.2,1.1-40.8,1.6
				c-13.6,0.4-27.2,0.8-40.8,1.1l-20.4,0.4l-20.4,0.3l-6.3,0.1l0-6.4c-0.1-15.8-0.1-31.6,0.1-47.5l0.7-47.5l0.4-23.7
				c0.2-7.9,0.3-15.8,0.6-23.7c0.4-15.8,1.2-31.6,1.8-47.4c1.3-31.6,2-63.3,1.5-94.9c-0.6-31.6-2.6-63.3-3-94.9l-0.1-5.2l5.4-0.1
				c13.5-0.2,27-0.1,40.5,0c13.5,0.1,27,0.4,40.5,0.7l20.3,0.6c6.8,0.2,13.5,0.6,20.3,0.8c13.5,0.6,27,1.3,40.5,2.4V-385.8z"/>
		</g>
		<g>
			<path class="st1" d="M1521.2-195.8c0,25-4.6,50-13.7,73.5c-0.5,1.5-1.2,2.9-1.8,4.4l-1.8,4.4c-1.2,2.9-2.7,5.7-4,8.5
				c-1.4,2.8-2.9,5.6-4.4,8.4c-1.5,2.8-3.2,5.4-4.8,8.2c-6.7,10.7-14.5,20.9-23.2,30.1c-8.8,9.2-18.4,17.7-28.9,25
				c-2.7,1.8-5.3,3.6-8,5.3c-2.8,1.6-5.5,3.3-8.3,4.9c-2.8,1.5-5.6,3-8.5,4.4l-4.4,2c-1.5,0.7-2.9,1.4-4.4,2
				c-23.6,10-49.4,15-75,14.6c-12.8-0.2-25.6-1.7-38-4.5c-12.4-2.8-24.6-6.8-36.2-11.9c-11.6-5.2-22.7-11.4-33-18.6
				c-10.4-7.2-20.1-15.4-28.9-24.4c-17.7-18-32-39.2-41.8-62.4l-1.8-4.4c-0.6-1.5-1.2-2.9-1.7-4.4l-1.6-4.5c-0.5-1.5-1.1-3-1.5-4.5
				l-1.4-4.5c-0.4-1.5-1-3-1.3-4.6l-1.1-4.6c-0.4-1.5-0.8-3.1-1.1-4.6c-2.6-12.4-4.2-25-4.4-37.7c-0.5-25.4,3.8-51,13.3-74.8
				c9.4-23.8,23.8-45.7,41.8-64c9-9.2,18.9-17.4,29.6-24.7c10.6-7.2,22-13.4,33.9-18.4c23.7-10.1,49.6-15.2,75.3-15.1
				c25.8,0.1,51.5,5.4,75.2,15.5c1.5,0.6,2.9,1.3,4.4,2l4.4,2.1c2.9,1.4,5.7,3,8.5,4.5c2.8,1.6,5.5,3.3,8.3,4.9
				c2.7,1.7,5.3,3.6,8,5.3c10.5,7.3,20.1,15.8,28.9,25.1c8.7,9.3,16.5,19.4,23.2,30.2c1.6,2.7,3.3,5.4,4.8,8.2
				c1.5,2.8,3,5.5,4.4,8.4c1.3,2.9,2.8,5.7,4,8.6l1.8,4.4c0.6,1.5,1.3,2.9,1.8,4.4C1516.6-245.8,1521.2-220.8,1521.2-195.8z
				 M1520-195.8c0-24.9-5.3-49.7-15.4-72.3c-10-22.6-24.8-42.9-42.6-59.6c-35.7-33.5-83.6-52.6-131.9-52.2
				c-24.1,0.1-48.2,4.8-70.5,13.9c-22.4,9.1-42.9,22.6-60.2,39.6c-17.3,17-31.2,37.4-40.9,59.7l-1.7,4.2c-0.6,1.4-1.2,2.8-1.7,4.2
				l-1.5,4.3c-0.5,1.4-1.1,2.9-1.5,4.3l-1.3,4.4c-0.4,1.5-0.9,2.9-1.3,4.4l-1.1,4.4c-0.4,1.5-0.8,2.9-1.1,4.4
				c-2.6,11.9-4.1,24.1-4.4,36.4c-0.5,24.5,3.8,49.3,13.1,72.2c9.2,22.9,23.2,43.9,40.8,61.2c8.8,8.6,18.5,16.4,28.9,23
				c10.4,6.6,21.4,12.2,32.8,16.6c22.9,8.8,47.4,12.9,71.7,12.5c24.3-0.4,48.4-5.3,70.9-14.4c22.5-9.1,43.3-22.4,61.2-39.1
				c8.9-8.4,17.1-17.6,24.2-27.6c1.7-2.5,3.5-5,5.2-7.6c1.6-2.6,3.3-5.2,4.8-7.9l2.2-4.1c0.7-1.4,1.5-2.7,2.2-4.1l2-4.2
				c0.7-1.4,1.4-2.8,2-4.2C1514.8-146,1520-170.9,1520-195.8z"/>
		</g>
		<g>
			<path class="st1" d="M107.8-387.7c-3.6,16.2-7.6,32.3-11.8,48.4l-3.1,12l-3.2,12c-2.2,8-4.3,16-6.5,24c-4.4,16-9,31.9-13.7,47.8
				c-4.6,15.9-9.5,31.8-14.6,47.5c-10.3,31.5-21.7,62.7-31.5,94.4C13.5-69.8,4.5-37.9-3.9-5.8L-6.7,4.7l-3.5-10.5l-7.9-23.6l-4-11.8
				L-26-53c-5.2-15.8-10.1-31.6-15.1-47.4L-56-147.9c-5-15.8-9.7-31.7-14.4-47.6c-4.7-15.9-9.3-31.8-13.7-47.8l-6.7-24l-6.5-24
				c-2.2-8-4.3-16-6.4-24l-3.2-12l-3.1-12.1c-4.1-16.1-8.2-32.2-11.9-48.4l1.1-0.3c5.8,15.6,11.3,31.2,16.7,46.9l4,11.8l4,11.8
				c2.6,7.9,5.3,15.7,7.9,23.6l7.7,23.6l7.6,23.7c5.1,15.8,10,31.6,14.9,47.5c4.8,15.9,9.6,31.7,14.2,47.7l13.7,47.8
				c4.5,15.9,9.1,31.9,13.5,47.9l3.3,12l3.2,12l6.4,24.1l-6.3,0c10.6-31.4,20.7-63,29.9-94.9c9.2-31.9,16.9-64.2,25.6-96.2
				c4.4-16,9.1-31.9,14-47.7c4.9-15.9,9.8-31.7,14.9-47.5c2.5-7.9,5.2-15.8,7.8-23.6l3.9-11.8l4-11.8c5.4-15.7,10.9-31.4,16.8-46.9
				L107.8-387.7z"/>
		</g>
		<g>
			<polygon class="st1" points="550.3,-204.1 643.2,-195.8 550,-192.1 			"/>
		</g>
	</g>
</g>
</svg>
